<?xml version="1.0" encoding="utf-8"?>
<!-- Generator: Adobe Illustrator 21.1.0, SVG Export Plug-In . SVG Version: 6.00 Build 0)  -->
<svg version="1.1" id="Слой_1" xmlns="http://www.w3.org/2000/svg" xmlns:xlink="http://www.w3.org/1999/xlink" x="0px" y="0px"
	 viewBox="0 0 54.6 54.6" style="enable-background:new 0 0 54.6 54.6;" xml:space="preserve">
<style type="text/css">
	.st0{clip-path:url(#SVGID_2_);fill:#333033;}
	.st1{clip-path:url(#SVGID_2_);fill-rule:evenodd;clip-rule:evenodd;fill:#333033;}
</style>
<g>
	<defs>
		<rect id="SVGID_1_" y="0" width="54.6" height="54.6"/>
	</defs>
	<clipPath id="SVGID_2_">
		<use xlink:href="#SVGID_1_"  style="overflow:visible;"/>
	</clipPath>
	<path class="st0" d="M27.3,54.6C12.2,54.6,0,42.3,0,27.3S12.2,0,27.3,0c15,0,27.3,12.2,27.3,27.3S42.3,54.6,27.3,54.6 M27.3,2.9
		C13.9,2.9,2.9,13.9,2.9,27.3c0,13.4,10.9,24.4,24.4,24.4s24.4-10.9,24.4-24.4C51.7,13.9,40.7,2.9,27.3,2.9"/>
	<path class="st1" d="M23,27.4v15.8c0,0.2,0.2,0.4,0.4,0.4h5.9c0.2,0,0.4-0.2,0.4-0.4V27.2H34c0.2,0,0.4-0.2,0.4-0.4l0.4-4.8
		c0-0.2-0.2-0.4-0.4-0.4h-4.7v-3.4c0-0.8,0.7-1.5,1.5-1.5h3.3c0.2,0,0.4-0.2,0.4-0.4v-4.8c0-0.2-0.2-0.4-0.4-0.4h-5.5
		c-3.3,0-5.9,2.6-5.9,5.9v4.7h-2.9c-0.2,0-0.4,0.2-0.4,0.4v4.8c0,0.2,0.2,0.4,0.4,0.4H23V27.4z"/>
</g>
</svg>
