<?xml version="1.0" encoding="utf-8"?>
<!-- Generator: Adobe Illustrator 21.1.0, SVG Export Plug-In . SVG Version: 6.00 Build 0)  -->
<svg version="1.1" id="Слой_1" xmlns="http://www.w3.org/2000/svg" xmlns:xlink="http://www.w3.org/1999/xlink" x="0px" y="0px"
	 viewBox="0 0 54.6 54.2" style="enable-background:new 0 0 54.6 54.2;" xml:space="preserve">
<style type="text/css">
	.st0{clip-path:url(#SVGID_2_);fill:#333033;}
</style>
<g>
	<defs>
		<rect id="SVGID_1_" width="54.6" height="54.2"/>
	</defs>
	<clipPath id="SVGID_2_">
		<use xlink:href="#SVGID_1_"  style="overflow:visible;"/>
	</clipPath>
	<path class="st0" d="M27.3,54.2c-15,0-27.1-12.2-27.1-27.1C0.2,12.2,12.3,0,27.3,0c14.9,0,27.1,12.2,27.1,27.1
		C54.4,42.1,42.2,54.2,27.3,54.2 M27.3,2.6c-13.5,0-24.5,11-24.5,24.5c0,13.5,11,24.5,24.5,24.5c13.5,0,24.5-11,24.5-24.5
		C51.8,13.6,40.8,2.6,27.3,2.6 M36.4,16.1c-1.1,0-2,0.9-2,2c0,1.1,0.9,2,2,2c1.1,0,2-0.9,2-2C38.4,17,37.5,16.1,36.4,16.1
		 M27.5,18.7c-4.6,0-8.4,3.8-8.4,8.4c0,4.6,3.8,8.4,8.4,8.4c4.6,0,8.4-3.8,8.4-8.4C35.9,22.5,32.2,18.7,27.5,18.7 M27.5,32.5
		c-3,0-5.4-2.4-5.4-5.4c0-3,2.4-5.4,5.4-5.4c3,0,5.4,2.4,5.4,5.4C32.9,30.1,30.5,32.5,27.5,32.5 M44.5,20.1
		c0-5.7-4.6-10.3-10.3-10.3H20.7c-5.7,0-10.3,4.6-10.3,10.3v13.6C10.4,39.4,15,44,20.7,44h13.6c5.7,0,10.3-4.6,10.3-10.3V20.1z
		 M41.3,33.7c0,3.9-3.2,7.1-7.1,7.1H20.7c-3.9,0-7.1-3.2-7.1-7.1V20.1c0-3.9,3.2-7.1,7.1-7.1h13.6c3.9,0,7.1,3.2,7.1,7.1V33.7z"/>
</g>
</svg>
