<?xml version="1.0" encoding="utf-8"?>
<!-- Generator: Adobe Illustrator 21.1.0, SVG Export Plug-In . SVG Version: 6.00 Build 0)  -->
<svg version="1.1" id="Слой_1" xmlns="http://www.w3.org/2000/svg" xmlns:xlink="http://www.w3.org/1999/xlink" x="0px" y="0px"
	 viewBox="0 0 118.4 136.6" style="enable-background:new 0 0 118.4 136.6;" xml:space="preserve">
<style type="text/css">
	.st0{clip-path:url(#SVGID_2_);fill:#40484B;}
</style>
<g>
	<defs>
		<rect id="SVGID_1_" width="118.4" height="136.6"/>
	</defs>
	<clipPath id="SVGID_2_">
		<use xlink:href="#SVGID_1_"  style="overflow:visible;"/>
	</clipPath>
	<path class="st0" d="M88.7,3l-3-3H31.4C25.1,0,20,5.1,20,11.3V29h-1.5C8.3,29,0,37.3,0,47.5v10.7c0,5.9,2.8,11.1,7,14.5
		c3.2,2.5,7.2,4,11.5,4H20v2.9v32.5c0,3.9,2,7.3,5,9.4c1.8,1.2,4,2,6.4,2h19.2l-4.8-6H31.4c-0.7,0-1.4-0.1-2-0.4
		c-2-0.8-3.4-2.7-3.4-5V79.7v-3h37.1c10.2,0,18.6-8.3,18.6-18.6v-7.7v-3c0-4.4-1.5-8.4-4-11.5c-3.4-4.3-8.6-7-14.5-7H29h-3V11.3
		C26,8.4,28.4,6,31.4,6h51.9l1.3,1.3V9v16.8c0,3.1,1.7,5.7,4.1,7.2c1.2,0.7,2.7,1.1,4.2,1.1h18.1l1.3,1.3v1.7v75
		c0,2.9-2.4,5.3-5.3,5.3h-9.7h-5.4l-4.8,6h5.4H107c6.3,0,11.3-5.1,11.3-11.3V32.9L88.7,3z M63.1,35c6.9,0,12.6,5.6,12.6,12.6v10.7
		c0,6.9-5.6,12.6-12.6,12.6H18.6C11.6,70.7,6,65.1,6,58.2V47.5C6,40.6,11.6,35,18.6,35h3H63.1z"/>
	<path class="st0" d="M18.2,61.8h2.3v-7.1c0.5,0.1,1.2,0.2,1.8,0.2c2.2,0,4.2-0.7,5.4-1.9c0.9-0.9,1.4-2.2,1.4-3.8
		c0-1.6-0.6-2.9-1.6-3.7c-1.1-0.9-2.7-1.5-5-1.5c-1.8,0-3.3,0.2-4.4,0.3V61.8z M20.5,45.9c0.4-0.1,1.2-0.2,2.2-0.2
		c2.5,0,4.2,1.1,4.2,3.5c0,2.4-1.7,3.8-4.5,3.8c-0.8,0-1.4-0.1-1.9-0.2V45.9z"/>
	<path class="st0" d="M44.2,59.4c1.7-1.6,2.6-4,2.6-6.9c0-2.9-0.9-4.9-2.5-6.4c-1.6-1.4-3.9-2.2-7.2-2.2c-1.8,0-3.5,0.2-4.9,0.4
		v17.5c1.2,0.1,2.5,0.2,4.2,0.2C39.8,61.9,42.5,61,44.2,59.4 M34.5,45.9c0.6-0.1,1.5-0.2,2.7-0.2c4.8,0,7.2,2.7,7.2,6.8
		c0,4.8-2.7,7.5-7.6,7.5c-0.9,0-1.7,0-2.3-0.1V45.9z"/>
	<polygon class="st0" points="52,53.7 58.7,53.7 58.7,51.8 52,51.8 52,45.9 59.3,45.9 59.3,44 49.7,44 49.7,61.8 52,61.8 	"/>
	<polygon class="st0" points="59,86.4 59,111.4 48.5,111.4 68.8,136.6 89.1,111.4 85,111.4 79,111.4 79,86.4 	"/>
</g>
</svg>
