<?xml version="1.0" encoding="utf-8"?>
<!-- Generator: Adobe Illustrator 24.2.3, SVG Export Plug-In . SVG Version: 6.00 Build 0)  -->
<svg version="1.1" id="Layer_1" xmlns="http://www.w3.org/2000/svg" xmlns:xlink="http://www.w3.org/1999/xlink" x="0px" y="0px"
	 viewBox="0 0 60 60" style="enable-background:new 0 0 60 60;" xml:space="preserve">
<style type="text/css">
	.st0{fill:#5D3199;}
</style>
<g id="Page-1">
	<g id="_x30_12---Study-Books" transform="translate(-1)">
		<path id="Shape" class="st0" d="M14,52h3c0.6,0,1-0.4,1-1s-0.4-1-1-1h-3c-0.6,0-1,0.4-1,1S13.4,52,14,52z"/>
		<path id="Shape_1_" class="st0" d="M20,51c0,0.6,0.4,1,1,1h28c0.6,0,1-0.4,1-1s-0.4-1-1-1H21C20.4,50,20,50.4,20,51z"/>
		<path id="Shape_2_" class="st0" d="M54,50h-1c-0.6,0-1,0.4-1,1s0.4,1,1,1h1c0.6,0,1-0.4,1-1S54.6,50,54,50z"/>
		<path id="Shape_3_" class="st0" d="M51,48h3c0.6,0,1-0.4,1-1s-0.4-1-1-1h-3c-0.6,0-1,0.4-1,1S50.4,48,51,48z"/>
		<path id="Shape_4_" class="st0" d="M29,48h18c0.6,0,1-0.4,1-1s-0.4-1-1-1H29c-0.6,0-1,0.4-1,1S28.4,48,29,48z"/>
		<path id="Shape_5_" class="st0" d="M14,48h11c0.6,0,1-0.4,1-1s-0.4-1-1-1H14c-0.6,0-1,0.4-1,1S13.4,48,14,48z"/>
		<path id="Shape_6_" class="st0" d="M59,38H12c-3.1,0-6,1.3-8.1,3.5S0.8,46.7,1,49.8C1.5,55.6,6.5,60.1,12.3,60H59c1.1,0,2-0.9,2-2
			v-2c0-1.1-0.9-2-2-2V44c1.1,0,2-0.9,2-2v-2C61,38.9,60.1,38,59,38z M57,54H12.2c-2.6,0.1-4.8-1.8-5.2-4.3c-0.2-1.4,0.2-2.9,1.2-4
			C9.2,44.6,10.6,44,12,44h45V54z M59,42H12c-2,0-3.9,0.9-5.3,2.4s-1.9,3.5-1.7,5.5c0.5,3.5,3.6,6.1,7.1,6.1H59v2H12.3
			c-4.8,0.1-8.9-3.6-9.3-8.4c-0.2-2.5,0.7-4.9,2.4-6.8C7.1,41,9.5,40,12,40h47V42z"/>
		<path id="Shape_7_" class="st0" d="M59.7,10.1l-28-10c-0.4-0.2-0.9-0.2-1.4,0l-28,10C1.5,10.4,1,11.2,1,12c0,0.8,0.5,1.6,1.3,1.9
			L16,18.8V27c0,3.9,13.5,4,15,4c1.5,0,15-0.1,15-4v-8.2l3-1.1V20c0,1.1,0.9,2,2,2h2c1.1,0,2-0.9,2-2v-3c0-0.5-0.1-0.9-0.3-1.3
			l5-1.8c0.8-0.3,1.3-1,1.3-1.9C61,11.2,60.5,10.4,59.7,10.1L59.7,10.1z M44,24.8C40.2,23.1,32.2,23,31,23s-9.2,0.1-13,1.8V14.1
			c0.6-0.8,5.3-2.1,13-2.1s12.4,1.3,13,2.1V24.8z M31,29c-7.4,0-12-1.2-12.9-2c0.9-0.8,5.5-2,12.9-2s12,1.2,12.9,2
			C43,27.8,38.4,29,31,29z M49.5,15.4L46,16.6V14c0-3.9-13.5-4-15-4c-1.5,0-15,0.1-15,4v2.6L3,12L31,2l20,7.1v5
			C50.4,14.4,49.8,14.8,49.5,15.4z M53,20h-2v-3c0-0.6,0.4-1,1-1s1,0.4,1,1V20z M53,14.1V9.9l6,2.1L53,14.1z"/>
	</g>
</g>
</svg>
