<?xml version="1.0" encoding="utf-8"?>
<!-- Generator: Adobe Illustrator 24.2.3, SVG Export Plug-In . SVG Version: 6.00 Build 0)  -->
<svg version="1.1" id="Capa_1" xmlns="http://www.w3.org/2000/svg" xmlns:xlink="http://www.w3.org/1999/xlink" x="0px" y="0px"
	 viewBox="0 0 60 60" style="enable-background:new 0 0 60 60;" xml:space="preserve">
<style type="text/css">
	.st0{fill:#5D3199;}
</style>
<g>
	<path class="st0" d="M28.1,45.3c-0.2-1.1,0.5-2.2,1.6-2.5c1.9-0.4,3.3,1.9,2,3.4C30.7,47.6,28.5,47.1,28.1,45.3z"/>
	<g>
		<path class="st0" d="M30.2,38.6c-1.2,0-2.1-0.9-2.1-2.1v-2.8c0-2.6,1.6-4.9,4.1-5.9c2.3-0.9,3.7-3.1,3.5-5.5
			c-0.2-2.7-2.4-5-5.1-5.1c-1.5-0.1-3,0.4-4.1,1.5c-1.1,1.1-1.7,2.5-1.7,4c0,1.2-0.9,2.1-2.1,2.1c-1.2,0-2.1-0.9-2.1-2.1
			c0-2.7,1.1-5.2,3.1-7.1c2-1.9,4.6-2.8,7.3-2.6c2.3,0.1,4.6,1.2,6.2,2.8c1.7,1.7,2.7,3.9,2.8,6.2c0.3,4.3-2.2,8.2-6.2,9.7
			c-0.8,0.3-1.4,1.1-1.4,2v2.8C32.3,37.6,31.3,38.6,30.2,38.6z"/>
		<path class="st0" d="M58.7,54.2c-0.5-1-1.3-2.3-2.3-4.2c-0.2-0.4-0.7-0.7-1.2-0.7c-0.5,0-0.9,0.3-1.2,0.7c-0.3,0.4-0.3,0.9,0,1.4
			c1.7,3.1,2.6,4.7,3,5.4c0.1,0.2,0.2,0.4,0.3,0.5c0,0,0,0-0.1,0.1c0,0,0,0-0.1,0L47.4,52c-0.5-0.3-1-0.2-1.5,0.1
			c-4.7,3.4-10.2,5.2-16,5.2C15,57.2,2.8,45,2.8,30C2.8,15,15,2.8,30,2.8c10.3,0,19.6,5.7,24.3,14.9c4.7,9.3,3.9,19.8-2.2,28.3
			c-0.2,0.3-0.3,0.7-0.2,1.1c0.1,0.4,0.4,0.8,0.8,1c0,0,0,0,0,0c0,0,0,0,0.1,0c0,0,0.1,0,0.2,0.1c0,0,0.1,0,0.1,0l0,0
			c0.2,0,0.6,0.1,1-0.3c0,0,0,0,0,0c0,0,0,0,0,0c0,0,0,0,0,0c0.4-0.5,2.9-3.9,4.4-8.4c2.3-6.9,2-14.4-0.9-21.1
			c-1.7-4-4.2-7.6-7.4-10.5C47.1,5,43.5,2.9,39.5,1.6c-4-1.3-8.1-1.8-12.3-1.4C22.9,0.5,18.8,1.8,15,4.1C10.3,6.7,6.6,10.4,4,14.9
			C1.6,19.2,0.2,24,0,29c-0.2,5,0.9,9.9,3,14.3c2.3,4.7,5.7,8.6,10.2,11.6C18.2,58.2,24,60,30,60c0.1,0,0.2,0,0.2,0
			c6,0,11.7-1.8,16.6-5.2l8.9,4.8c0.9,0.5,1.9,0.5,2.8-0.1c0.9-0.5,1.4-1.4,1.4-2.4c0-0.1,0-0.1,0-0.1C60,56.5,60,56.5,58.7,54.2z"
			/>
	</g>
</g>
</svg>
