<?xml version="1.0" encoding="utf-8"?>
<!-- Generator: Adobe Illustrator 23.0.3, SVG Export Plug-In . SVG Version: 6.00 Build 0)  -->
<svg version="1.1" id="Capa_1" xmlns="http://www.w3.org/2000/svg" xmlns:xlink="http://www.w3.org/1999/xlink" x="0px" y="0px"
	 viewBox="0 0 170.1 124.7" style="enable-background:new 0 0 170.1 124.7;" xml:space="preserve">
<style type="text/css">
	.st0{fill:#959595;}
</style>
<g>
	<g>
		<g>
			<circle class="st0" cx="116.7" cy="51.2" r="4.9"/>
			<path class="st0" d="M127.9,9.8h-6.3V5c0-2.7-2.2-4.9-4.9-4.9c-2.7,0-4.9,2.2-4.9,4.9v4.9H89.7V5c0-2.7-2.2-4.9-4.9-4.9
				S79.9,2.3,79.9,5v4.9H58V5c0-2.7-2.2-4.9-4.9-4.9S48.2,2.3,48.2,5v4.9h-6.1c-10.7,0-19.5,8.7-19.5,19.5v76
				c0,10.7,8.7,19.5,19.5,19.5h37.3c2.7,0,4.9-2.2,4.9-4.9c0-2.7-2.2-4.9-4.9-4.9H42.2c-5.4,0-9.7-4.4-9.7-9.7v-76
				c0-5.4,4.4-9.7,9.7-9.7h6.1v4.9c0,2.7,2.2,4.9,4.9,4.9c2.7,0,4.9-2.2,4.9-4.9v-4.9H80v4.9c0,2.7,2.2,4.9,4.9,4.9s4.9-2.2,4.9-4.9
				v-4.9H112v4.9c0,2.7,2.2,4.9,4.9,4.9s4.9-2.2,4.9-4.9v-4.9h6.3c5.4,0,9.7,4.4,9.7,9.7V57c0,2.7,2.2,4.9,4.9,4.9
				c2.7,0,4.9-2.2,4.9-4.9V29.3C147.4,18.6,138.7,9.8,127.9,9.8z"/>
			<path class="st0" d="M117.9,65.8c-16.3,0-29.5,13.2-29.5,29.5s13.2,29.5,29.5,29.5s29.5-13.2,29.5-29.5S134.2,65.8,117.9,65.8z
				 M117.9,115c-10.9,0-19.7-8.9-19.7-19.7s8.9-19.7,19.7-19.7c10.8,0,19.7,8.9,19.7,19.7S128.8,115,117.9,115z"/>
			<path class="st0" d="M125,90.4h-2.2v-5.1c0-2.7-2.2-4.9-4.9-4.9s-4.9,2.2-4.9,4.9v10c0,2.7,2.2,4.9,4.9,4.9h7.1
				c2.7,0,4.9-2.2,4.9-4.9C129.9,92.6,127.7,90.4,125,90.4z"/>
			<circle class="st0" cx="95.5" cy="51.2" r="4.9"/>
			<circle class="st0" cx="74.3" cy="72.3" r="4.9"/>
			<circle class="st0" cx="53.1" cy="51.2" r="4.9"/>
			<circle class="st0" cx="53.1" cy="72.3" r="4.9"/>
			<circle class="st0" cx="53.1" cy="93.5" r="4.9"/>
			<circle class="st0" cx="74.3" cy="93.5" r="4.9"/>
			<circle class="st0" cx="74.3" cy="51.2" r="4.9"/>
		</g>
	</g>
</g>
</svg>
