<?xml version="1.0" encoding="utf-8"?>
<!-- Generator: Adobe Illustrator 23.0.3, SVG Export Plug-In . SVG Version: 6.00 Build 0)  -->
<svg version="1.1" id="Capa_1" xmlns="http://www.w3.org/2000/svg" xmlns:xlink="http://www.w3.org/1999/xlink" x="0px" y="0px"
	 viewBox="0 0 170.1 124.7" style="enable-background:new 0 0 170.1 124.7;" xml:space="preserve">
<style type="text/css">
	.st0{fill:#959595;}
</style>
<g>
	<path class="st0" d="M158.7,102.9H153c1.3-2.2,2-4.6,2-7.1V16.4c0-7.7-6.2-13.9-13.9-13.9H29c-7.7,0-13.9,6.2-13.9,13.9v79.4
		c0,2.5,0.7,5,2,7.1h-5.7c-2.8,0-5.1,2.3-5.1,5.1v6.1c0,6.4,5.2,11.6,11.5,11.6h134.5c6.4,0,11.5-5.2,11.5-11.6v-6.1
		C163.8,105.2,161.5,102.9,158.7,102.9z M148.3,16.4v79.4c0,3.4-2.5,6.5-5.9,7.1H27.6c-3.4-0.7-5.9-3.7-5.9-7.1V16.4
		c0-4,3.2-7.2,7.2-7.2h112C145.1,9.2,148.3,12.4,148.3,16.4z M66.7,117.4h36.7c3.9,0,7-3.1,7-7v-0.8h46.8v4.6c0,2.7-2.2,4.9-4.9,4.9
		H17.8c-2.7,0-4.9-2.2-4.9-4.9v-4.6h46.8v0.8C59.7,114.3,62.8,117.4,66.7,117.4z M103.7,110.4c0,0.2-0.2,0.3-0.3,0.3H66.7
		c-0.2,0-0.3-0.2-0.3-0.3v-0.8h37.3V110.4z"/>
	<path class="st0" d="M123.5,33.2c-1.9,0-3.5,1.4-3.8,3.3l-8,3.7v-2.1c0-6.3-5.1-11.4-11.4-11.4H54.1c-6.3,0-11.4,5.1-11.4,11.4
		v35.1c0,6.3,5.1,11.4,11.4,11.4h46.3c6.3,0,11.4-5.1,11.4-11.4V71l8,3.7c0.3,1.8,1.9,3.3,3.8,3.3c2.1,0,3.9-1.7,3.9-3.9V37.1
		C127.4,35,125.7,33.2,123.5,33.2z M119.7,45v21.2l-7.9-3.7V48.8L119.7,45z M50.4,38.1c0-2,1.6-3.7,3.7-3.7h46.3
		c2,0,3.7,1.6,3.7,3.7l0,35.1c0,2-1.6,3.7-3.7,3.7H54.1c-2,0-3.7-1.6-3.7-3.7V38.1z"/>
</g>
</svg>
