<?xml version="1.0" encoding="utf-8"?>
<!-- Generator: Adobe Illustrator 23.0.3, SVG Export Plug-In . SVG Version: 6.00 Build 0)  -->
<svg version="1.1" id="Capa_1" xmlns="http://www.w3.org/2000/svg" xmlns:xlink="http://www.w3.org/1999/xlink" x="0px" y="0px"
	 viewBox="0 0 170.1 124.7" style="enable-background:new 0 0 170.1 124.7;" xml:space="preserve">
<style type="text/css">
	.st0{fill:#959595;}
</style>
<g>
	<g>
		<path class="st0" d="M127.6,125.4H42.7c-10.5,0-19.1-8.6-19.1-19.1V30.3c0-10.5,8.6-19.1,19.1-19.1h84.9
			c10.5,0,19.1,8.6,19.1,19.1v76.1C146.6,116.9,138.1,125.4,127.6,125.4z M42.7,21.1c-5.1,0-9.2,4.1-9.2,9.2v76.1
			c0,5.1,4.1,9.2,9.2,9.2h84.9c5.1,0,9.2-4.1,9.2-9.2V30.3c0-5.1-4.1-9.2-9.2-9.2H42.7z"/>
	</g>
	<g>
		<path class="st0" d="M53.6,31.3c-2.7,0-4.9-2.2-4.9-4.9V5.6c0-2.7,2.2-4.9,4.9-4.9c2.7,0,4.9,2.2,4.9,4.9v20.7
			C58.6,29.1,56.4,31.3,53.6,31.3z"/>
	</g>
	<g>
		<path class="st0" d="M85,31.3c-2.7,0-4.9-2.2-4.9-4.9V5.6c0-2.7,2.2-4.9,4.9-4.9c2.7,0,4.9,2.2,4.9,4.9v20.7
			C90,29.1,87.8,31.3,85,31.3z"/>
	</g>
	<g>
		<path class="st0" d="M116.2,31.3c-2.7,0-4.9-2.2-4.9-4.9V5.6c0-2.7,2.2-4.9,4.9-4.9c2.7,0,4.9,2.2,4.9,4.9v20.7
			C121.1,29.1,118.9,31.3,116.2,31.3z"/>
	</g>
	<g>
		<path class="st0" d="M82.7,95.2V60.5l-8.1,5.2l-4-6.6l14.3-9.1h6.8v45.2H82.7z"/>
	</g>
</g>
</svg>
