<?xml version="1.0" encoding="utf-8"?>
<!-- Generator: Adobe Illustrator 23.0.3, SVG Export Plug-In . SVG Version: 6.00 Build 0)  -->
<svg version="1.1" id="Capa_1" xmlns="http://www.w3.org/2000/svg" xmlns:xlink="http://www.w3.org/1999/xlink" x="0px" y="0px"
	 viewBox="0 0 170.1 124.7" style="enable-background:new 0 0 170.1 124.7;" xml:space="preserve">
<style type="text/css">
	.st0{fill:#959595;}
</style>
<g>
	<path class="st0" d="M150.5,11.3L125.6,1c-3.1-1.3-6.7-1.3-9.9,0l-11.9,5c-1.9,0.8-2.8,3-2,4.9c0.4,0.9,1.1,1.6,2,2
		c0.9,0.4,2,0.4,2.9,0l11.9-5c1.3-0.5,2.8-0.5,4.1,0l24.8,10.3c1.8,0.7,2.9,2.4,2.9,4.2v89.4c0,2.6-2.2,4.6-5,4.6h-3.4
		c-2.1,0-3.8,1.7-3.8,3.8c0,2.1,1.7,3.8,3.8,3.8h3.4c6.9,0,12.5-5.5,12.5-12.2V22.5C158,17.6,155.1,13.2,150.5,11.3z"/>
	<path class="st0" d="M133,116.5h-32.1c0.6-1.3,0.9-2.8,0.9-4.3c0-1.9-0.5-3.7-1.4-5.3c0.4-0.3,0.8-0.6,1.1-1c2-2,3.1-4.7,3.1-7.5
		c0-2-0.6-3.9-1.6-5.6c0.3-0.2,0.5-0.4,0.8-0.7c2-2,3.1-4.7,3.1-7.5c0-2-0.5-3.9-1.6-5.6c0.3-0.2,0.5-0.5,0.8-0.7
		c2-2,3.1-4.7,3.1-7.5c0-5.9-4.8-10.7-10.7-10.7h-7.7V22.5c0-1.8,1.2-3.5,2.9-4.2l3.8-1.6c1.9-0.8,2.8-3,2-4.9c-0.4-0.9-1.1-1.6-2-2
		c-0.9-0.4-2-0.4-2.9,0L91,11.3c-4.6,1.9-7.6,6.3-7.6,11.2v37.7h-4.8c2.3-8.9,1.9-18.1-1.4-28.7c-0.6-2-1.9-3.8-3.6-5
		c-1.7-1.3-3.7-1.9-5.8-1.9c-2.7,0-5.3,1.1-7.2,3.1c-1.9,2-2.8,4.6-2.7,7.3c0.6,11.7-4.6,15.6-12.5,21.5c-1.8,1.4-3.8,2.8-5.8,4.5
		c-0.4-1.7-1.9-2.9-3.7-2.9H15.8c-2.1,0-3.8,1.7-3.8,3.8V121c0,2.1,1.7,3.8,3.8,3.8H36c2.1,0,3.8-1.7,3.8-3.8v-3.4
		c3,0.5,5,1.3,7,2.8c2.1,1.6,4.8,2.5,7.4,2.5h36.5c1.6,0.7,3.4,1.1,5.2,1.1H133c2.1,0,3.8-1.7,3.8-3.8
		C136.8,118.2,135.1,116.5,133,116.5z M36,83.3c-2.1,0-3.8,1.7-3.8,3.8v30.1H19.6V65.5h12.7V78c0,2.1,1.7,3.8,3.8,3.8
		s3.8-1.7,3.8-3.8v-7c3.3-3.5,6.8-6.1,10.2-8.7c8-6,16.3-12.2,15.5-27.9c0-0.6,0.2-1.3,0.6-1.7c0.4-0.5,1-0.7,1.7-0.7
		c0.5,0,1,0.2,1.4,0.5c0.4,0.3,0.7,0.7,0.8,1.2c3.3,11,3.3,20.1-0.1,28.9c-0.5,1.2-0.3,2.5,0.4,3.5c0.7,1,1.9,1.6,3.1,1.6h25.2
		c1.7,0,3.1,1.4,3.1,3.1c0,0.8-0.3,1.6-0.9,2.2c-0.6,0.6-1.4,0.9-2.2,0.9H90c-2.1,0-3.8,1.7-3.8,3.8c0,2.1,1.7,3.8,3.8,3.8h6.2
		c1.7,0,3.1,1.4,3.1,3.1c0,0.8-0.3,1.6-0.9,2.2c-0.6,0.6-1.4,0.9-2.2,0.9H90c-2.1,0-3.8,1.7-3.8,3.8c0,2.1,1.7,3.8,3.8,3.8h4
		c1.7,0,3.1,1.4,3.1,3.1c0,0.8-0.3,1.6-0.9,2.2c-0.6,0.6-1.4,0.9-2.2,0.9h-6.2c-2.1,0-3.8,1.7-3.8,3.8c0,2.1,1.7,3.8,3.8,3.8h3.4
		c1.7,0,3.1,1.4,3.1,3.1c0,0.8-0.3,1.6-0.9,2.2c-0.6,0.6-1.5,0.9-2,0.9c-0.3,0-36.8,0-37.2,0c-1,0-2-0.4-2.9-1l0,0
		c-3.9-3-7.9-4-11.6-4.4V87.1C39.7,85,38,83.3,36,83.3z"/>
	<path class="st0" d="M129.9,23.4c0-5.3-4.3-9.6-9.6-9.6s-9.6,4.3-9.6,9.6s4.3,9.6,9.6,9.6S129.9,28.7,129.9,23.4z M118.2,23.4
		c0-1.2,0.9-2.1,2.1-2.1s2.1,0.9,2.1,2.1c0,1.2-0.9,2.1-2.1,2.1S118.2,24.6,118.2,23.4z"/>
</g>
</svg>
