<?xml version="1.0" encoding="utf-8"?>
<!-- Generator: Adobe Illustrator 23.0.3, SVG Export Plug-In . SVG Version: 6.00 Build 0)  -->
<svg version="1.1" id="Capa_1" xmlns="http://www.w3.org/2000/svg" xmlns:xlink="http://www.w3.org/1999/xlink" x="0px" y="0px"
	 viewBox="0 0 170.1 124.7" style="enable-background:new 0 0 170.1 124.7;" xml:space="preserve">
<style type="text/css">
	.st0{fill:#959595;}
</style>
<g>
	<path class="st0" d="M99,77.9c3.7-3.7,5.8-8.7,5.8-14c0-5.3-2.1-10.3-5.8-14h0c-3.7-3.7-8.7-5.8-14-5.8c-5.3,0-10.3,2.1-14,5.8
		c-3.7,3.7-5.8,8.7-5.8,14s2.1,10.3,5.8,14c3.7,3.7,8.7,5.8,14,5.8S95.3,81.7,99,77.9z M73.7,70.5c-1.1-2-1.7-4.2-1.7-6.5
		c0-3.5,1.4-6.8,3.8-9.2c2.5-2.5,5.7-3.8,9.2-3.8c2.3,0,4.6,0.6,6.5,1.7L73.7,70.5z M96.3,57.4c1.1,2,1.8,4.2,1.8,6.5
		c0,3.5-1.4,6.8-3.8,9.2v0c-4.2,4.2-10.7,5-15.8,2.1L96.3,57.4z"/>
	<path class="st0" d="M134.4,105.2L134.4,105.2c-1.3-1.3-3.5-1.3-4.8,0c-0.6,0.6-1,1.5-1,2.4c0,0.9,0.4,1.8,1,2.4
		c0.6,0.6,1.5,1,2.4,1c0.9,0,1.8-0.4,2.4-1s1-1.5,1-2.4C135.3,106.7,135,105.9,134.4,105.2z"/>
	<path class="st0" d="M130.7,114.1c-1.5,0-2.9,1.1-3.2,2.5l-21.2-10.3c0.7-1.2,1.4-2.5,2-3.7c3.6-7,6.2-15.2,7.6-23.6l3.5,1.5
		c4.8,2.1,7.9,6.9,7.9,12.1v1.1c0,1.8,1.5,3.3,3.3,3.3s3.3-1.5,3.3-3.3v-1.1c0-7.9-4.7-15.1-11.9-18.2l-5.3-2.3
		c0.3-3,0.4-6.2,0.4-9.3c0-21.6-8.4-37.5-15.4-46.9C94.2,5.5,86.5,0.3,86.2,0.1c-1.1-0.8-2.6-0.8-3.7,0c-0.3,0.2-7.9,5.4-15.6,15.7
		c-7,9.5-15.4,25.3-15.4,46.9c0,3.1,0.1,6.2,0.4,9.3l-5.3,2.3c-7.2,3.2-11.9,10.3-11.9,18.2v29.2c0,1.2,0.6,2.2,1.6,2.8
		c1,0.6,2.2,0.7,3.2,0.2l26.6-12.9c2,2.7,3.4,4.1,3.5,4.2c0.6,0.6,1.5,1,2.3,1H81v4.8c0,1.8,1.5,3.3,3.3,3.3c1.8,0,3.3-1.5,3.3-3.3
		v-4.8h9.1c0.9,0,1.7-0.3,2.3-1c0.1-0.1,1.5-1.4,3.5-4.2l26.6,12.9c0.5,0.2,1,0.3,1.5,0.3c0.6,0,1.2-0.2,1.8-0.5
		c1-0.6,1.6-1.7,1.6-2.8v-4.4C134,115.6,132.5,114.1,130.7,114.1z M62.5,106.3l-21,10.2V92.6c0-5.3,3.1-10,7.9-12.1l3.5-1.5
		c1.4,8.4,4,16.6,7.6,23.6C61.1,103.8,61.7,105.1,62.5,106.3z M66.9,28.2c1.6-2.8,3.3-5.6,5.3-8.3c4.8-6.5,9.6-10.8,12.2-12.9
		c2.6,2.1,7.3,6.3,12.1,12.7c2,2.7,3.8,5.5,5.4,8.4H66.9z M84.4,95.7c-1.8,0-3.3,1.5-3.3,3.3v11.3h-7.6c-3.8-4.3-15.2-20-15.2-47.6
		c0-9.8,1.8-19.2,5.5-27.9H105c3.7,8.8,5.5,18.2,5.5,27.9c0,16.9-4.4,29.2-8.1,36.5c-2.8,5.7-5.7,9.3-7.2,11.1h-7.6V99.1
		C87.7,97.2,86.2,95.7,84.4,95.7z"/>
	<path class="st0" d="M87.4,88.6c-1.3-1.3-3.5-1.3-4.8,0c-0.6,0.6-1,1.5-1,2.4c0,0.9,0.4,1.8,1,2.4c0.6,0.6,1.5,1,2.4,1
		c0.9,0,1.8-0.4,2.4-1c0.6-0.6,1-1.5,1-2.4C88.4,90.1,88.1,89.2,87.4,88.6z"/>
</g>
</svg>
