<?xml version="1.0" encoding="utf-8"?>
<!-- Generator: Adobe Illustrator 23.0.3, SVG Export Plug-In . SVG Version: 6.00 Build 0)  -->
<svg version="1.1" id="Layer_1" xmlns="http://www.w3.org/2000/svg" xmlns:xlink="http://www.w3.org/1999/xlink" x="0px" y="0px"
	 viewBox="0 0 170.1 124.7" style="enable-background:new 0 0 170.1 124.7;" xml:space="preserve">
<style type="text/css">
	.st0{fill:#959595;}
</style>
<path class="st0" d="M161.6,35.9h-6.4l-8,4.2c-1-0.5-1.8-0.9-2.7-1.1l-9.7-2.4v-0.2c4.6-3.4,7.3-8.7,7.3-14.4v-4.3
	c0-9.7-8.3-18.5-17.4-18.5c0,0,0,0,0,0c-9.5,0-14.9,5.4-16.5,10l-0.1,0.2c-1,2.7-1.8,4.9-1.8,7.7V22c0,5.7,2.7,11.1,7.3,14.4v0.2
	l-9,2.3l-9-2.3v-0.2c4.6-3.4,7.3-8.7,7.3-14.4v-4.3c0-9.9-7.8-18.2-17.3-18.5c-4.9-0.1-9.5,1.6-13,5c-3.5,3.4-5.4,8-5.4,12.8V22
	c0,5.7,2.7,11.1,7.3,14.4v0.2l-9,2.3l-9-2.3v-0.2c4.6-3.4,7.3-8.7,7.3-14.4v-4.3c0-2.9-0.7-5.7-1.9-8.3c0-0.1-1.1-2.9-3.6-5.5
	c-2-2-7.2-4.7-11.8-4.7c0,0,0,0,0,0c-4.8,0-9.7,1.9-12.9,5C30,7.7,28,12.2,28,17.1V22c0,5.7,2.7,11.1,7.3,14.4v0.2l-5.8,1.5L17.4,31
	h-9v52L33,91.2l5.5,0l0.5-1.6l6.2,3.7c0.3,4,3.4,7.2,7.4,7.6c0.5,3.8,3.5,6.9,7.3,7.3c0.5,3.8,3.5,6.9,7.3,7.3
	c0.5,4.2,4,7.4,8.3,7.4c1.5,0,2.9-0.4,4.2-1.1l1.7,1.5c1.5,1.3,3.4,2,5.4,2h0.5c4.2,0,7.7-3.3,8.2-7.4c3.8-0.4,6.9-3.5,7.3-7.3
	c3.8-0.4,7-3.5,7.3-7.4c4.1-0.5,7.4-4,7.4-8.2c0-0.1,0-0.2,0-0.3l44-22V35.9z M42.7,53.2v0.2l-8.9,31.3l-3.6-1.2l8.2-32.8L42.7,53.2
	z M89.7,90l13.5,11.2c0.4,0.3,0.6,0.8,0.6,1.4c0,1-0.8,1.8-1.8,1.8h-0.5c-0.4,0-0.8-0.1-1.1-0.4L86.5,92.4l-4.1,4.9l13.5,11.2
	c0.4,0.3,0.6,0.8,0.6,1.4c0,1-0.8,1.8-1.8,1.8c-0.8,0-1.5-0.3-2.1-0.8l-5.3-4.4c-1.3-2.5-3.7-4.2-6.5-4.5c-0.5-3.8-3.5-6.9-7.3-7.3
	c-0.5-3.8-3.5-6.9-7.3-7.3c-0.5-4.2-4-7.4-8.3-7.4c-2.2,0-4.4,0.9-5.9,2.5l-4.3,4.3c-0.1,0.1-0.2,0.2-0.3,0.4l-6.4-3.9l6.3-22
	l16.1-3.6c4.2-0.9,8.6-0.7,12.7,0.6l1.8,0.6L67.2,64c-3.1,1.5-4.9,4.6-4.9,8v0.5c0,4.9,4,9,9,9c1.6,0,3.2-0.4,4.6-1.3l9.1-5.5
	c1.5-0.9,3.6-0.7,5,0.5l20.7,18.6c0.4,0.4,0.6,0.9,0.6,1.4c0,1-0.8,1.9-1.9,1.9h-0.4c-0.4,0-0.9-0.2-1.2-0.4L93.8,85.1L89.7,90z
	 M85.8,116.3c0.5-0.5,0.9-1,1.2-1.6l1.5,1.2c0.4,0.3,0.6,0.8,0.6,1.4c0,1-0.8,1.8-1.8,1.8h-0.5c-0.4,0-0.9-0.2-1.2-0.4l-1.2-1.1
	L85.8,116.3z M52.1,91.2l4.3-4.3c0.4-0.4,0.9-0.6,1.4-0.6c1.1,0,2,0.9,2,2c0,0.5-0.2,1-0.6,1.4L54.9,94c-0.4,0.4-0.9,0.6-1.4,0.6
	c-1.1,0-2-0.9-2-2C51.6,92.1,51.8,91.6,52.1,91.2z M59.5,98.6l4.3-4.3c0.4-0.4,0.9-0.6,1.4-0.6c1.1,0,2,0.9,2,2c0,0.5-0.2,1-0.6,1.4
	l-4.3,4.3c-0.4,0.4-0.9,0.6-1.4,0.6c-1.1,0-2-0.9-2-2C58.9,99.5,59.1,98.9,59.5,98.6z M66.8,105.9l4.3-4.3c0.4-0.4,0.9-0.6,1.4-0.6
	c1.1,0,2,0.9,2,2c0,0.5-0.2,1-0.6,1.4l-4.3,4.3c-0.4,0.4-0.9,0.6-1.4,0.6c-1.1,0-2-0.9-2-2C66.2,106.8,66.5,106.3,66.8,105.9z
	 M74.2,113.2l4.3-4.3c0.4-0.4,0.9-0.6,1.4-0.6c1.1,0,2,0.9,2,2c0,0.5-0.2,1-0.6,1.4L77,116c-0.4,0.4-0.9,0.6-1.4,0.6
	c-1.1,0-2-0.9-2-2C73.6,114.1,73.8,113.6,74.2,113.2z M40.2,31.9c-3.5-2-5.7-5.8-5.7-9.9v-4.9c0-3.1,1.2-6.1,3.5-8.2
	c2.3-2.2,5.2-3.3,8.3-3.2c6.1,0.2,11.1,5.6,11.1,12.1V22c0,4.1-2.2,7.9-5.7,9.9L50,32.9l0,8.8l7.7,1.9c-1.9,2.3-2.9,5.1-2.9,8.1v1.2
	L49,54.2l0.1-4.6l-11.7-6.8l4.3-1.1v-8.8L40.2,31.9z M80.9,41.6v-8.8l-1.6-0.9c-3.5-2-5.7-5.8-5.7-9.9v-4.9c0-3.1,1.2-6.1,3.5-8.2
	c2.2-2.2,5.3-3.3,8.3-3.2c6.1,0.2,11.1,5.6,11.1,12.1V22c0,4.1-2.2,7.9-5.7,9.9l-1.6,0.9l0,8.8l14.6,3.6c2.9,0.7,5,3.4,5,6.4v8.7
	l-1.2,0l-14.9-4.3c-1.1-0.3-2.3-0.5-3.7-0.5l-11-3.5c-5.2-1.7-10.7-1.9-16.1-0.7l-0.5,0.1c0.1-2.9,2.1-5.4,5-6.1L80.9,41.6z
	 M81.6,69.2l-9.1,5.5c-0.4,0.2-0.8,0.4-1.3,0.4c-1.4,0-2.5-1.1-2.5-2.5V72c0-1,0.5-1.8,1.4-2.3l13.6-6.8c2.2-1.1,4.7-1.3,7.1-0.7
	l15.4,4.4l4.1,0.1l44.9-23.6v25.8l-40.3,20.1c0,0,0,0-0.1,0L94.2,70.4c-1.9-1.8-4.5-2.7-7.1-2.7C85.2,67.7,83.3,68.2,81.6,69.2z
	 M118.4,31.9c-3.5-2-5.7-5.8-5.7-9.9v-4.9c0-3.1,1.2-6.1,3.5-8.2c2.3-2.2,5.2-3.3,8.3-3.2c6.1,0.2,11.1,5.6,11.1,12.1V22
	c0,4.1-2.2,7.9-5.7,9.9l-1.6,0.9l0,8.8l10.9,2.7l-24,12.6v-5.3c0-3-1-5.8-2.9-8.1l7.8-1.9v-8.8L118.4,31.9z M14.9,37.4h0.8l16.9,9.9
	l-8.5,34.1l-9.2-3.1V37.4z"/>
</svg>
