<?xml version="1.0" encoding="utf-8"?>
<!-- Generator: Adobe Illustrator 23.0.3, SVG Export Plug-In . SVG Version: 6.00 Build 0)  -->
<svg version="1.1" id="Capa_1" xmlns="http://www.w3.org/2000/svg" xmlns:xlink="http://www.w3.org/1999/xlink" x="0px" y="0px"
	 viewBox="0 0 170.1 124.7" style="enable-background:new 0 0 170.1 124.7;" xml:space="preserve">
<style type="text/css">
	.st0{fill:#959595;}
</style>
<path class="st0" d="M127.9,40.8h-8.2c-0.3,0-0.6,0-0.9,0.1l0-15.3C118.5,11.2,106.6-0.2,92.3,0L76.9,0c-14-0.2-25.5,11.1-25.6,25.1
	c0,0.2,0,0.4,0,0.5v15.2c-0.3,0-0.6-0.1-0.9-0.1h-8.2c-4,0-7.3,3.3-7.3,7.3s3.3,7.3,7.3,7.3h0.9v11.4c0,3.8,3.1,6.9,7,7h1.8
	c1.3,3.6,4.8,6.1,8.7,6.1h13.1v5c0,1.8,1.4,3.2,3.2,3.2h0.9l0,4.3L61.5,95c-4.6,0.8-8.3,4.4-9.3,9l-0.7,3.6c-4.1,2.6-5.6,8-3.2,12.4
	c1.2,2.2,3.2,3.8,5.5,4.5c0.9,0.3,1.7,0.4,2.6,0.4c1.5,0,3.1-0.4,4.5-1.1c3-1.6,4.9-4.8,4.8-8.2c0-0.5,0-1-0.1-1.5l1.4-5.8l10.6-1.3
	v2.9c-1.5,1.8-2.2,4.1-2,6.4c0.2,2.5,1.3,4.8,3.1,6.4c1.9,1.6,4.3,2.5,6.7,2.3c2.5-0.2,4.8-1.3,6.4-3.1c3-3.4,3.1-8.5,0.3-12v-2.9
	l10.6,1.3l1.5,5.8c0,0.5,0,1,0,1.5c0,5.1,4.1,9.3,9.3,9.3c0,0,0,0,0,0c5.1,0,9.3-4.1,9.3-9.3c0-3.2-1.6-6.2-4.4-7.9l-0.7-3.6
	c-0.9-4.6-4.6-8.2-9.3-9l-16.3-2.7V88h0.9c1.8,0,3.2-1.4,3.2-3.2v-5h13.1c3.9,0,7.4-2.5,8.7-6.1h1.8c3.8,0,6.9-3.1,7-7V55.3h0.9
	c4,0,7.3-3.3,7.3-7.3S131.9,40.8,127.9,40.8z M128.8,48.1c0,0.5-0.4,0.9-0.9,0.9h-8.2c-0.5,0-0.9-0.4-0.9-0.9c0-0.5,0.4-0.9,0.9-0.9
	h8.2C128.4,47.2,128.8,47.6,128.8,48.1z M120.6,55.3v11.4c0,0.3-0.3,0.6-0.6,0.6h-1.2v-12c0.3,0,0.6,0.1,0.9,0.1H120.6z M90,79.8
	v1.8h-9.9v-1.8H90z M110.7,115.4c0-1.6,1.3-2.9,2.9-2.9s2.9,1.3,2.9,2.9c0,1.6-1.3,2.9-2.9,2.9S110.7,117,110.7,115.4z M59.4,115.4
	c0,1.6-1.3,2.9-2.9,2.9c-1.6,0-2.9-1.3-2.9-2.9c0-1.6,1.3-2.9,2.9-2.9C58.1,112.4,59.4,113.7,59.4,115.4z M85,112.4
	c1.6,0,2.9,1.3,2.9,2.9c0,1.6-1.3,2.9-2.9,2.9c-1.6,0-2.9-1.3-2.9-2.9C82.1,113.7,83.4,112.4,85,112.4z M87.1,100.7
	c-0.7,0.6-1.1,1.5-1.2,2.4l0,3c-0.6-0.1-1.2-0.1-1.8,0v-3c0-0.9-0.4-1.8-1.1-2.4c-0.7-0.6-1.6-0.9-2.5-0.8l-16.3,2
	c-1.3,0.2-2.4,1.1-2.7,2.4l-0.7,2.8c-0.8-0.4-1.7-0.8-2.6-0.9l0.2-1.1c0.4-2,2-3.6,4.1-3.9l16.9-2.8c2.7-0.4,4.7-2.7,4.7-5.5v-5h1.8
	v5c0,2.8,2,5.1,4.7,5.5l16.9,2.8l0,0c2,0.3,3.7,1.9,4.1,3.9l0.2,1c-0.9,0.2-1.7,0.5-2.5,0.9l-0.7-2.7c-0.3-1.3-1.4-2.2-2.7-2.4
	l-16.3-2C88.7,99.9,87.8,100.1,87.1,100.7z M112.4,61.7c-0.9-0.3-1.9-0.5-2.9-0.5h-49c-1,0-2,0.2-2.9,0.5l0-36.1
	C57.5,15.1,66,6.5,76.4,6.4c0.1,0,0.3,0,0.4,0l15.4,0c10.8-0.2,19.9,8.4,20.2,19.3V61.7z M60.5,67.6C60.5,67.6,60.6,67.6,60.5,67.6
	l49,0c1.4,0,2.6,0.9,2.9,2.2c-0.4,2.1-2.2,3.6-4.3,3.6c0,0,0,0-0.1,0l-14.9,0l-31.2,0c0,0,0,0-0.1,0c-2.1,0-3.9-1.5-4.3-3.6
	C58,68.5,59.1,67.6,60.5,67.6z M49.5,55.3h0.9c0.3,0,0.6,0,0.9-0.1v12h-1.2c-0.3,0-0.6-0.3-0.6-0.6V55.3z M50.4,48.9h-8.2
	c-0.5,0-0.9-0.4-0.9-0.9c0-0.5,0.4-0.9,0.9-0.9h8.2c0.5,0,0.9,0.4,0.9,0.9C51.3,48.5,50.9,48.9,50.4,48.9z"/>
</svg>
