<?xml version="1.0" encoding="utf-8"?>
<!-- Generator: Adobe Illustrator 21.1.0, SVG Export Plug-In . SVG Version: 6.00 Build 0)  -->
<svg version="1.1" id="Слой_1" xmlns="http://www.w3.org/2000/svg" xmlns:xlink="http://www.w3.org/1999/xlink" x="0px" y="0px"
	 viewBox="0 0 730.8 707.5" style="enable-background:new 0 0 730.8 707.5;" xml:space="preserve">
<style type="text/css">
	.st0{clip-path:url(#SVGID_2_);fill:#dbebf5;}
</style>
<g>
	<defs>
		<rect id="SVGID_1_" width="730.8" height="707.5"/>
	</defs>
	<clipPath id="SVGID_2_">
		<use xlink:href="#SVGID_1_"  style="overflow:visible;"/>
	</clipPath>
	<path class="st0" d="M273.2,707.4H259c-0.5,0-1-0.1-1.5-0.3l-9.7-4.9h-9.6c-0.5,0-1-0.1-1.5-0.3l-15.6-7.8c-0.4-0.2-0.7-0.5-1-0.8
		L6,448c-0.4-0.5-0.7-1-0.8-1.6L0,415.3c-0.1-0.5-0.1-1,0.1-1.4L88.4,99.7v0l0,0c0,0,0,0,0,0c0,0,0,0,0,0c0,0,0,0,0,0c0,0,0,0,0,0
		l0,0l3.9-13c0.2-0.6,0.5-1.1,0.9-1.5l13-11.7c0.4-0.3,0.8-0.6,1.3-0.7c0,0,0,0,0,0c0,0,0,0,0,0c0,0,0,0,0,0c0,0,0.1,0,0.1,0
		L415.3,0.1c0.4-0.1,0.9-0.1,1.3,0l15.6,2.6c0.7,0.1,1.3,0.4,1.8,0.9l2.9,2.9h5.1c0.4,0,0.8,0.1,1.1,0.2l14.3,5.2
		c0.4,0.2,0.8,0.4,1.1,0.7l262.2,247.9c0,0,0,0,0.1,0.1c0,0,0,0,0,0c0.3,0.3,0.5,0.7,0.7,1.1l9.1,20.7c0.3,0.7,0.4,1.5,0.1,2.3
		l-99.8,307.2v3.4c0,1-0.5,2-1.3,2.6l-14.5,10.9l-1.1,7.8c-0.1,0.8-0.5,1.5-1.1,2l-15.6,13c-0.4,0.3-0.8,0.6-1.3,0.7L274,707.4
		C273.7,707.4,273.5,707.4,273.2,707.4 M259.7,701h13.1l320.8-75l14-11.7l1.1-7.9c0.1-0.9,0.6-1.6,1.3-2.1l14.3-10.7v-1.9l-1.2-4.8
		c-0.4-1.7,0.6-3.5,2.4-3.9c0.5-0.1,0.9-0.1,1.4,0l97.2-299.1l-8.3-18.9c-0.2-0.2-0.4-0.4-0.6-0.6L454.5,17.7L441.4,13h-5.9
		c-0.9,0-1.7-0.3-2.3-1L430,8.9l-13.9-2.3L110.3,78.8c-0.2,0.1-0.4,0.2-0.6,0.3L98.3,89.4L95,100.3c0,0.6-0.1,1.2-0.4,1.7l-0.2,0.4
		L6.6,414.9l4.9,29.5l213.2,244.2l14.3,7.2h9.6c0.5,0,1,0.1,1.5,0.3L259.7,701z M273.3,700.7c-0.1,0-0.1,0-0.2,0l-18.4-4.6
		c-0.3-0.1-0.5-0.3-0.5-0.6l-17.8-4.5c-0.3-0.1-0.5-0.3-0.5-0.6c0-0.3,0.2-0.6,0.5-0.6l13.7-3.2l-18.6-4.7c-0.3-0.1-0.5-0.3-0.5-0.6
		c0-0.3,0.2-0.6,0.5-0.6l13-3.2l-16.8-4.2c-0.3-0.1-0.5-0.3-0.5-0.6c0-0.3,0.2-0.6,0.5-0.6l12.8-3.3l-17.4-4.4l15.6,34.7
		c0.1,0.3,0,0.7-0.3,0.9c-0.3,0.1-0.7,0-0.9-0.3l-83-184.1l-15.2-4.7L223.2,691c0.2,0.3,0,0.7-0.3,0.9c-0.3,0.2-0.7,0-0.9-0.3
		l-6.9-14.8c-0.2,0.1-0.4,0.1-0.6-0.1l-8.3-5.6c-0.1-0.1-0.2-0.2-0.2-0.3l-4.2-8.8l-7.9-5.3c-0.1-0.1-0.2-0.2-0.2-0.3l-4.4-9
		l-7.9-5.2c-0.1-0.1-0.2-0.2-0.2-0.3l-4.5-9.3l-7.8-5.1c-0.1-0.1-0.2-0.2-0.2-0.3l-4.7-9.5l-7.6-4.8c-0.1-0.1-0.2-0.2-0.2-0.3
		l-4.8-9.6l-7.3-4.6c-0.1-0.1-0.2-0.2-0.2-0.3l-5-9.7l-7.2-4.4c-0.1-0.1-0.2-0.1-0.2-0.3l-5.2-10.1l-7.1-4.3
		c-0.1-0.1-0.2-0.2-0.2-0.3l-5.2-10l-6.8-4c-0.1-0.1-0.2-0.1-0.2-0.3l-5.4-10.3l-6.7-3.9c-0.1-0.1-0.2-0.1-0.2-0.3l-5.6-10.5
		l-6.6-3.7c-0.1-0.1-0.2-0.2-0.3-0.3l-5.8-10.8l-6.5-3.6c-0.1-0.1-0.2-0.1-0.3-0.3l-6-11l-6.3-3.4c-0.1-0.1-0.2-0.1-0.3-0.3
		l-6.1-11.1l-6.1-3.1c-0.1-0.1-0.2-0.2-0.3-0.3l-6.2-11.2l-5.9-3c-0.1-0.1-0.2-0.2-0.3-0.3l-6.5-11.6c-0.2-0.3-0.1-0.7,0.2-0.8
		c0.3-0.2,0.6-0.1,0.9,0.1l8.4,9.8l-3.4-6.2c-0.2-0.3-0.1-0.7,0.2-0.8c0.2-0.1,0.3-0.1,0.5-0.1l-24-11.8c-0.3-0.2-0.5-0.5-0.3-0.9
		c0.2-0.3,0.5-0.5,0.9-0.3l128.6,63l-3.5-16.5L6.9,436.1c-0.3-0.1-0.5-0.5-0.3-0.9c0.1-0.3,0.5-0.5,0.9-0.3l127,55.7l11.2-4.5L3,427
		c-0.3-0.1-0.4-0.4-0.4-0.7l2.6-13c0-0.2,0.2-0.4,0.3-0.4c0.2-0.1,0.4-0.1,0.5,0l6,2.3l-1-17.1c0-0.2,0.1-0.4,0.2-0.5
		c0.2-0.1,0.4-0.2,0.6-0.1l4.7,1.5l-1.1-17.2c0-0.2,0.1-0.4,0.2-0.5c0.2-0.1,0.4-0.2,0.6-0.1l4.9,1.2L20.1,365
		c0-0.2,0.1-0.4,0.2-0.5c0.1-0.1,0.4-0.2,0.5-0.2l5.2,0.9l-1.2-17.8c0-0.2,0.1-0.4,0.2-0.5c0.1-0.1,0.3-0.2,0.5-0.2l5.5,0.6
		L29.7,330c0-0.2,0.1-0.4,0.2-0.5c0.1-0.1,0.3-0.2,0.5-0.2l5.6,0.2L34.6,312c0-0.2,0-0.4,0.2-0.5c0.1-0.1,0.3-0.2,0.5-0.2l5.9-0.2
		l-1.4-17.4c0-0.4,0.2-0.7,0.6-0.7l5.9-0.6l-1.5-16.9c0-0.3,0.2-0.6,0.5-0.7l6.1-1l-1.6-17.4c0-0.3,0.2-0.6,0.5-0.7l6.6-1.5
		l-1.7-17.6c0-0.3,0.2-0.6,0.5-0.7l6.9-2l-1.8-17.5c0-0.3,0.1-0.6,0.4-0.7l7.1-2.5l-1.9-18c0-0.3,0.1-0.6,0.4-0.7l7.5-3.1l-2-17.5
		c0-0.3,0.1-0.5,0.4-0.7l7.7-3.6l-2.1-17.5c0-0.3,0.1-0.5,0.3-0.7l8-4.3l-2.2-17.4c0-0.3,0.1-0.5,0.3-0.6l8.6-5.1
		c0.2-0.1,0.5-0.1,0.7,0c0,0,0,0,0,0l-3.3-23.6c0-0.1,0-0.3,0.1-0.4l0.2-0.4c0-0.1,0.1-0.2,0.2-0.2l10.6-7.2
		c0.2-0.1,0.4-0.1,0.6-0.1c0-0.1,0-0.1,0.1-0.2c0,0,0,0,0,0c0,0,0,0,0,0l8.8-11.3l-3.5-4.6c-0.2-0.3-0.2-0.7,0.1-0.9
		c0.3-0.2,0.7-0.2,0.9,0.1l3.6,4.8l84.3,8.5c-0.2-0.1-0.2-0.3-0.2-0.5l0.5-7.4l-22.3,5.7c-0.2,0.1-0.4,0-0.6-0.1
		c-0.2-0.1-0.2-0.4-0.2-0.6l0.9-7.1l-22.1,5.5c-0.2,0.1-0.4,0-0.6-0.2c-0.2-0.2-0.2-0.4-0.2-0.6l1.4-6.9l-22.1,5.4
		c-0.2,0.1-0.5,0-0.6-0.2c-0.2-0.2-0.2-0.4-0.2-0.6l2.1-7.8c0.1-0.3,0.4-0.5,0.7-0.5l20.5,2.1l1.4-7c0.1-0.3,0.4-0.5,0.7-0.5l20.4,2
		l0.9-6.7c0-0.3,0.3-0.6,0.7-0.6l20.3,1.9l0.4-6.7c0-0.2,0.1-0.3,0.2-0.5c0.1-0.1,0.3-0.2,0.5-0.2l20.4,1.9l0-6.2
		c0-0.2,0.1-0.4,0.2-0.5c0.1-0.1,0.3-0.2,0.5-0.2l20,1.8l-0.5-6c0-0.2,0.1-0.4,0.2-0.5c0.1-0.1,0.3-0.2,0.5-0.2l19.9,1.7l-0.8-5.7
		c0-0.2,0-0.4,0.2-0.5c0.1-0.1,0.3-0.2,0.5-0.2l19.3,1.6l-1.1-5.3c0-0.2,0-0.4,0.1-0.6c0.1-0.2,0.3-0.2,0.5-0.2l18.7,1.5l-1.5-5.2
		c-0.1-0.2,0-0.4,0.1-0.6c0.1-0.2,0.3-0.3,0.6-0.2l19.4,1.5l-1.8-5.1c-0.1-0.2,0-0.4,0.1-0.6c0.1-0.2,0.3-0.3,0.6-0.3l19.3,1.4
		l-2-4.8c-0.1-0.2-0.1-0.4,0.1-0.6c0.1-0.2,0.3-0.3,0.6-0.3l19.1,1.4l-2.4-4.8c-0.1-0.2-0.1-0.5,0-0.6c0.1-0.2,0.3-0.3,0.6-0.3
		l19.2,1.3l-2.5-4.4c-0.1-0.2-0.1-0.5,0-0.7c0.1-0.2,0.4-0.3,0.6-0.3l18.8,1.3l-2.7-4.3c-0.1-0.2-0.1-0.5,0-0.7
		c0.1-0.2,0.4-0.3,0.6-0.3l18.6,1.2l-2.9-4.1c-0.1-0.2-0.2-0.5,0-0.7c0.1-0.2,0.4-0.4,0.6-0.3l19.2,1.2l-4.6-5.8
		c-0.2-0.3-0.2-0.7,0.1-0.9c0.3-0.2,0.7-0.2,0.9,0.1l63.1,79.7c0.3,0,0.5,0.3,0.6,0.6c0,0,0,0.1,0,0.1l29.5,37.3l19.1,6.8
		L434.7,10.7c-0.2-0.3-0.2-0.7,0.1-0.9c0.3-0.2,0.7-0.2,0.9,0.1l95.6,118.5l0.4,0.2c0.2,0.1,0.4,0.3,0.4,0.5l2.3,14l6.6-9.9
		L441.5,10.1c-0.2-0.3-0.2-0.7,0.1-0.9c0.3-0.2,0.7-0.2,0.9,0.1l99.8,123.2l15.9,4.6L455.8,15.3c-0.2-0.3-0.2-0.7,0.1-0.9
		c0.3-0.2,0.7-0.2,0.9,0.1l4.9,5.8c0.2-0.2,0.6-0.2,0.8,0l9.2,7.8l5.3,6.1l9.1,7.8l5.6,6.5c0,0,0,0,0,0l9.3,7.9l5.9,6.8c0,0,0,0,0,0
		l9.4,8l6.3,7.2c0,0,0,0,0.1,0.1l9.4,8l6.6,7.4l9.4,8l6.9,7.7c0,0,0,0,0,0l9.5,8.1l7.3,8.1c0,0,0,0,0,0.1l9.6,8.1l7.5,8.4l9.6,8.1
		l8,8.9l9.6,8.1l8.5,9.3c0,0,0,0,0.1,0l9.8,8.2l8.9,9.8c0,0,0,0,0.1,0.1l10,8.4l9.5,10.4c0,0,0,0,0.1,0.1l9.9,8.3l9.9,10.7
		c0,0,0,0,0,0l9.9,8.3l10.3,11.2c0,0,0,0,0,0l10,8.4l5.9,6.3l1.9,1.6c0.2,0.2,0.3,0.5,0.2,0.7l2.9,3.1c0.2,0.3,0.2,0.7,0,0.9
		c-0.3,0.2-0.7,0.2-0.9,0l-9-8.7c0,0.1-0.1,0.2-0.1,0.2c-0.3,0.2-0.7,0.2-0.9,0l-7.3-7l-2.1-1.7c0,0,0,0-0.1,0.1
		c-0.2,0.2-0.7,0.2-0.9,0l-5.6-5.4l-3.6-3c-0.3,0.2-0.6,0.2-0.9,0l-4.5-4.3l-5.6-4.6c-0.2,0.1-0.5,0-0.7-0.1l-2.5-2.5l-7.6-6.2
		c-0.1,0-0.3-0.1-0.4-0.2l-1-1l-108.7-88.5l5.5,14.4l160.4,128c0.3,0.2,0.3,0.6,0.1,0.9c-0.2,0.3-0.6,0.3-0.9,0.1L567.5,156.6
		l4.5,32.2l8.4-17.6c0.1-0.3,0.4-0.4,0.7-0.4c0.3,0,0.5,0.3,0.5,0.6l3.7,27.1l7.7-17.1c0.1-0.3,0.4-0.4,0.7-0.4
		c0.3,0,0.5,0.3,0.6,0.6l3.4,25.7l7.3-16.3c0.1-0.3,0.4-0.4,0.7-0.4c0.3,0,0.5,0.3,0.5,0.6l3.2,25.1l7-16.1c0.1-0.3,0.4-0.4,0.7-0.4
		c0.3,0,0.5,0.3,0.6,0.6l2.9,24.2l6.6-15.6c0.1-0.3,0.4-0.4,0.7-0.4c0.3,0,0.5,0.3,0.6,0.6l2.7,23.5l6.1-15.4
		c0.1-0.3,0.4-0.4,0.7-0.4c0.3,0,0.5,0.3,0.6,0.6l2.9,21.1l5.4-13.5c0.1-0.3,0.4-0.4,0.7-0.4c0.3,0,0.5,0.3,0.6,0.6l2.6,24
		c0,0.3-0.1,0.5-0.3,0.6c-0.2,0.1-0.5,0.1-0.7,0l-7.5-5.6l3,21.5l13.7-34.7c0.1-0.3,0.4-0.4,0.7-0.4c0.3,0,0.5,0.3,0.6,0.6l2.6,24.9
		l5.6-17.2c0.1-0.3,0.4-0.5,0.7-0.4c0.3,0,0.5,0.3,0.6,0.6l2.7,25.1l5.9-17c0.1-0.3,0.4-0.5,0.7-0.4c0.3,0,0.5,0.3,0.6,0.6l2.2,21.6
		l4.9-15.1c0.1-0.3,0.4-0.5,0.7-0.4c0.3,0,0.5,0.3,0.6,0.6l2,21.2l4.8-14.8c0.1-0.3,0.4-0.5,0.7-0.4c0.3,0,0.5,0.3,0.6,0.6l1.8,20.7
		l4.7-14.4c0.1-0.3,0.4-0.5,0.7-0.4c0.3,0,0.5,0.3,0.6,0.6l1.7,19.9l4.5-13.9c0.1-0.3,0.4-0.5,0.7-0.4c0.3,0,0.5,0.3,0.6,0.6
		l1.5,19.2l4.4-13.6c0.1-0.3,0.4-0.5,0.7-0.4c0.3,0,0.5,0.3,0.6,0.6l1.6,22c0,0.3-0.1,0.5-0.3,0.6c-0.2,0.1-0.5,0.1-0.7-0.1
		l-5.9-4.5l1.6,20.5c0,0.3-0.1,0.5-0.3,0.6c-0.2,0.1-0.5,0.1-0.7,0l-13.4-9.6l2,22.6l5.3-16.2c0.1-0.3,0.4-0.5,0.7-0.4
		c0.3,0,0.5,0.3,0.6,0.6l1.8,21.4c0,0.2-0.1,0.5-0.3,0.6c-0.2,0.1-0.5,0.1-0.7,0l-7.2-4.8c0,0,0,0,0,0l1.7,18.7
		c0,0.2-0.1,0.5-0.3,0.6c-0.2,0.1-0.5,0.1-0.7,0l-14.1-8.7c0,0.1,0.1,0.2,0.1,0.3l2.2,22.2l5.3-16.4c0.1-0.3,0.4-0.5,0.7-0.4
		c0.3,0,0.5,0.3,0.6,0.6l2,20.8c0,0.2-0.1,0.5-0.3,0.6c-0.2,0.1-0.5,0.1-0.7,0l-7.4-4.2c-0.1,0-0.1-0.1-0.2-0.1l1.9,18.9
		c0,0.2-0.1,0.5-0.3,0.6c-0.2,0.1-0.5,0.1-0.7,0l-6.6-3.5c0,0.1,0,0.1,0.1,0.2l2.1,20.2c0,0.2-0.1,0.5-0.3,0.6
		c-0.2,0.1-0.4,0.2-0.7,0.1l-7.5-3.7c-0.3-0.1-0.4-0.5-0.3-0.8l5.4-16.6c0.1-0.2,0.3-0.4,0.5-0.4l-7.9-4.2c-0.3-0.1-0.4-0.5-0.3-0.8
		l4.9-14.9c-0.1,0-0.2,0-0.4-0.1l-7.6-4.4l6.8,63.9c0,0.2-0.1,0.5-0.3,0.6c-0.2,0.1-0.4,0.2-0.6,0.1l-47-21.2c0,0,0,0.1,0,0.1
		l3,22.1l5.8-17.1c0.1-0.3,0.4-0.5,0.7-0.4c0.3,0,0.5,0.3,0.6,0.6l2.9,22l5.5-17.1c0.1-0.3,0.4-0.5,0.7-0.4c0.3,0,0.5,0.3,0.6,0.6
		l2.6,21.3l5.3-16.6c0.1-0.3,0.4-0.5,0.7-0.4c0.3,0,0.5,0.3,0.6,0.6l2.4,20.6l5.2-16.3c0.1-0.3,0.4-0.5,0.7-0.4
		c0.3,0,0.5,0.3,0.6,0.6l2.5,23.1c0,0.2-0.1,0.5-0.3,0.6c-0.2,0.1-0.4,0.2-0.7,0.1l-7.6-3.5l2.5,21.8c0,0.2-0.1,0.5-0.3,0.6
		c-0.2,0.1-0.4,0.2-0.6,0.1l-6.5-2.8l2.7,22.1c0,0.2-0.1,0.4-0.2,0.6c-0.2,0.1-0.4,0.2-0.6,0.1l-8.8-3.3c0,0-0.1,0-0.1,0l2.5,19.4
		c0,0.2-0.1,0.4-0.2,0.6c-0.2,0.1-0.4,0.2-0.6,0.1l-39.5-11.5c-0.2,0-0.3-0.2-0.4-0.3c-0.1-0.2-0.1-0.3,0-0.5l6.3-18.9l-9.6-3.6
		c-0.1,0-0.2-0.1-0.3-0.2l6.4,46.5l7.3-19c0.1-0.3,0.4-0.4,0.7-0.4c0.3,0,0.5,0.3,0.6,0.5l3.4,22.3l6.3-17.8
		c0.1-0.3,0.4-0.5,0.7-0.4c0.3,0,0.5,0.3,0.6,0.6l6.3,43.3c0,0.2,0,0.4-0.2,0.6c-0.2,0.1-0.4,0.2-0.6,0.2l-19.9-4.7
		c-0.2,0-0.3-0.2-0.4-0.3c-0.1-0.2-0.1-0.4,0-0.5l7.1-20c-0.1,0.1-0.3,0.1-0.5,0.1l-11-2.8L627,586c0,0.3-0.1,0.5-0.4,0.7l-15.4,7.7
		l-9.5,11.8H612c0.3,0,0.6,0.2,0.6,0.5c0.1,0.3-0.1,0.6-0.4,0.7l-15.6,5.2c-0.1,0-0.2,0-0.3,0l-8,12.1l7.1,3.6
		c0.3,0.2,0.5,0.5,0.3,0.9c-0.2,0.3-0.6,0.5-0.9,0.3l-7.7-3.9l-193.2-49.3l1.2,14l22.2-7.1c0.2-0.1,0.4,0,0.6,0.1
		c0.2,0.1,0.3,0.3,0.3,0.5l0.6,12.6l23-7c0.2-0.1,0.4,0,0.6,0.1c0.2,0.1,0.3,0.3,0.3,0.5l0,12.5l23.9-6.9c0.2-0.1,0.4,0,0.6,0.1
		s0.3,0.3,0.2,0.5l-0.6,12.4l24.7-6.8c0.2-0.1,0.4,0,0.6,0.1c0.2,0.1,0.2,0.3,0.2,0.6l-1.2,12.2l25.3-6.6c0.2-0.1,0.4,0,0.6,0.1
		c0.2,0.1,0.2,0.4,0.2,0.6l-1.8,11.9l25.6-6.4c0.2-0.1,0.4,0,0.6,0.2c0.2,0.2,0.2,0.4,0.2,0.6l-2.4,11.6l26.3-6.2
		c0.2-0.1,0.5,0,0.6,0.2c0.2,0.2,0.2,0.4,0.2,0.6l-3.2,12.5c-0.1,0.3-0.4,0.5-0.8,0.5l-23.4-5.9l-2.4,11.4c0,0.2-0.1,0.3-0.3,0.4
		c-0.1,0.1-0.3,0.1-0.5,0.1l-22.8-5.7l-1.7,10.8c0,0.2-0.1,0.3-0.3,0.4c-0.2,0.1-0.3,0.1-0.5,0.1l-22.2-5.6l-1.1,10.7
		c0,0.2-0.1,0.4-0.3,0.5c-0.2,0.1-0.4,0.1-0.5,0.1l-21.8-5.5l-0.5,9.9c0,0.2-0.1,0.4-0.3,0.5c-0.2,0.1-0.4,0.2-0.5,0.1l-21-5.3
		l0,9.6c0,0.2-0.1,0.4-0.3,0.5c-0.2,0.1-0.4,0.2-0.6,0.1l-20.4-5.1l0.5,9.1c0,0.2-0.1,0.4-0.2,0.5c-0.2,0.1-0.4,0.2-0.6,0.1l-20-5
		l0.9,10.2c0,0.2-0.1,0.4-0.2,0.5c-0.2,0.1-0.4,0.2-0.6,0.1l-20.5-5.2l1.3,9.2c0,0.2,0,0.4-0.2,0.6c-0.2,0.1-0.4,0.2-0.6,0.1
		l-19.9-5l1.6,8.6c0,0.2,0,0.4-0.2,0.6c-0.2,0.2-0.4,0.2-0.6,0.2l-19.5-4.9l1.9,8.2c0.1,0.2,0,0.5-0.2,0.6c-0.2,0.2-0.4,0.2-0.6,0.2
		l-19.2-4.8l2.4,8.7c0.1,0.2,0,0.5-0.2,0.6c-0.2,0.2-0.4,0.2-0.6,0.2l-21.3-5.4l3.1,7.9c0.1,0.2,0,0.5-0.1,0.7
		c-0.2,0.2-0.4,0.3-0.6,0.2l-18.7-4.7l2.5,7c0.1,0.2,0,0.5-0.1,0.7c-0.2,0.2-0.4,0.3-0.6,0.2l-19.6-4.9c0.1,0.1,0.1,0.1,0.1,0.2
		l3.3,8.2c0.1,0.2,0,0.5-0.1,0.7C273.6,700.6,273.4,700.7,273.3,700.7 M257.6,695.5l14.6,3.7l-2.6-6.5L257.6,695.5z M269.2,689.8
		c0.1,0,0.1,0,0.2,0l19.8,5l-5.5-15.5l-0.3-0.1l-16.8,4.2c-0.3,0.1-0.7-0.1-0.8-0.4l-3.2-8.9l-28.4,7l34.6,8.7
		C269.1,689.8,269.2,689.8,269.2,689.8 M252.5,687l3,7.6l14.3-3.4l-0.2-0.1c-0.1,0.1-0.3,0.1-0.4,0L252.5,687z M239.3,690.3
		l14.6,3.7l-2.6-6.5L239.3,690.3z M290.7,687.8l15.5,3.9l-2.8-7.2L290.7,687.8z M301.8,682.4c0.1,0,0.1,0,0.2,0l23.3,5.9l-10.1-37
		l-20.5,5.6c-0.2,0-0.3,0-0.5-0.1c-0.1-0.1-0.3-0.2-0.3-0.4l-3-11.1l-16.6,4.5c0,0,0,0,0,0c-0.2,0.2-0.4,0.2-0.6,0.2l0,0l-16.7,4.6
		c0,0,0,0,0,0c-0.2,0.2-0.4,0.3-0.6,0.2l-0.1,0l-15.8,4.3c0,0,0,0,0,0.1c-0.2,0.2-0.4,0.3-0.6,0.2l-0.1,0l-14.3,3.9l17.9,4.5
		l0.2-0.1c0.3-0.1,0.6,0,0.7,0.3l18.7,4.7l0.2,0c0.3-0.1,0.5,0,0.7,0.3l19.8,5l0.5-0.1c0.3-0.1,0.7,0.1,0.8,0.4l0,0l16.8,4.2
		C301.6,682.4,301.7,682.4,301.8,682.4 M285.2,679.7l2.7,7.5c0,0,0,0,0.1,0l13.2-3.4L285.2,679.7z M326.6,679.6l16.3,4.1l-1.7-7.6
		L326.6,679.6z M264.2,674.4l2.7,7.6l13.8-3.4L264.2,674.4z M323.9,670.2l37.4,9.4l-3.3-17.9L323.9,670.2z M321.9,671l2.1,7.8
		l14.9-3.5L321.9,671z M244.7,669.5l2.8,7l12.7-3.1L244.7,669.5z M230.5,672.4l15.5,3.9l-2.8-7.2L230.5,672.4z M363.2,670.9
		l17.3,4.4l-1.1-8.2L363.2,670.9z M206,664.7l7.8,9.1l-2.8-6c-0.2,0.1-0.4,0-0.5-0.1L206,664.7z M207.2,670l4.1,2.8l-6.2-7.2
		L207.2,670z M209.5,622.3l138.2,34.8l52.8,13.5l-3.5-41.5l-0.1,0c-0.3-0.1-0.5-0.3-0.5-0.6c0-0.3,0.2-0.5,0.4-0.6l-0.9-10.9
		c-0.1-0.1-0.1-0.2-0.1-0.4c0-0.1,0-0.2,0.1-0.3l-1-11.5c-0.2-0.1-0.4-0.3-0.4-0.6c0-0.2,0.1-0.5,0.3-0.6l-1-11.8
		c-0.2-0.1-0.3-0.3-0.3-0.6c0-0.2,0.1-0.4,0.3-0.5l-1.2-14.1l-22.1,7.7c-0.2,0.1-0.4,0-0.6-0.1c-0.2-0.1-0.3-0.3-0.3-0.5l-1.3-14
		l-1.1-0.3l-87.9,29.4c0,0.1-0.1,0.2-0.1,0.2c-0.2,0.2-0.4,0.2-0.6,0.2l-0.2-0.1l-19.1,6.4c-0.1,0.1-0.2,0.1-0.3,0.1l-18.2,6.1
		c-0.1,0.2-0.4,0.2-0.6,0.2l-17.4,5.8c-0.1,0-0.1,0.1-0.2,0.1L209.5,622.3z M359.3,661.4l1.6,8.7l16.9-4L359.3,661.4z M319.2,661.2
		l2.3,8.3l15.4-3.8L319.2,661.2z M338,656l2,8.9l16.7-4.1L338,656z M403.3,660.4l17.2,4.3l-0.4-8.3L403.3,660.4z M201.5,655.3
		l8.1,9.4l-2.9-6.3c-0.2,0.1-0.4,0.1-0.6-0.1L201.5,655.3z M321.3,660.3l17.3,4.4l-1.9-8.4L321.3,660.3z M202.8,661l4.4,3
		l-19.2-22.3l6.7,14l7.9,5.3C202.7,660.9,202.8,661,202.8,661 M156.3,515.6l66.3,147c0,0,0,0,0,0l14.4-4l-17.3-4.4
		c-0.3-0.1-0.5-0.3-0.5-0.6c0-0.3,0.2-0.6,0.5-0.6l13.9-4l-18.2-4.6c-0.3-0.1-0.5-0.3-0.5-0.6c0-0.3,0.2-0.6,0.5-0.6l14.3-4.3
		l-18.5-4.7c-0.3-0.1-0.5-0.3-0.5-0.6c0-0.3,0.2-0.6,0.5-0.6l15.9-5l-19.8-5c-0.3-0.1-0.5-0.3-0.5-0.6c0-0.3,0.2-0.5,0.4-0.6l13-4.4
		l-19.6-4.9c-0.3-0.1-0.5-0.3-0.5-0.6c0-0.3,0.2-0.5,0.4-0.6l15.2-5.3l-20.2-5.1c-0.3-0.1-0.5-0.3-0.5-0.6c0-0.3,0.2-0.5,0.4-0.6
		l15.7-5.8l-20.9-5.3c-0.3-0.1-0.5-0.3-0.5-0.6c0-0.3,0.1-0.5,0.4-0.6l15.9-6.2l-22-5.5c-0.3-0.1-0.5-0.3-0.5-0.6
		c0-0.3,0.1-0.5,0.4-0.6l16.9-6.9l-22.2-5.6c-0.3-0.1-0.5-0.3-0.5-0.6c0-0.3,0.1-0.5,0.4-0.6l16.7-7.2l-23-5.8
		c-0.3-0.1-0.5-0.3-0.5-0.6c0-0.3,0.1-0.5,0.4-0.7l17.2-7.9l-23.4-5.9c-0.3-0.1-0.5-0.3-0.5-0.6c0-0.3,0.1-0.5,0.4-0.6l17.9-8.7
		L156.3,515.6z M402.3,650.3l39.1,9.8l0-19.5L402.3,650.3z M400.2,651.1l0.7,8.5l17.1-4L400.2,651.1z M316.3,650.5l2.5,9.1l16.6-4.3
		L316.3,650.5z M237.1,650l3.1,7.8l13.4-3.7L237.1,650z M222.4,653.7l16.4,4.1l-3.1-7.9L222.4,653.7z M291.9,644.4l3,11.1l19.7-5.4
		L291.9,644.4z M196.9,645.7l8.4,9.8l-3-6.5c-0.2,0-0.3,0-0.5-0.1L196.9,645.7z M444.9,650.6l18.3,4.6l0.4-9L444.9,650.6z
		 M198.5,651.8l4.4,2.9l-6.7-7.8L198.5,651.8z M253.8,645.1l2.9,8.3l14.3-3.9L253.8,645.1z M217.9,643.8l37.4,9.4l-6.7-18.7
		l-16.3,4.9c-0.1,0-0.2,0.1-0.2,0.1L217.9,643.8z M399.7,628.4l86.6,21.8l4.7-46.9L399.7,628.4z M442.6,640.5l0,9.3l19-4.5
		L442.6,640.5z M399.3,640.5l0.8,9l17.7-4.4L399.3,640.5z M271.3,639.2l2.9,9.4l16.4-4.5L271.3,639.2z M255.5,644.1l17.4,4.4
		l-2.7-8.6L255.5,644.1z M188.6,640.3l6.7,7.9l-2.4-5L188.6,640.3z M192.2,635.7l8.6,10l-3.2-6.8c-0.2,0.1-0.4,0.1-0.6-0.1
		L192.2,635.7z M169.8,626.5l29,18.8l-46.5-54.1L169.8,626.5z M490.9,639.6l19.5,4.9l1.5-9.9L490.9,639.6z M420.4,635l0.5,9.4
		l18.6-4.6L420.4,635z M401.3,639.6l18.3,4.6l-0.5-9.3L401.3,639.6z M182.3,641.1l3.9,2.6l-6.2-7.2L182.3,641.1z M249.8,633.8
		l3.4,9.6l16.3-4.7L249.8,633.8z M180.6,635.1l6.6,7.7l-2.4-5L180.6,635.1z M492,627.9l43.6,11l4.7-23L492,627.9z M398.4,629.4
		l0.8,9.5l18.1-4.7L398.4,629.4z M489.8,628.7l-1,10.1l21.3-5L489.8,628.7z M228.6,628.4l3.8,9.7l15.7-4.7L228.6,628.4z
		 M213.6,633.6L231,638l-3.5-8.8L213.6,633.6z M187.3,625.6l8.9,10.4l-3.3-7.2c-0.2,0.1-0.4,0-0.6-0.1L187.3,625.6z M189.4,632.4
		l4.6,3l-7.2-8.4L189.4,632.4z M541.4,627.6l20.7,5.2l2.8-10.8L541.4,627.6z M179,620.3l7.2,8.4l-2.6-5.5L179,620.3z M397.4,617.4
		l0.8,10.1l18.7-5.1L397.4,617.4z M491,616.3l-1.1,10.8l22.1-5.5L491,616.3z M182.5,615.3l9.1,10.6l-3.4-7.4
		c-0.2,0.1-0.4,0.1-0.6-0.1L182.5,615.3z M176.3,617.1l13.1,8.2L168.5,601L176.3,617.1z M369.6,568.8l217.5,55.5l7.9-11.9L162,498.6
		l-6,15.7l133.6,34.1c0.1,0,0.1,0,0.2,0l25.6,6.5c0.1,0,0.3,0,0.4,0.1c0,0,0.1,0,0.1,0.1l25.3,6.4l0.1,0c0.2-0.1,0.4,0,0.6,0.1
		c0.1,0.1,0.2,0.1,0.2,0.2l25.2,6.4l1.4-0.5c0.2-0.1,0.4,0,0.6,0.1c0.2,0.1,0.3,0.3,0.3,0.5L369.6,568.8z M419.4,610.9l0.5,10.6
		l19.8-5.4L419.4,610.9z M399.1,616.5l19.6,4.9l-0.5-10.4L399.1,616.5z M493.3,615.5l20.8,5.2l1.7-11.1L493.3,615.5z M218.8,606.7
		l3.9,9.8l15-5L218.8,606.7z M202.9,611.7l18.4,4.6l-3.9-9.8L202.9,611.7z M396.3,605.1l0.9,10.5l19.1-5.5L396.3,605.1z
		 M177.4,604.7l9.3,10.8l-3.7-7.9c-0.2,0.1-0.5,0.2-0.7,0L177.4,604.7z M442.7,604.1l0,11.2l21.2-5.8L442.7,604.1z M397.7,604.1
		l43.7,11l0-24.2l-22.9,6.9c-0.1,0-0.2,0.1-0.3,0.1L397.7,604.1z M179.8,612.1l4.9,3l-7.7-9L179.8,612.1z M157.3,611.9l3.8,2.4
		l-6.2-7.2L157.3,611.9z M165.8,605l7.2,8.4l-2.7-5.6L165.8,605z M155.1,605.4l6.6,7.6l-2.5-5.1L155.1,605.4z M162,497.2
		l434.5,114.1l11.6-3.9h-7.7c-0.1,0-0.1,0-0.2,0l0,0c0,0,0,0,0,0c0,0,0,0,0,0l0,0c0,0,0,0,0,0L164,491.9c0,0,0,0,0,0c0,0,0,0,0,0
		l-13.7-4.2L162,497.2z M236.9,600.3l3.7,10.2l15.9-5.3L236.9,600.3z M197.7,600l41.5,10.4l-8.1-22.8L197.7,600z M444.7,603.3
		l20.8,5.2l0.6-11.4L444.7,603.3z M169,599.6l7.6,8.9l-2.8-6L169,599.6z M165,490.9l435.1,115.2l9.5-11.9l-20.8-5.6
		c-0.1,0-0.2,0-0.3,0c-0.1,0-0.1-0.1-0.2-0.1l-25.7-6.9l-0.7,0.6c-0.2,0.1-0.4,0.2-0.6,0.1c-0.2-0.1-0.4-0.3-0.4-0.5l-0.1-0.7
		l-150.9-40.4c-0.1,0-0.2,0-0.3,0c-0.1,0-0.1,0-0.2-0.1l-55.3-14.8l-0.3,0.3c-0.2,0.2-0.4,0.2-0.6,0.2c-0.2-0.1-0.4-0.2-0.4-0.5
		l-0.1-0.3l-27.2-7.3l-0.1,0.1c-0.2,0.2-0.4,0.2-0.6,0.1c-0.2-0.1-0.4-0.3-0.4-0.5l0-0.1L271,503.6c-0.1,0-0.3,0-0.4,0
		c-0.1,0-0.2-0.1-0.3-0.2L220,489.9l-0.1,0.1c-0.2,0.2-0.4,0.2-0.7,0.1c-0.2-0.1-0.4-0.3-0.4-0.5l0,0l-23.2-6.2l0,0l-25.7-6.9
		L165,490.9z M171.6,593.1l10.4,12.2l-4.3-9.2c0,0,0,0,0,0c-0.2,0.2-0.6,0.3-0.8,0.1L171.6,593.1z M144.8,597.4l11.5,7.2l-19.2-22.3
		L144.8,597.4z M163.2,601.8l4.4,2.7l-7.2-8.4L163.2,601.8z M174.7,601.5l4.9,3l-53.1-61.8c0,0-0.1-0.1-0.1-0.1l-51-59.4l3.8,7.2
		c0.1,0.1,0.2,0.3,0.2,0.4l6.1,11.6c0.1,0.1,0.2,0.3,0.2,0.4l6,11.4c0.1,0.1,0.1,0.2,0.2,0.4l5.7,10.9l0.4,0.4
		c0.1,0.2,0.2,0.4,0.1,0.6l5.5,10.5c0.1,0.1,0.1,0.2,0.1,0.3l5.6,10.6c0.1,0.1,0.1,0.3,0.2,0.4l5.3,10.1c0.1,0.1,0.1,0.2,0.1,0.2
		l5.2,9.9l29.4,17.8c0.2,0,0.4,0.1,0.5,0.2l0.2,0.2l7.8,4.7c0.1,0,0.1,0.1,0.2,0.1l7.9,4.8c0.1,0,0.3,0.1,0.4,0.2l0,0l8.3,5
		C174.6,601.4,174.7,601.5,174.7,601.5 M255.9,593.6l3.4,10.7l16.7-5.6L255.9,593.6z M238.3,599.3l19.6,4.9l-3.4-10.6L238.3,599.3z
		 M395.3,592.2l0.9,11.1l19.5-5.9L395.3,592.2z M160.7,594.6l7.4,8.6l-2.8-5.9L160.7,594.6z M150,595.3l6.7,7.8l-2.6-5.3L150,595.3z
		 M232.4,587.7l3.9,10.9l16.4-5.8L232.4,587.7z M152.7,589.7l7.1,8.3l-2.8-5.7L152.7,589.7z M186.2,574.7l91.6,23.1l-15-54.6
		L186.2,574.7z M276,586.3l3.1,11.3l18-6L276,586.3z M396.6,591.2l20.9,5.3l-0.6-11.7L396.6,591.2z M147.3,592.2l4,2.5l-6.7-7.8
		L147.3,592.2z M166.2,581.9l10.7,12.5l-4.4-9.4c-0.2,0.2-0.5,0.3-0.8,0.1L166.2,581.9z M169,590.1l5.1,3l-8.3-9.6L169,590.1z
		 M144.7,584.9l7.1,8.2l-2.8-5.6L144.7,584.9z M590.1,587.7L610,593l-2.8-19.6L590.1,587.7z M550.5,160.8l60.8,432.1l14.4-7.2
		L566.1,156L550.5,160.8z M209,581.8l4.4,11l16-5.9L209,581.8z M192.3,587.7l19.6,4.9l-4.3-10.9L192.3,587.7z M297,578.9l2.7,11.8
		l19-6.3L297,578.9z M277.5,585.3l20.9,5.2l-2.7-11.6L277.5,585.3z M137.1,580.3l6.8,7.9l-2.7-5.4L137.1,580.3z M563.9,580.7
		l23.9,6.4l-6-20.8L563.9,580.7z M583.1,566.2l6,20.7l16.4-13.7L583.1,566.2z M157.7,577l8.1,9.5l-3.1-6.6L157.7,577z M132.4,583
		l3.6,2.2l-6.2-7.2L132.4,583z M272.3,572.7l3.3,11.9l18.4-6.5L272.3,572.7z M319,571.1l2.3,12.4l20.2-6.8L319,571.1z M129.7,575.8
		l6.6,7.7l-2.7-5.3L129.7,575.8z M273.7,571.7l46.3,11.7l-5-27L273.7,571.7z M160.7,570.3l11,12.9l-4.6-9.9c0,0,0,0,0,0
		c-0.2,0.2-0.5,0.3-0.8,0.2L160.7,570.3z M369.7,570.1l1.2,12.7l20.5-7.1L369.7,570.1z M163.6,578.9l5.4,3.1l-22.7-26.4l8.9,18.5
		l8.2,4.7C163.5,578.8,163.6,578.9,163.6,578.9 M561.9,580.1l0.4,0.1l39.2-31.6l-47.6-14.8L561.9,580.1z M538.2,573.8l22.3,6
		l-3.7-21.2L538.2,573.8z M342.3,563.1l1.8,12.8l20.9-7L342.3,563.1z M320.5,570.1l22.2,5.6l-1.8-12.8L320.5,570.1z M512.8,567
		l23.4,6.3l-4-22.4L512.8,567z M533.5,550.7l3.9,22l18.4-15L533.5,550.7z M583.4,564.9l23.6,7.4c0,0,0,0,0.1,0l-25.5-181.1
		l-23.4,20.4l25.3,7.3c0.2,0.1,0.4,0.3,0.5,0.5c0,0.2,0,0.5-0.2,0.6l-21.5,17.5l25.7,7.7c0.2,0.1,0.4,0.3,0.5,0.5
		c0,0.2,0,0.5-0.2,0.6L566.9,464l25.1,7.3c0.2,0.1,0.4,0.3,0.5,0.5c0,0.2,0,0.5-0.2,0.6l-21.6,17.1l24.9,7.7
		c0.2,0.1,0.4,0.3,0.4,0.5c0,0.2,0,0.5-0.2,0.6l-20.6,17.1l23.9,7.4c0.2,0.1,0.4,0.3,0.4,0.5c0,0.2,0,0.5-0.2,0.6l-20.1,16.4
		l23.9,7.4c0.2,0.1,0.4,0.3,0.4,0.5c0,0.2,0,0.5-0.2,0.6L583.4,564.9z M154.9,558.3l11.4,13.3l-4.7-10.1c-0.2,0.2-0.5,0.2-0.7,0.1
		L154.9,558.3z M268.3,558.3l3.5,12.7l19-7L268.3,558.3z M158.3,567.4l5.4,3l-8.8-10.3L158.3,567.4z M143.8,560.8l8.3,9.6l-3.3-6.8
		L143.8,560.8z M316.3,556.5l2.4,12.9l20.2-7.1L316.3,556.5z M411.2,539.8l100.5,26.9c0,0,0,0,0,0l-4.4-23.9l-19,16
		c-0.2,0.1-0.4,0.2-0.6,0.1c-0.2-0.1-0.4-0.3-0.4-0.5l-4.5-23.2l-18.8,16c-0.2,0.1-0.4,0.2-0.6,0.1c-0.2-0.1-0.4-0.3-0.4-0.5
		l-9.5-47.8l-19.1,16.7l23.2,7.3c0.2,0.1,0.4,0.3,0.4,0.5c0.1,0.2,0,0.5-0.2,0.6l-19.3,18c-0.2,0.2-0.4,0.2-0.6,0.1
		c-0.2-0.1-0.4-0.3-0.4-0.5l-4.8-24.5L411.2,539.8z M198.1,554l4.9,12.4l16.8-6.9L198.1,554z M180.7,560.9l20.9,5.3l-4.9-12.2
		L180.7,560.9z M494.5,467.4l18.2,97.9l81.2-67.3L494.5,467.4z M146.3,553.5l8.8,10.3l-3.5-7.4L146.3,553.5z M290.4,549.9l3,13.2
		l19.8-7.3L290.4,549.9z M269.8,557.4l22.2,5.6l-3-13.1L269.8,557.4z M141.4,557.9l4.9,2.8l-8.3-9.6L141.4,557.9z M149,545.8
		l11.6,13.5l-4.9-10.6c0,0,0,0,0,0c-0.2,0.2-0.5,0.3-0.8,0.2L149,545.8z M137.9,548.9l8.7,10.1l-3.5-7.3L137.9,548.9z M127.5,541.7
		l31,17L105,496.5L127.5,541.7z M217.4,545.5l4.7,13.1l18-7.4L217.4,545.5z M174.2,546.7l46.4,11.7l-10.1-28.2l-18.9,8.6
		c-0.1,0.1-0.2,0.1-0.3,0.1L174.2,546.7z M483.9,535l4.2,22.1l18-15.1L483.9,535z M264.2,543.2l3.7,13.5l19.5-7.6L264.2,543.2z
		 M533.9,549.5l22.6,7.1l-3.9-22.6L533.9,549.5z M107.6,554.1l3.5,2.1l-6.2-7.2L107.6,554.1z M129.8,544.5l8.3,9.7l-3.4-7
		L129.8,544.5z M104.6,546.6l6.3,7.3l-2.8-5.3L104.6,546.6z M237.9,536.5l4.4,13.8l19-7.8L237.9,536.5z M218.6,544.4l22.3,5.6
		l-4.2-13.4L218.6,544.4z M454.6,502.7l9.3,46.8l37.7-32.2L454.6,502.7z M143,533.1l12,14l-5.1-11.1c0,0,0,0,0,0
		c-0.2,0.2-0.5,0.3-0.8,0.2L143,533.1z M146.8,543.1l5.6,3l-9.4-11L146.8,543.1z M102,543.6l3.7,2.2l-19.2-22.3l8.7,16.2l6.6,3.8
		C101.9,543.5,102,543.6,102,543.6 M433.8,520.9l4.5,23.3l17.6-16.4L433.8,520.9z M211.8,529.8l5,14l18.5-8L211.8,529.8z
		 M98.8,535.7l6.5,7.6l-2.9-5.6L98.8,535.7z M484.3,533.7l22.5,7l-4.2-22.6L484.3,533.7z M554.3,532.6l22.9,7.1l-3.8-22.9
		L554.3,532.6z M134.3,528.6l9.4,11l-3.8-8.1L134.3,528.6z M574.6,516.6l3.8,22.7l19.1-15.6L574.6,516.6z M380.9,531.7l28,7.5
		l-5.1-29.1L380.9,531.7z M622.6,534.8l18.3,4.3l-5.7-39.8L622.6,534.8z M404.3,508.1c0.1,0,0.1,0,0.2,0c0.2,0.1,0.4,0.3,0.4,0.5
		l5.3,30.2l42.9-37.4c0-0.1,0.1-0.2,0.2-0.3c0.1-0.1,0.2-0.1,0.3-0.2l19.2-16.7c0-0.2,0.1-0.4,0.2-0.5c0.1-0.1,0.3-0.2,0.5-0.2
		l19.5-17l0,0c0-0.2,0-0.5,0.2-0.6c0.2-0.2,0.4-0.2,0.6-0.1l0.1,0l19.8-17.3l0,0c0-0.2,0-0.4,0.2-0.6c0.2-0.2,0.4-0.2,0.6-0.1l0.1,0
		l20-17.5l0-0.1c0-0.2,0-0.4,0.2-0.6c0.2-0.1,0.4-0.2,0.6-0.1l0.1,0l20.1-17.6l0-0.2c0-0.2,0-0.4,0.2-0.6c0.2-0.1,0.4-0.2,0.6-0.1
		l0.2,0.1l23.5-20.5l-28.8-8.7l0,0c-0.2,0.1-0.4,0.2-0.6,0.1c-0.2-0.1-0.3-0.2-0.4-0.4l-21.4-6.5l0,0l-56.9-17.5l-0.6,0.5
		c-0.2,0.1-0.4,0.2-0.6,0.1c-0.2-0.1-0.4-0.3-0.4-0.5l-0.1-0.7l-24.5-7.5l-0.3,0.3c-0.2,0.2-0.4,0.2-0.6,0.1
		c-0.2-0.1-0.4-0.3-0.4-0.5l-0.1-0.3l-104.2-32.1l-0.1,0.1l35.3,187.5c0.2,0.1,0.3,0.2,0.3,0.4c0.1,0.2,0,0.4-0.1,0.6l4.7,24.9
		l23.5-22.2C404,508.2,404.2,508.1,404.3,508.1 M115.8,528.1l8.3,9.7l-3.5-7.1L115.8,528.1z M185.9,523.2l5.6,14.1l17.8-8.1
		L185.9,523.2z M167.9,531.7l22.3,5.6l-5.5-13.7L167.9,531.7z M96.4,532.8l3.7,2.1l-6.7-7.8L96.4,532.8z M136.9,520.1l12.2,14.3
		l-5.3-11.4c0,0,0,0,0,0c-0.2,0.2-0.5,0.3-0.8,0.2L136.9,520.1z M132.2,526l14.5,7.5l-24.8-28.8L132.2,526z M92.9,524.5l6.8,8
		l-3.1-5.9L92.9,524.5z M355.2,524.8l24,6.4l-4.6-24.6L355.2,524.8z M86,520.7l6.7,7.8l-3.1-5.8L86,520.7z M113.5,525.4l4.7,2.5
		l-8.2-9.6L113.5,525.4z M82.8,525.2l3.3,1.9l-6.2-7.2L82.8,525.2z M109.6,515.9l8.6,10l-3.7-7.5L109.6,515.9z M79.2,517l6.6,7.7
		l-3.1-5.8L79.2,517z M347.3,498.5l6.4,26l20.1-19L347.3,498.5z M326.6,517.1l25.7,6.9l-6.3-25.3L326.6,517.1z M70.3,510.6
		l24.3,13.4L48,469.8L70.3,510.6z M119.6,511.5l9.4,11l-4-8.2L119.6,511.5z M101.9,511.9l8.2,9.6l-3.6-7.2L101.9,511.9z M130,506.2
		l13.1,15.2l-5.3-11.4L130,506.2z M86.7,512.9l7,8.1l-3.2-6.1L86.7,512.9z M134.8,517.6l5.9,3l-10-11.7L134.8,517.6z M314.5,463.3
		l10.9,53.3l42.4-40.3L314.5,463.3z M298.8,509.7l25.2,6.7l-5.2-25.7L298.8,509.7z M479.5,509l22.8,7.1l-4.3-23.1L479.5,509z
		 M99.7,509.3l12.5,6.5l-22.7-26.4L99.7,509.3z M121.1,501.8l10.5,12.2l-4.2-9c0-0.1-0.1-0.2-0.1-0.2L121.1,501.8z M138.8,509
		l15.9,4.9l6.1-15.9l-0.1-0.1l-13.5-10.9l-12.1,4.8L138.8,509z M103.3,503.4l8.8,10.3l-3.9-7.8L103.3,503.4z M617.8,511.2l9.3,2.4
		l-2.9-19.1L617.8,511.2z M84.5,510.2l3.9,2.1l-7.2-8.4L84.5,510.2z M117.5,509l5.4,2.7l-9.4-11L117.5,509z M112.5,497.6l10.3,12
		l-4.2-8.8c0-0.1-0.1-0.2-0.1-0.3L112.5,497.6z M80.5,501.1l7.3,8.5l-3.4-6.4L80.5,501.1z M272.2,502.6l24.5,6.5l-5.4-24.8
		L272.2,502.6z M292.6,484.1l5.4,24.6l19.2-18.2L292.6,484.1z M455.1,501.5l22.3,6.9l-4.3-22.6L455.1,501.5z M474.3,485.3l4.4,22.7
		l18.2-15.7L474.3,485.3z M73.5,497.5l7.2,8.4l-3.4-6.4L73.5,497.5z M88,495.8l8.2,9.5l-3.7-7.3L88,495.8z M104.2,493.5l10.1,11.7
		l-4.2-8.5c-0.1-0.1-0.1-0.2-0.1-0.4L104.2,493.5z M347.6,497.2l26.4,6.9L369,477L347.6,497.2z M101.2,500.9l4.9,2.4l-8.8-10.3
		L101.2,500.9z M245.8,495.5L270,502l-4.2-25.9c0,0.1-0.1,0.2-0.2,0.3L245.8,495.5z M254.6,398.8l16.6,102.8l85.3-81.5L254.6,398.8z
		 M95.8,489.4l10,11.7l-4.3-8.7c0-0.1-0.1-0.2-0.1-0.3L95.8,489.4z M71.4,494.9l10.9,5.7l-20.9-24.3L71.4,494.9z M615.1,486.8
		l37.9,11l-5.6-43c-0.1-0.1-0.1-0.3-0.1-0.4l-6-45.7l-5.7,17l0,0.2c0,0.2-0.1,0.5-0.3,0.6c0,0-0.1,0-0.1,0.1l-6.2,18.3l0,0
		c0,0.2,0,0.4-0.2,0.6l-7.5,22.3c0,0.1,0,0.2-0.1,0.3L615.1,486.8z M74.2,489.1l7.4,8.6l-3.5-6.7L74.2,489.1z M57.7,496l3.2,1.7
		l-6.2-7.2L57.7,496z M88,485.6l9.8,11.4l-4-8c-0.1-0.2-0.1-0.4,0-0.5L88,485.6z M85.9,493.3l4.4,2.2l-8.2-9.6L85.9,493.3z
		 M221.1,488.9l23.6,6.3l-4.7-24.5L221.1,488.9z M53.7,487.3l6.5,7.6l-3.2-5.9L53.7,487.3z M241.2,470.4l4.5,23.4l18.3-17.5
		L241.2,470.4z M80.3,481.8l9.6,11.2l-4-7.9c-0.1-0.2-0.1-0.4,0-0.6L80.3,481.8z M475,484.1l22.6,7l-4.3-23L475,484.1z M60.4,482.2
		l7.2,8.4l-3.5-6.5L60.4,482.2z M147.9,485.6l15.9,4.9l4.9-14.6L156.2,461l-13.3,6.1L147.9,485.6z M292.8,482.9l25.7,6.7l-5.3-26.1
		L292.8,482.9z M72.9,478.2l9.4,10.9l-3.9-7.6c-0.1-0.2-0.1-0.5,0-0.7L72.9,478.2z M545.3,481.8l23.2,7.2l-3.9-23.2L545.3,481.8z
		 M72.1,486.6l4,2l-7.7-9L72.1,486.6z M565.9,465l3.9,23.4l20.6-16.3L565.9,465z M197,482.5l21.6,5.8l-2.9-23.9L197,482.5z
		 M213.9,438.4l6,49.8l40.1-38.6L213.9,438.4z M45.3,481.5l9.5,4.9l-19.1-22.3L45.3,481.5z M65.9,474.8l9.3,10.9l-3.7-7
		c-0.2-0.3-0.1-0.7,0.2-0.8c0,0,0.1-0.1,0.1-0.1L65.9,474.8z M4,426l142.4,59l-4.8-17.9L6.3,414.3L4,426z M47.3,475.7l6.7,7.8
		l-3.3-6.1L47.3,475.7z M58.9,471.3l9.4,11l-3.8-7.2c-0.2-0.3-0.1-0.7,0.2-0.8c0,0,0.1,0,0.1-0.1L58.9,471.3z M170.7,475.4l24.3,6.5
		l-2.7-24.8c0-0.2,0.1-0.4,0.2-0.6c0.2-0.1,0.4-0.2,0.6-0.1l22.4,5.9l-3-24.6c0-0.2,0.1-0.4,0.2-0.6c0.2-0.1,0.4-0.2,0.6-0.1
		l22.7,5.5l-3.3-24.5c0-0.2,0-0.4,0.2-0.6c0.2-0.1,0.4-0.2,0.6-0.2l23.7,5.4l-3.9-24.4L170.7,475.4z M58.3,479.7l3.7,1.8l-7.2-8.4
		L58.3,479.7z M193.7,457.9l2.5,23.5l18.7-18L193.7,457.9z M520,474l23.4,7.2l-4.1-23.9L520,474z M653.1,478.3l7.2,2.7l-2.2-18.3
		L653.1,478.3z M536.1,431.1l8.5,49.5l19.8-16.4l0,0c0-0.2,0-0.4,0.2-0.6c0.2-0.1,0.4-0.2,0.6-0.1l0.1,0l21.1-17.4l-25.4-7.6
		c-0.2,0.1-0.4,0.1-0.6,0.1c-0.2-0.1-0.3-0.2-0.4-0.3L536.1,431.1z M52.1,468l9.2,10.8l-3.8-7c-0.2-0.3-0.1-0.7,0.2-0.8
		c0,0,0.1,0,0.1,0L52.1,468z M648.8,455.6l2.9,22.5l6-18.6c0-0.1,0-0.1,0.1-0.1L648.8,455.6z M241.6,469.2l23.8,6.2
		c0.2,0,0.3,0.2,0.4,0.3l-4.2-25.8L241.6,469.2z M45.4,464.7l9,10.5l-3.6-6.8c-0.2-0.3-0.1-0.7,0.2-0.8c0,0,0.1-0.1,0.2-0.1
		L45.4,464.7z M342,468.7l26.7,6.5l-5.1-27.1L342,468.7z M45.2,473.2l3.3,1.7l-6.7-7.8L45.2,473.2z M157.3,460.2l12.1,14.6
		l145.5-136l0-0.2c0-0.2,0-0.4,0.2-0.6c0.1-0.2,0.4-0.2,0.6-0.2l0.3,0.1l22.8-21.3l-0.1-0.5c0-0.2,0-0.5,0.2-0.6
		c0.2-0.2,0.4-0.2,0.6-0.1l0.4,0.1l176.2-164.7c0.2-0.2,0.4-0.2,0.6-0.2c0.2,0.1,0.4,0.2,0.4,0.5l7.8,28.7l8.2-33.9l-14.4,6
		c-0.2,0.1-0.5,0-0.7-0.1L503,136.6l-23.4,21.9c0,0.1-0.1,0.1-0.1,0.2c-0.1,0.1-0.2,0.1-0.3,0.2L303.1,323.7l0,0.1
		c0,0.2,0,0.4-0.2,0.6c-0.2,0.1-0.4,0.2-0.6,0.2l-0.1,0l-21.9,20.5c0,0.1-0.1,0.1-0.1,0.2c0,0-0.1,0.1-0.2,0.1L157.3,460.2z
		 M495.4,466.4l22.8,7l-4.2-23.3L495.4,466.4z M515.2,449.4l4.2,23.4l18.9-16.3L515.2,449.4z M38.7,461.5
		C38.8,461.5,38.8,461.5,38.7,461.5l9,10.5L44,465c-0.2-0.3-0.1-0.7,0.2-0.8c0,0,0,0,0.1,0L38.7,461.5z M32.4,458.4
		C32.5,458.4,32.5,458.4,32.4,458.4l8.8,10.2l-3.5-6.3c-0.2-0.3-0.1-0.7,0.2-0.8c0.1-0.1,0.3-0.1,0.5-0.1L32.4,458.4z M32.9,467.1
		l3,1.5l-6.2-7.2L32.9,467.1z M314.7,462l25.3,6.2l-4.9-25.7L314.7,462z M336.4,442.2l4.9,25.4l20.6-19.6L336.4,442.2z M611.4,463.6
		l8.6,3.3l-3.1-20.5L611.4,463.6z M92.2,100.9l50.4,364.8l13-5.9l-3.7-25.7c-0.1-0.1-0.1-0.2-0.2-0.3c0-0.2,0-0.3,0.1-0.4
		L102.7,93.8L92.2,100.9z M127.1,460.1l14.2,5.5L102,181.3c0,0.1,0,0.1,0,0.2l-6.6,22.6l8.3-2.9c0.2-0.1,0.5,0,0.7,0.1
		c0.2,0.2,0.2,0.4,0.2,0.7l-6.6,22l8.5-2.4c0.2-0.1,0.5,0,0.6,0.2c0.2,0.2,0.2,0.4,0.2,0.6l-6.8,22.3l8.7-1.9c0.2,0,0.5,0,0.6,0.2
		c0.2,0.2,0.2,0.4,0.1,0.6l-6.9,22.2l9.3-1.5c0.2,0,0.4,0,0.6,0.2c0.1,0.2,0.2,0.4,0.1,0.6l-6.8,21.6l9.3-0.9c0.2,0,0.4,0.1,0.6,0.2
		c0.1,0.2,0.2,0.4,0.1,0.6l-7.2,22.4l9.6-0.3c0.2,0,0.4,0.1,0.5,0.3c0.1,0.2,0.2,0.4,0.1,0.6l-7.5,22.6l10,0.4
		c0.2,0,0.4,0.1,0.5,0.3c0.1,0.2,0.1,0.4,0.1,0.6l-7.6,22.5l10.5,1.1c0.2,0,0.4,0.1,0.5,0.3c0.1,0.2,0.1,0.4,0.1,0.6l-8,23.3
		l10.6,1.8c0.2,0,0.4,0.1,0.4,0.3c0.1,0.2,0.1,0.4,0.1,0.5l-8,22.5l11,2.7c0.2,0,0.3,0.2,0.4,0.3c0.1,0.2,0.1,0.4,0,0.5l-8.2,22.7
		l11.2,3.5c0.2,0.1,0.3,0.2,0.4,0.3c0.1,0.2,0.1,0.3,0,0.5L127.1,460.1C127.2,460.1,127.1,460.1,127.1,460.1 M617.2,442.8
		C617.2,442.8,617.2,442.8,617.2,442.8c0.4,0,0.6,0.3,0.6,0.6l3.3,21.7l6.6-19.6l-20-5.9c-0.2,0-0.3-0.2-0.4-0.3
		c-0.1-0.2-0.1-0.3,0-0.5L614,417l-10.4-3.6c-0.3-0.1-0.5-0.5-0.4-0.8l6.6-22.1l-10.6-4.8l10.8,78l6.5-20.4
		C616.6,443,616.9,442.8,617.2,442.8 M648.8,454.1L665,461l-4.9-42.3L648.8,454.1z M115.8,455.7l10.1,3.9l-2.9-23.8L115.8,455.7
		C115.8,455.6,115.8,455.6,115.8,455.7 M153.4,434.6l3.5,24.3l58.1-54.4c-0.1,0-0.2,0-0.3,0l-22.7-6l3.2,23.8c0,0.2-0.1,0.4-0.2,0.6
		c-0.2,0.1-0.4,0.2-0.6,0.1l-22.1-6.1l3.1,23.2c0,0.2-0.1,0.4-0.2,0.6c-0.2,0.1-0.4,0.2-0.6,0.1L153.4,434.6z M124,434l2.9,23.1
		l7.4-19.9L124,434z M516.1,448.3l22.9,7l-4-23.5L516.1,448.3z M105,451.5l9.5,3.7l-2.7-23L105,451.5z M109.9,405.1l5.6,47.5
		l7.1-19.6c0-0.1,0-0.2,0.1-0.3l8.1-22.5L109.9,405.1z M645.7,431.7l2.6,19.8l5.2-16.2L645.7,431.7z M94.9,447.5l8.9,3.5l-2.5-22
		L94.9,447.5z M238,442.9l23.4,5.7l-4-24.5L238,442.9z M102.4,427.2l2.4,21.2l6.5-18.4L102.4,427.2z M85.3,443.7l8.2,3.2l-2.2-21.1
		L85.3,443.7z M336.7,440.9l26.5,6c0,0,0,0,0,0l-5-26.6L336.7,440.9z M89.8,400.2l4.7,44.3l13.7-39.8L89.8,400.2z M608.7,438.5
		l19.1,5.7l-3.3-22.5c0-0.1-0.1-0.2,0-0.3l-3.4-22.8L608.7,438.5z M76.3,440.2l7.6,3l-2-20L76.3,440.2z M625.9,422.5l2.9,19.6
		l5.3-15.8L625.9,422.5z M664,438.8l7.1,3.3l-2-18.9L664,438.8z M234.1,418.8l3.1,23.1l18.8-18.1L234.1,418.8z M83,421.1l2,19.5
		l5.8-17.1L83,421.1z M67.8,436.9l7.1,2.8l-1.8-19.2L67.8,436.9z M153.7,433.3l20.2,5.9l-3-21.9L153.7,433.3z M72.1,395.9L76,437
		l12.2-37.2L72.1,395.9z M537,430l22.8,6.8l-3.9-23.3L537,430z M557.1,412.6l4,24.2l20.8-17L557.1,412.6z M59.7,433.8l6.7,2.6
		l-1.7-18.6L59.7,433.8z M645.7,430.3l7.7,3.6l-2.4-20L645.7,430.3z M65.9,415.7l1.6,18l5.1-15.9L65.9,415.7z M52.2,430.8l6.2,2.4
		l-1.5-17.5L52.2,430.8z M149.9,410.6l3.1,21.6l17.2-16L149.9,410.6z M57.9,412.5l1.5,17.9l24.2-76.5l0-0.3c0-0.2,0-0.4,0.2-0.5
		c0,0,0.1-0.1,0.2-0.1l6.6-20.7c0-0.2,0-0.3,0.1-0.4l6.8-21.6l0,0c0-0.2,0-0.4,0.2-0.5c0,0,0,0,0,0l7-22.2c0-0.1,0-0.2,0.1-0.3
		l6.8-21.4l-36.1,5.7c-0.1,0.1-0.2,0.1-0.4,0.1c0,0,0,0-0.1,0L46.1,276l1.4,16.6c0,0,0,0,0,0c0.1,0.2,0.2,0.4,0.1,0.6l-0.1,0.2
		l1.5,17.7c0,0,0,0,0,0c0.1,0.2,0.2,0.4,0.1,0.6l-0.1,0.2l1.6,18.3c0,0,0,0,0,0c0.1,0.2,0.2,0.4,0.1,0.6l-0.1,0.2l1.6,18.6
		c0.1,0,0.1,0.1,0.2,0.2c0.1,0.2,0.1,0.4,0.1,0.5l-0.2,0.6l1.7,19.5c0,0,0,0,0,0c0.1,0.2,0.1,0.3,0.1,0.5l0,0.1l1.7,19.8
		c0,0,0,0.1,0.1,0.1c0.1,0.2,0.1,0.3,0.1,0.5l-0.1,0.2l1.8,20.5C57.9,412.2,57.9,412.3,57.9,412.5 M45,428l5.8,2.3l-1.4-16.8L45,428
		z M102.3,425.8l9.1,2.8l-2.6-21.7L102.3,425.8z M50.5,410.9l1.4,16.6l4.6-14.8L50.5,410.9z M38.1,425.3l5.5,2.1l-1.3-16.3
		L38.1,425.3z M625.8,421l8.4,3.9l-2.9-21.2L625.8,421z M31.5,422.7l5.2,2L35.5,409L31.5,422.7z M41.9,388.5l2.8,36.1l4.5-14.7
		c0-0.1,0-0.1,0.1-0.2l5.5-18L41.9,388.5z M83,419.7l7.8,2.5l-2.1-19.9L83,419.7z M25.2,420.3l4.9,1.9l-1.1-15.1L25.2,420.3z
		 M36.6,406.5l1.1,15.4l4.1-13.7L36.6,406.5z M150.5,409.4l43.2,12l-6.3-46.9L150.5,409.4z M611,389.6l67.8,30.6L667.1,310l-0.3-0.2
		c-0.3-0.2-0.4-0.5-0.3-0.8l0.4-1.2l-7.8-73.8l-20.7,52.7l0,0.1c0,0.2-0.1,0.5-0.3,0.6c0,0,0,0,0,0l-29.7,75.5l0.1,0.8
		c0,0.2-0.1,0.5-0.2,0.6c-0.1,0.1-0.3,0.1-0.5,0.1l-7.8,19.9l10.8,4.9C610.8,389.4,610.9,389.5,611,389.6 M19.2,418l4.5,1.8l-1-14.4
		L19.2,418z M28.7,385.3l2.4,34l9.2-31.2L28.7,385.3z M331.3,413.6l26.8,5.6c0,0,0,0,0.1,0l-19-101.1l-21.5,20.1l23.6,3.8
		c0.2,0,0.4,0.2,0.5,0.4c0.1,0.2,0,0.5-0.2,0.7l-20,19.2l25,4.4c0.2,0,0.4,0.2,0.5,0.5c0.1,0.2,0,0.5-0.2,0.7l-20.5,19.7l25.4,4.9
		c0.2,0,0.4,0.2,0.5,0.5s0,0.5-0.2,0.7L331.3,413.6z M622,395.9l3.3,22.5l5.7-17.9c0.1-0.2,0.2-0.3,0.4-0.4L622,395.9z M13.5,415.7
		l4.2,1.7l-0.9-13.8L13.5,415.7z M23.9,402.5l0.9,14.2l3.7-12.8L23.9,402.5z M65.8,414.3l6.9,2.2L71,398.2L65.8,414.3z M604.6,412.3
		l9.2,3.2l-3.4-22.5L604.6,412.3z M16.9,382.5l2,31.9l8.3-29.4L16.9,382.5z M611.4,391.2l3.5,22.8l5.8-18.6c0,0,0,0,0,0L611.4,391.2
		z M305.1,408.1l24.2,5.1l-4.6-24L305.1,408.1z M326,388.8l4.5,23.7l19.8-19L326,388.8z M12.4,398.9l0.8,13.2l3.3-11.9L12.4,398.9z
		 M50.6,409.6l5.9,1.8L55,394.9L50.6,409.6z M146.4,386.4l3.2,22.1l17.6-16.6L146.4,386.4z M279.6,402.7l23.6,4.9L299,384
		L279.6,402.7z M295.9,359.1l8.5,47.9l40.7-39.2l-24.9-4.4c-0.1,0-0.2,0-0.3,0c0,0-0.1,0-0.1,0L295.9,359.1z M36.6,405.2l5.4,1.7
		l-1.2-15.8L36.6,405.2z M109.9,403.8l9.4,2.3l-2.7-21.7L109.9,403.8z M117.7,382.5l2.7,21.5l7-19.8L117.7,382.5z M212.3,379.7
		l3.2,24c0,0.1,0,0.2,0,0.2l19.8-18.5L212.3,379.7z M99.6,401.2l8.8,2.1l-2.5-20.9L99.6,401.2z M192.7,397.3l21.4,5.6l-3-22.7
		L192.7,397.3z M23.9,401.2l4.7,1.5l-1-14.5L23.9,401.2z M254.2,397.4l23.6,5l-3.8-23.5L254.2,397.4z M275.3,378.9l3.7,22.6l19-18.3
		L275.3,378.9z M680.3,398.5l6,2.9l-1.7-16L680.3,398.5z M104.2,356.2l5.3,44.9l14.8-42.9L104.2,356.2z M89.9,398.8l8.2,2l-2.2-20
		L89.9,398.8z M96.9,378.9l2.2,19.8l6.2-18.3L96.9,378.9z M80.8,396.7l7.6,1.8l-2-19.1L80.8,396.7z M188.7,373.8l3,22.6l18.5-17.2
		L188.7,373.8z M72.1,394.6l7.1,1.7l-1.9-18.4L72.1,394.6z M85,354.2l4.5,42l13.2-40.1L85,354.2z M78.4,375.7l1.8,18.3l5.5-17
		L78.4,375.7z M147.4,385.3l20.2,5.3l-3-21.9L147.4,385.3z M165.8,368.1l3,22.2l18-17L165.8,368.1z M48.9,388.9l5.7,1.4l-1.4-16
		L48.9,388.9z M552.8,381l28.6,8.7l-19.9-141.1c0,0.2-0.1,0.3-0.2,0.4L535,269.3l3.6,1.1c0.2,0.1,0.3,0.2,0.4,0.4l25.5,7.9
		c0.2,0.1,0.4,0.3,0.4,0.5c0,0.2,0,0.5-0.2,0.6l-46.5,39c0.1,0,0.2,0,0.2,0l24.9,7.5l-3.1-25.5c0-0.2,0.1-0.4,0.2-0.6
		c0.2-0.1,0.4-0.2,0.6-0.1l27.7,7.7c0.2,0.1,0.4,0.3,0.5,0.5c0,0.2,0,0.5-0.2,0.6l-23.5,18l26.8,8c0.2,0.1,0.4,0.3,0.5,0.5
		c0,0.2,0,0.5-0.2,0.6l-23.2,18l26.6,8.2c0.2,0.1,0.4,0.3,0.4,0.5c0,0.2-0.1,0.5-0.3,0.6L552.8,381z M41.9,387.2l5.5,1.3l-1.3-15.7
		L41.9,387.2z M35.2,385.6l5.2,1.3l-1.2-15.2L35.2,385.6z M47.2,370.2l1.3,15.6l4.4-14.6L47.2,370.2z M28.8,384l4.9,1.2l-1.1-14.6
		L28.8,384z M142.9,362.4l3.2,22.3l17.7-17.1L142.9,362.4z M233.4,359.8l3.3,24.4l20.2-18.9L233.4,359.8z M143.7,361.3l91.6,22.9
		l-13.4-100L143.7,361.3z M38.8,349.4l2.7,34.5l9.7-33.2l0-0.1L38.8,349.4z M678,376.6l13.6,7.2l-3.8-37.6L678,376.6z M22.7,382.6
		l4.6,1.1l-1-14L22.7,382.6z M584.3,278.2l14.6,105.3l7.6-19.3l-10.5-4.2c-0.3-0.1-0.5-0.5-0.4-0.8l8.1-20.3
		c0.1-0.2,0.3-0.4,0.6-0.4l-12-5.5c-0.3-0.1-0.5-0.5-0.3-0.8l8.4-19.7l-11.8-6.1c-0.3-0.2-0.4-0.5-0.3-0.8l8.5-18.7
		c0.1-0.3,0.4-0.4,0.7-0.4c0.3,0,0.5,0.3,0.6,0.6l3.3,23.3l7.1-16.7c0.1-0.3,0.4-0.4,0.7-0.4c0.3,0,0.5,0.3,0.6,0.6l2.9,22l6.8-15.9
		c0.1-0.3,0.4-0.4,0.7-0.4c0.3,0,0.5,0.3,0.6,0.6l2.8,21.1l13.3-33.8l-9.5-6l2.7,22.1c0,0.2-0.1,0.5-0.3,0.6c-0.2,0.1-0.5,0.1-0.7,0
		L584.3,278.2z M33.7,367.9l1.1,14.5l3.9-13.6L33.7,367.9z M275.4,377.6l23.4,4.5l-4-22.6L275.4,377.6z M26.1,348.1l2.3,32.6
		l8.9-31.4L26.1,348.1z M548.5,355.2l3.1,25l22.9-17L548.5,355.2z M529.4,373.9l20.8,6.3l-3-24.3l-21.6,16.8L529.4,373.9z
		 M21.4,365.7l0.9,13.4l3.5-12.6L21.4,365.7z M96.9,377.6l8.6,1.5l-2.4-20.4L96.9,377.6z M78.5,374.4l7.4,1.3l-2-18.6L78.5,374.4z
		 M499.1,364.5l24.8,7.6l-3-25.2l-21.5,17.4C499.4,364.5,499.3,364.5,499.1,364.5 M519.1,320.4l6,51l21.9-17l0,0
		c0-0.2,0.1-0.4,0.2-0.6c0.2-0.1,0.4-0.2,0.6-0.1l0.1,0l23-17.8l-26.8-8c-0.1,0-0.1,0-0.2,0c0,0,0,0,0,0L519.1,320.4z M47.2,368.9
		l5.6,1l-1.3-15.6L47.2,368.9z M692.4,365.2l5.8,3.3l-1.6-16.5L692.4,365.2z M33.7,366.6l5.2,0.9l-1.2-15L33.7,366.6z M473.3,356.6
		l25.3,7.8c-0.1-0.1-0.2-0.3-0.2-0.4l-2.9-26L473.3,356.6z M254.9,339.9l3.2,24.1l20.2-18.9L254.9,339.9z M234.1,358.6l22.7,5.3
		l-3.1-23.4L234.1,358.6z M597.1,359l9.9,4l-2.9-21.4L597.1,359z M496.9,338.6l2.7,24l20.4-16.5L496.9,338.6z M296.5,357.8l22.9,4
		l-4.1-21.6L296.5,357.8z M316.4,339.3l4.2,22.2l19.1-18.4L316.4,339.3L316.4,339.3z M139.3,337.6l3.3,22.8l18.1-17.8l-21.2-5
		C139.4,337.7,139.4,337.7,139.3,337.6 M604.9,338.6c0.1,0.1,0.1,0.2,0.1,0.3l2.9,21.6l6.8-17.4L604.9,338.6z M679.1,338.8
		C679.1,338.8,679.1,338.8,679.1,338.8c0.4,0,0.6,0.3,0.6,0.6l2.2,20.8l5.6-17.3c0.1-0.3,0.4-0.5,0.7-0.4l-16.5-10.2
		c-0.3-0.2-0.4-0.5-0.3-0.8l5.2-16c-0.1,0-0.2,0-0.3-0.1l-7.9-4.5l4.7,44.5l5.2-16.2C678.5,338.9,678.8,338.8,679.1,338.8
		 M674.3,356.3l6.3,3.6l-1.8-17.4L674.3,356.3z M230,334.4l3.1,23.3l19.7-18.3L230,334.4z M471.5,356l0.3,0.1l91.2-76.5l-25.1-7.8
		c-0.2-0.1-0.3-0.2-0.4-0.4l-31-9.6l-1.2,1c-0.2,0.2-0.4,0.2-0.7,0.1c-0.2-0.1-0.4-0.3-0.4-0.5l-0.1-1.3l-77-23.9l13.5,81.1l0.3,0.1
		c0.2,0.1,0.4,0.2,0.5,0.5c0.1,0.2,0,0.5-0.2,0.6l-0.3,0.3l4.7,28.3l20.7-17.3c0.2-0.1,0.4-0.2,0.6-0.1c0.2,0.1,0.4,0.3,0.4,0.5
		L471.5,356z M104.3,354.9l8.9,0.9l-2.5-20.2L104.3,354.9z M447.1,348.5l23,7.1l-3.9-23.2L447.1,348.5z M94.5,353.9l8.3,0.9
		l-2.3-19.4L94.5,353.9z M85.3,352.9l7.6,0.8l-2.1-18.4L85.3,352.9z M111.6,333.5l2.5,20l6.6-19.7L111.6,333.5z M98.8,310.7
		l4.9,41.6l13.9-42.2L98.8,310.7z M91.9,332.8l2.1,18.5l5.9-18.2L91.9,332.8z M672.9,331.4l29.5,18.3l-7.6-85.8L672.9,331.4z
		 M45.7,348.8l5.4,0.6l-1.3-14.9L45.7,348.8z M38.9,348.1l5.3,0.5l-1.2-14.8L38.9,348.1z M32.5,347.4l4.9,0.5l-1.1-14.2L32.5,347.4z
		 M419.3,339.9l24.9,7.7l-4.5-26.8L419.3,339.9z M44,331.1l1.2,14.7l4.2-14.5L44,331.1z M496.5,337.1l24.2,7.8l-3-25.4
		c0-0.1,0-0.2,0-0.3L496.5,337.1z M35.9,312.6l2.5,32.3l9.3-32.7L35.9,312.6z M31,330.6l1,13.6l3.8-13.4L31,330.6z M230.7,333.3
		l48.3,10.6l-6.7-50L230.7,333.3z M277,319.3l3.2,24l20.5-19.2L277,319.3z M593.5,331.9l21.3,9.8l-6.1-45.6L593.5,331.9z
		 M140.9,336.7l20.1,4.7l-3-22L140.9,336.7z M159.3,318.9l3,22.2l17.9-17.6L159.3,318.9z M613.1,318.8l2.9,21.4l6.5-16.6
		L613.1,318.8z M392.4,331.6l25.1,7.7l-4.7-26.8L392.4,331.6z M414,312.3l4.7,26.5l20.8-19.4L414,312.3z M135.8,313.6l3.3,23.1
		c0,0,0,0,0,0l18.1-18.2l-21.2-4.7C136,313.7,135.9,313.7,135.8,313.6 M703.3,331.3l5.7,3.8l-1.4-16.9L703.3,331.3z M226.6,309
		l3.1,23.5l19.8-18.7L226.6,309z M92,331.5l8,0.3l-2.2-18.5L92,331.5z M366.6,323.7l23.7,7.3l-4-25.8L366.6,323.7z M383.6,278.4
		l8,52.2l42.2-39.5L383.6,278.4z M44.1,329.8l5.3,0.2l-1.3-14.5L44.1,329.8z M541.7,301.6l3,24.4l22.6-17.3L541.7,301.6z
		 M277.7,318.2l24.1,5l-3.2-24.2L277.7,318.2z M341.4,315.9l23.2,7.2l-3.4-25.7L341.4,315.9z M362.6,298l3.3,24.7l19.6-18.3
		L362.6,298z M137.6,312.7l42.9,9.5l-6.3-47l-18.3,18.7c0,0.1-0.1,0.1-0.1,0.2c0,0-0.1,0.1-0.1,0.1L137.6,312.7z M613.2,317.5
		l9.1,4.7l-2.6-19.8L613.2,317.5z M299.6,297.6l3.3,24.6l21.2-19.9L299.6,297.6z M178.7,299.1l3.1,22.8l18.6-18.4L178.7,299.1z
		 M414.4,311l24.8,6.9l-4.3-26L414.4,311z M273.4,292.5L273.4,292.5l3.3,24.8l21.6-20L273.4,292.5z M700.1,306.9l13,9.3l-3.1-39.7
		L700.1,306.9z M672.9,290.8C672.9,290.8,672.9,290.8,672.9,290.8c0.3,0,0.6,0.3,0.6,0.5l3.6,22.6l5.7-17.6l-17.2-11.3l2.1,19.9
		l4.4-13.6C672.4,291,672.6,290.8,672.9,290.8 M668.3,309.2l7.5,4.3l-3.1-19.3l-4.5,13.9L668.3,309.2z M128.7,264.7l7,48.2
		c0-0.1,0.1-0.1,0.1-0.2L154,294l-20.9-4.3c-0.2,0-0.4-0.2-0.5-0.4c-0.1-0.2,0-0.5,0.2-0.6l18.7-19.5l-22.5-4.3
		C128.9,264.8,128.8,264.7,128.7,264.7 M227.4,307.8l22.6,4.7l-3.1-23.4L227.4,307.8z M248,287.6l3.3,24.4l20.9-19.8L248,287.6z
		 M46.6,297l-3.9,14.1l5.1-0.2L46.6,297z M589.8,305.3l10.3,5.3l-3.1-21.4L589.8,305.3z M105,290.5l-6,18.8l8.3-0.3L105,290.5z
		 M41,294.2l1.1,13.8l4-14.3L41,294.2z M223.1,282.9l3.2,24.2l20.4-19.7L223.1,282.9z M106,288l2.3,18.7l6.3-19.5L106,288z
		 M698,285.6l1.6,18.4l4.5-13.7L698,285.6z M362.1,296.5l23.9,6.6l-3.9-25.3L362.1,296.5z M179.4,297.9l21.2,4.4l-3-22.7
		L179.4,297.9z M584.4,276.8l44.2,25.3l-5.8-47.5c-0.1-0.2-0.2-0.4-0.1-0.7l0,0l-6.2-50.9L584.4,276.8z M198.8,278.2L202,302
		l19.7-19.4L198.8,278.2z M130.5,263.8L324.3,301l-5.3-24c0-0.1-0.1-0.1-0.1-0.2c0-0.1,0-0.2,0-0.3l-15.2-68.2
		c-0.2-0.1-0.3-0.2-0.4-0.4c-0.1-0.2,0-0.5,0.1-0.6l-20.9-93.9L130.5,263.8z M320.4,277.4l5.2,23.5l61.6-57.7
		c-0.1,0.1-0.3,0.2-0.5,0.2l-25.6-4l5,22.8c0,0.2,0,0.4-0.2,0.6c-0.1,0.2-0.4,0.2-0.6,0.2l-25-4.2l4.9,22.3c0,0.2,0,0.4-0.2,0.6
		c-0.2,0.2-0.4,0.2-0.6,0.2L320.4,277.4z M712.9,295.3l5.5,4.2l-1.3-17.3L712.9,295.3z M175.3,273.7
		C175.3,273.7,175.3,273.7,175.3,273.7l3.1,23.4l19-19.1L175.3,273.7z M666.7,284l16.1,10.6l-4.4-44.2L666.7,284z M682,273.4l2,19.6
		l4.7-14.5L682,273.4z M134.6,288.7l20,4.1l-3-22L134.6,288.7z M152.7,269.3l3.1,22.8l18.3-18.7L152.7,269.3z M409.2,283.5l25.4,6.4
		l-4.1-24.8L409.2,283.5z M698.1,284l6,4.6l-1.5-18.3L698.1,284z M628.5,280.4l8.4,5.4l-2.4-20.5L628.5,280.4z M634.9,262
		C634.9,262,634.9,262,634.9,262c0.4,0,0.6,0.3,0.6,0.6l2.5,21.5l6.5-16.7c-0.1,0-0.2,0-0.3-0.1l-20.1-11.8l3,24.6l7.1-17.6
		C634.4,262.2,634.6,262,634.9,262 M663,258.6l2.6,24.7l6.4-18.4c0,0-0.1,0.1-0.1,0.1c-0.2,0.1-0.5,0.1-0.7,0L663,258.6z M383,277
		l24,6.1l-2.4-25c0-0.2,0.1-0.4,0.2-0.6c0.2-0.1,0.4-0.2,0.6-0.1l24.6,5.7l-4.3-26L383,277z M406.1,258.8l2.3,23.7l21.1-18.3
		L406.1,258.8z M320.9,276.1l22.9,4.1l-4.6-21.1L320.9,276.1z M682,271.8l6.5,5l-1.8-19.4L682,271.8z M315.3,254.5l4.6,20.8l18.2-17
		L315.3,254.5z M580.4,249.6l3.5,25.2l8.3-19c0,0,0,0,0,0L580.4,249.6z M57.2,258.3l-4.3,15.3l5.7-0.9L57.2,258.3z M64.7,256.5
		l-4.5,16l6.1-1L64.7,256.5z M72.6,254.6l-4.8,16.7l6.5-1L72.6,254.6z M51.1,256.9l1.3,13.9l4.2-15.1L51.1,256.9z M81.1,252.6
		L76,270l7-1.1L81.1,252.6z M56.5,237.2l3.1,32.6l10.3-36.4L56.5,237.2z M507.7,260.8l25.4,7.9l-2.7-27.6L507.7,260.8z M65.7,253.7
		l1.5,15l4.7-16.4L65.7,253.7z M89.9,250.6l-5.4,18l7.4-1.2L89.9,250.6z M531.7,241.3l2.6,26.9l25.1-19.4L531.7,241.3z M71.6,232.8
		l3.7,34.7l11.5-39.1L71.6,232.8z M99.2,248.7l-5.7,18.6l7.8-1.2L99.2,248.7z M82.1,250l1.8,16.1l5.3-17.7L82.1,250z M624.1,253.9
		l19.7,11.6l-3.1-22.3l-0.5-0.4c-0.2-0.2-0.3-0.5-0.2-0.8l0.4-1l-2.9-20.9L624.1,253.9z M88.6,228l4.4,36.8l5.9-19.3
		c0-0.1,0-0.2,0.1-0.2l6.7-22.1L88.6,228z M125.2,240l3.4,23.8c0,0,0-0.1,0.1-0.1L244,149.6l-22.2-2.4l3.4,20c0,0.2,0,0.4-0.2,0.6
		c-0.1,0.1-0.3,0.2-0.5,0.2l-22.1-2.5l3.4,20.8c0,0.2,0,0.4-0.2,0.6c-0.1,0.1-0.3,0.2-0.5,0.2l-22.2-2.7l3.2,20.2
		c0,0.2,0,0.4-0.2,0.6c-0.1,0.1-0.3,0.2-0.5,0.2l-21.8-2.7l3.1,20.5c0,0.2,0,0.4-0.2,0.6c-0.1,0.1-0.3,0.2-0.5,0.2l-20.7-2.7
		c0.1,0.1,0.2,0.2,0.2,0.4l3.1,21.2c0,0.2,0,0.4-0.2,0.6c-0.1,0.1-0.3,0.2-0.6,0.2l-22.2-3.1C125.4,240.3,125.3,240.2,125.2,240
		 M100.2,246l2.2,17.4l6-19.2L100.2,246z M663.7,257.5l7.1,5.4l-2.2-20.6L663.7,257.5z M315.9,253.2l48.7,8.2l-9.9-45L315.9,253.2z
		 M505.4,260.1l0.9,0.3l48.2-41.9l-26.9-7.4l-0.5,0.4c-0.2,0.2-0.4,0.2-0.7,0.1c-0.2-0.1-0.4-0.3-0.4-0.5l0-0.3l-25.7-7.1l0,0
		c-0.2,0.2-0.4,0.2-0.7,0.1c-0.2-0.1-0.3-0.2-0.4-0.4c-0.1,0.1-0.3,0.1-0.5,0l-25.6-8l2.8,28c0.1,0.1,0.2,0.2,0.2,0.4
		c0,0.2,0,0.4-0.1,0.6l2.7,26.6l22.6-20.5c0.2-0.2,0.4-0.2,0.7-0.1c0.2,0.1,0.4,0.3,0.4,0.5L505.4,260.1z M479.4,252.1l24.6,7.6
		l-2.7-27.5L479.4,252.1z M589.2,230c0,0.1,0.1,0.2,0.1,0.2l3.6,23.9l7.6-17.5c0,0-0.1,0-0.1,0L589.2,230z M580.7,248.3l10.8,5.7
		l-3.2-21.6L580.7,248.3z M310.2,231.4l4.7,21.1l18.4-17.5L310.2,231.4z M70.6,235.7l-4.7,16.6l6.4-1.4L70.6,235.7z M453.2,243.9
		l24.4,7.6l-2.6-26.2L453.2,243.9z M620.9,228.4l2.8,23l6.4-16.1L620.9,228.4z M87.6,230.6l-5.3,18.1l7.3-1.6L87.6,230.6z
		 M531.7,239.9l29.3,7.9c0.2,0,0.3,0.2,0.4,0.3l-8.2-58c0,0,0,0-0.1,0.1l-24.4,19.9l27.1,7.5c0.2,0.1,0.4,0.2,0.5,0.5
		c0.1,0.2,0,0.5-0.2,0.6L531.7,239.9z M686.4,237.2l11.3,10.9l-5.8-6.3L686.4,237.2z M641.9,242.5l7.3,5.5l-2.2-20l-5.3,13.2
		L641.9,242.5z M576.6,222.5l3.4,24.4l8.1-16.9c0.1-0.2,0.4-0.4,0.6-0.4L576.6,222.5z M427,235.8l24.3,7.5l-2.6-27.2
		c0-0.2,0.1-0.4,0.2-0.6c0.2-0.1,0.4-0.2,0.6-0.1l25.1,7.4l-2.8-28.4c0-0.2,0.1-0.4,0.2-0.6c0.2-0.1,0.4-0.2,0.6-0.1l26,8.1
		c0.1-0.1,0.3-0.1,0.4-0.1l-3.4-29.1c0-0.2,0.1-0.4,0.2-0.6c0.2-0.1,0.4-0.2,0.6-0.1l27.5,8.9l-7.7-28.5L427,235.8z M382.4,219.5
		l5,23c0,0.2,0,0.4-0.2,0.6l0,0l21.2-19.8L382.4,219.5z M450.1,217l2.5,25.7l21.7-18.6L450.1,217z M127.2,239.2l20,2.8l-2.8-19.1
		L127.2,239.2z M361.8,238.1l24.1,3.8l-4.8-21.8L361.8,238.1z M122,218l3.1,21.5c0-0.1,0.1-0.2,0.2-0.3l19.1-18.1
		c0,0,0.1-0.1,0.1-0.1L122,218z M355.9,215.7l4.8,21.7l19.6-18.2L355.9,215.7z M598.1,211.2l3.2,23.6l7-16L598.1,211.2z M576.6,221
		l23.3,13.7l-6.8-50.6L576.6,221z M310.9,230.2l22.8,3.5l-4.6-21.1L310.9,230.2z M68.6,217.2l-4.6,16.4l6.2-1.8L68.6,217.2z
		 M621,226.8l8.8,6.6l-2.5-21.5L621,226.8z M330.2,212l4.7,21.4l18.9-18L330.2,212z M626.9,182.5l51.2,49.5l-25.5-27.8L626.9,182.5z
		 M76.7,214.3l-4.9,17.1l6.6-1.9L76.7,214.3z M62,217l1.4,14l4.5-16.1L62,217z M305.1,208.4l4.7,21l18.3-17.7L305.1,208.4z
		 M85.2,211.2L80.1,229l7.1-2L85.2,211.2z M67.7,195.8l3.5,33.1l11.1-39L67.7,195.8z M77.7,211.6l1.7,15.1l5-17.4L77.7,211.6z
		 M94.2,208.1l-5.4,18.5l7.5-2.1L94.2,208.1z M83.9,189.2l4.2,35l12.3-41.7L83.9,189.2z M123,216.8l42.4,5.6l-6.1-40L123,216.8z
		 M404.6,198.5l5.2,23.6l21.5-20.1L404.6,198.5z M305.3,207.2l103,14.8l-21-95.8L305.3,207.2z M95.1,205.5l2,16.2l5.7-18.9
		L95.1,205.5z M572.4,191.9l3.8,27.1l8.2-18.2L572.4,191.9z M598.1,209.6l10,7.5l-2.9-23.3L598.1,209.6z M118.9,197l2.8,19.2
		l17.6-16.7L118.9,197z M644.8,202.3l12.9,12.5l-6.3-7L644.8,202.3z M83,192.2l-5.1,18l7-2.4L83,192.2z M527.2,209.6L527.2,209.6
		l24.2-19.7l-25.9-7.2l0,0c0,0,0,0-0.1,0.1c0,0,0,0,0,0c0,0,0,0,0,0c0,0,0,0,0,0c0,0,0,0,0,0c0,0,0,0,0,0c0,0,0,0,0,0c0,0,0,0,0,0
		c0,0,0,0,0,0c0,0,0,0,0,0c0,0,0,0,0,0c-0.1,0-0.1,0.1-0.2,0.1L527.2,209.6z M501.5,202.5l24.4,6.8l-2-26L501.5,202.5z M299.8,184.8
		l4.7,21.3l18.5-18.3L299.8,184.8z M164.4,201.4l20.3,2.5l-3-18.9L164.4,201.4z M641.1,203.3l0.6,0.5L641.1,203.3
		C641.1,203.3,641.1,203.3,641.1,203.3 M497.1,173.6l3.3,28.2l23-19.7L497.1,173.6z M427.2,177.5l5.1,23.4l21.6-20.2L427.2,177.5z
		 M160.4,181.7l2.9,19l17.5-16.5L160.4,181.7z M405.4,197.3l25.5,3.3l-4.9-22.5L405.4,197.3z M572.6,190.4L584,199l-3.4-25.3
		L572.6,190.4z M120.1,195.8l19.7,2.5l-2.7-18.6L120.1,195.8z M138.3,179l2.8,18.8l17.3-16.4L138.3,179z M573.1,135.6l64.1,62.2
		l-6.5-7.2c-0.1-0.1-0.1-0.1-0.1-0.2l-9-9.9c-0.1-0.1-0.1-0.1-0.1-0.2l-9-10c-0.1-0.1-0.1-0.2-0.2-0.3l-8.1-9c0,0-0.1-0.1-0.1-0.1
		l-8.2-9.1c-0.1-0.1-0.1-0.1-0.1-0.2l-7.6-8.5c0,0-0.1-0.1-0.1-0.1l-7.5-8.3L542,102.1c-0.1,0-0.1-0.1-0.2-0.1l-0.3-0.3l-9.8-8.3
		c0,0-0.1,0-0.1-0.1l0,0l-9.8-8.3c0,0-0.1-0.1-0.1-0.1l-0.1-0.1l-5.4-4.5L573.1,135.6z M399.2,174.2l4.9,22.4l20.8-19.4L399.2,174.2
		z M630.2,194.5l2.4,2l-2.3-2.2C630.2,194.3,630.2,194.4,630.2,194.5 M116,176.4l2.8,19l17.5-16.6L116,176.4z M80.8,173.6L75.9,191
		l6.6-2.7L80.8,173.6z M526.7,181.8l26.3,7.3c0.1,0,0.1,0,0.2,0.1l-3.9-27.5L526.7,181.8z M619,185.4l4.3,3.5l-4.1-3.9
		C619.2,185.1,619.1,185.2,619,185.4C619,185.3,619,185.3,619,185.4 M73.6,174.6l1.6,14.1l4.8-17.1L73.6,174.6z M89.4,169.5
		l-5.2,18.2l7.1-2.9L89.4,169.5z M300.8,183.6l22.6,3l-4.6-21.1L300.8,183.6z M320,164.8l4.7,21.4l18.8-18.6L320,164.8z
		 M116.8,175.1l87.7,10.5l-13.4-81.1L116.8,175.1z M79.6,152.7l3.9,32.6l11.6-40.8L79.6,152.7z M98.6,161.5c0.2,0,0.3,0.1,0.4,0.2
		c0.2,0.2,0.3,0.4,0.2,0.7L93,184.1l8.2-3.3c0.2-0.1,0.5,0,0.7,0.1c0.1,0.1,0.2,0.2,0.2,0.3l-5.2-37.7c0,0,0,0,0,0l-6.2,21.8
		l7.8-3.6C98.4,161.5,98.5,161.5,98.6,161.5 M294.7,161.8l4.7,21.3l18.4-18.5L294.7,161.8z M90.3,166.7l1.9,15.1l5.4-18.6
		L90.3,166.7z M608,176.4l5.9,4.8l-5.6-5.4c0,0.2-0.1,0.3-0.2,0.5C608.1,176.3,608,176.4,608,176.4 M602.8,167.1l14.4,14l-6.7-7.6
		L602.8,167.1z M534.5,146l-8.3,34.5l22.6-20.2L534.5,146z M400,173l54.2,6.4l-10.5-47.9L400,173z M450.4,155.8l5.1,23.4l21.9-20.5
		L450.4,155.8z M112.9,155.4l2.8,19l17.6-16.7L112.9,155.4z M596.2,166.8l8,6.5l-7.4-7.2c0,0.2-0.1,0.3-0.2,0.5
		C596.5,166.7,596.3,166.8,596.2,166.8 M610.8,164.4l8.6,8.3l-4-4.4L610.8,164.4z M393.9,149.8l4.9,22.5l20.9-19.8L393.9,149.8z
		 M203.3,164.3l20.5,2.3l-3.2-18.8L203.3,164.3z M295.6,160.6l48.2,5.7l-9.9-45.1L314.7,141c0,0,0,0.1-0.1,0.1c0,0-0.1,0.1-0.1,0.1
		L295.6,160.6z M340.3,144.1l4.8,21.9l19.6-19.4L340.3,144.1z M560.6,137.8l34,27.7l-9.1-8.9c0,0.2-0.1,0.4-0.2,0.5
		c-0.3,0.2-0.6,0.2-0.9,0L574,147c0,0.2-0.1,0.4-0.2,0.5c-0.3,0.2-0.6,0.2-0.9,0l-19.9-19.4c-0.2-0.2-0.3-0.6,0-0.9
		c0.1-0.1,0.3-0.2,0.5-0.2h0l-8.5-8.3c-0.3-0.2-0.3-0.6,0-0.9c0.1-0.1,0.3-0.2,0.4-0.2l-8.2-8c-0.3-0.2-0.3-0.6,0-0.9
		c0.1-0.1,0.2-0.2,0.4-0.2l-8.2-8c-0.3-0.2-0.3-0.6,0-0.9c0.1-0.1,0.2-0.2,0.4-0.2l-7.3-7.1c-0.3-0.2-0.3-0.6,0-0.9
		c0.1-0.1,0.2-0.2,0.3-0.2l-7.4-7.2c-0.3-0.2-0.3-0.6,0-0.9c0.1-0.1,0.2-0.2,0.3-0.2l-6.9-6.7c-0.3-0.2-0.3-0.6,0-0.9
		c0.1-0.1,0.2-0.1,0.3-0.2l-6.2-6.1L560.6,137.8z M543,111.9l53.1,51.7l-23.9-27.2L543,111.9z M199,144.8l3.1,18.8l17.5-16.6
		L199,144.8z M289.6,138.7l4.7,21.3l18.4-18.9L289.6,138.7z M535,144.7l14.9,14.9l15.8-4.9l-6.1-15.9l-17.4-5L535,144.7z
		 M451.1,154.6l27,2.9l-5.1-23.3L451.1,154.6z M474.2,133.2l5.2,23.7l22.2-20.7L474.2,133.2z M114.4,154.2l19.4,2.2l-2.7-18.1
		L114.4,154.2z M132.4,137.6l2.7,18.4l17.1-16.2L132.4,137.6z M110,135.2l2.7,18.8l17.5-16.6L110,135.2z M444.7,130.1
		C444.8,130.1,444.8,130.1,444.7,130.1l5.2,23.8l22.4-20.9L444.7,130.1z M394.8,148.6l25.4,2.7l-4.9-22.5L394.8,148.6z M416,127
		c0.1,0.1,0.2,0.2,0.2,0.4l5.2,23.5l22.1-21L416,127z M503.8,135.5l15,15l14.7-6.1l-2.4-14.5c-0.1,0-0.3-0.1-0.4-0.2l-0.1-0.1
		l-20.7-7.3L503.8,135.5z M241.2,128.8l3.6,20.1c0,0,0,0,0,0l18.1-17.9L241.2,128.8z M199.8,143.6l43.5,4.7l-7-39.3L199.8,143.6z
		 M387.7,124.2c0.1,0,0.1,0,0.2,0c0.2,0.1,0.4,0.3,0.4,0.5l5.1,23.4l21.7-21c0.1-0.1,0.1-0.1,0.2-0.1l-131.6-14.1l5.4,24.4
		l19.3-20.2c0.2-0.2,0.4-0.2,0.6-0.2c0.2,0.1,0.4,0.3,0.5,0.5l4.8,22l19.3-19.9c0.2-0.2,0.4-0.2,0.6-0.2c0.2,0.1,0.4,0.3,0.5,0.5
		l4.9,22.5l20.2-20.4c0.2-0.2,0.4-0.2,0.6-0.2c0.2,0.1,0.4,0.3,0.5,0.5l5,23l21.1-20.8C387.4,124.2,387.6,124.2,387.7,124.2
		 M94.3,125.4l-5.9,21.2l7.5-4c0.2-0.1,0.5-0.1,0.7,0.1c0.1,0,0.1,0.1,0.2,0.2L94.3,125.4z M341.1,142.9l23.9,2.5l-4.8-21.8
		L341.1,142.9z M558.2,129.7l15.8,15.5l-6.9-8L558.2,129.7z M85.8,130.4l1.8,14.2l5.1-18.2L85.8,130.4z M195.6,124.2l3.1,18.7
		l17.5-16.6L195.6,124.2z M290.8,137.6l22.5,2.4l-4.6-21.1L290.8,137.6z M111.5,134.1l41.1,4.4l-5.8-38.1l-17.5,16.7
		c0,0,0,0.1-0.1,0.1c0,0-0.1,0.1-0.1,0.1L111.5,134.1z M151,119.6l2.8,18.5l17.3-16.4L151,119.6z M283.4,111.5L502.6,135l5.9-13
		l-28.3-2.9l-0.2,0.1c-0.2,0.1-0.5,0-0.7-0.2L112.6,81.8l-8.1,10.5l178.2,19.1c0.1-0.1,0.3-0.1,0.5-0.1
		C283.3,111.4,283.3,111.4,283.4,111.5 M107.1,115.1l2.7,18.7l17.5-16.6l-19.9-2C107.2,115.2,107.2,115.2,107.1,115.1 M260.5,110.3
		l3.6,19.5l17.4-17.2L260.5,110.3z M241.9,127.6l20.8,2.1l-3.4-18.6L241.9,127.6z M237.4,107.8l3.4,19l17.6-16.7L237.4,107.8z
		 M196.6,123l20.2,2.1l-3.1-18.3L196.6,123z M214.7,105.4l3.3,19.1l17.8-16.9L214.7,105.4z M192.1,103c0,0,0,0.1,0,0.1l3.2,19.3
		l18-17.1L192.1,103z M483.2,118.1l24.8,2.5l-6.8-8.6c0,0,0,0,0,0L483.2,118.1z M151.9,118.4l19.6,2l-2.9-18L151.9,118.4z
		 M169.5,100.6c0.2,0.1,0.3,0.3,0.3,0.5l3,19l18.1-17.2L169.5,100.6z M147.2,98.4c0.1,0,0.1,0,0.2,0c0.2,0.1,0.4,0.3,0.4,0.5
		l2.9,18.8l18-17.1c0.1-0.1,0.2-0.1,0.2-0.1l-65-7l3,20.6c0,0,0,0,0,0l18.5-17.6c0.2-0.2,0.4-0.2,0.7-0.1c0.2,0.1,0.4,0.3,0.4,0.5
		l2.7,18.5l17.6-16.8C146.9,98.5,147.1,98.4,147.2,98.4 M480.1,117.7L480.1,117.7l17.9-6l-23.9-2.4L480.1,117.7z M454.5,115.1
		l23.9,2.4l-6-8.3L454.5,115.1z M108.9,114.1L128,116l-2.6-17.7L108.9,114.1z M426.2,112.3l24,2.4l-5.4-8.4L426.2,112.3z M440.3,97
		l11.4,17.7l20.7-6.8c0.1,0,0.2-0.1,0.2-0.1l17.9-5.9L440.3,97z M398.3,109.5l23.9,2.4l-4.8-8.4L398.3,109.5z M419,103.6l4.6,8.1
		l18.1-5.8L419,103.6z M475.8,108.1l24.4,2.5l-6.6-8.3L475.8,108.1z M371.1,106.7l23.6,2.4l-4.1-8.3L371.1,106.7z M379.1,74.9
		l16.9,34l80.4-25L379.1,74.9z M529.3,95.7l11.5,11.2l-4.8-5.5L529.3,95.7z M344.7,104l23.2,2.4l-3.5-8.2L344.7,104z M365.8,98.2
		l3.3,7.7l18.3-5.5L365.8,98.2z M543.5,99.5l6.4,6.2l-2.7-3.1L543.5,99.5z M420.7,102.5l23.1,2.4l-5.1-8L420.7,102.5z M318.9,101.4
		l23,2.3l-2.9-8.1L318.9,101.4z M337.3,86.8l5.8,16.3l39.8-11.8L337.3,86.8z M293.4,98.8l23.1,2.3l-2.3-8.2L293.4,98.8z M469,98.5
		l23.4,2.3l-6.2-7.8L469,98.5z M315.5,93l2.1,7.4l18.4-5.3L315.5,93z M368,97.1l21.8,2.2l-3.8-7.6L368,97.1z M269,96.3l22.5,2.3
		l-1.7-8L269,96.3z M442,95.9l22.5,2.2l-5.4-7.6L442,95.9z M460.8,90.6l5.3,7.5l16.8-5.4L460.8,90.6z M290.9,90l1.7,7.8l84.9-24
		c0,0,0,0,0,0c0.1-0.2,0.4-0.3,0.6-0.3l0.3,0l19.6-5.5c0.1,0,0.2-0.1,0.3-0.1l19-5.4c0.1-0.1,0.3-0.2,0.5-0.1l0,0l18.6-5.3
		c0,0,0.1,0,0.1,0l14.2-4L362.9,46c-0.1,0-0.2,0-0.3,0l-82.5-6.6l1,4.8c0.3,0.1,0.4,0.3,0.5,0.6c0,0.2-0.1,0.4-0.2,0.5l1.2,5.5
		c0.2,0.1,0.4,0.3,0.4,0.6c0,0.2-0.1,0.4-0.2,0.5l1.3,5.9c0.2,0.1,0.4,0.3,0.4,0.5c0,0.2,0,0.4-0.2,0.5l1.3,6.2l0.3,0
		c0.3,0,0.6,0.3,0.6,0.6c0,0.3-0.2,0.6-0.5,0.7l-0.1,0l1.4,6.6c0.1,0.1,0.2,0.3,0.3,0.5c0,0.1,0,0.3-0.1,0.4l1.5,7.1
		c0.2,0.1,0.4,0.3,0.4,0.6c0,0.2-0.1,0.4-0.2,0.5l1.6,7.5c0.1,0.1,0.1,0.2,0.1,0.4C290.9,89.8,290.9,89.9,290.9,90 M244.9,93.9
		l22.3,2.3c0,0,0,0,0-0.1l-1.1-7.9L244.9,93.9z M267.3,88.1l1,7.1l18.4-5.1L267.3,88.1z M317.7,92l20.8,2.1l-2.6-7.3L317.7,92z
		 M221.1,91.5l22.4,2.3c0-0.1-0.1-0.2-0.1-0.3l-0.6-7.8L221.1,91.5z M243.5,77.6l1.1,15.1l21.6-5.8c0.1,0,0.1,0,0.2-0.1l18.6-5
		L243.5,77.6z M462.5,89.5l22.6,2.2l-5.8-7.4L462.5,89.5z M197.7,89.1l22.3,2.3c-0.1-0.1-0.1-0.3-0.1-0.4l-0.1-7.6L197.7,89.1z
		 M364.5,88.2l20.9,2.1l-3.5-7.1L364.5,88.2z M221.1,83.4l0,6.8l18.5-4.9L221.1,83.4z M492.6,52.6L531.2,90L515.5,72L492.6,52.6z
		 M270.1,87.1l19.3,2l-1.4-6.8L270.1,87.1z M339.7,85.8l20.4,2l-3-6.9L339.7,85.8z M358.6,80.9l2.9,6.8l17.1-4.9L358.6,80.9z
		 M199.8,58.4L198,87.7l84-21.8L199.8,58.4z M176.3,78.8l-0.8,6.5l18.4-4.7L176.3,78.8z M223.8,82.3l18.9,1.9l-0.5-6.7L223.8,82.3z
		 M156.3,69l-2.8,13.9l40.8-10.2L156.3,69z M456.5,80.7l21.5,2l-5.4-6.8L456.5,80.7z M360.8,79.8l20.3,1.9l-3.3-6.7L360.8,79.8z
		 M269,78.8l18.6,1.8l-1.4-6.4L269,78.8z M133.7,74.4l-1.6,6.2l18.3-4.5L133.7,74.4z M431.1,78.3l20.9,1.9l-4.8-6.7L431.1,78.3z
		 M448.8,73.6l4.7,6.6l15.7-4.8L448.8,73.6z M179.4,77.8l17.8,1.8l0.4-6.4L179.4,77.8z M246.2,76.5l18.4,1.8l-0.9-6.4L246.2,76.5z
		 M265.1,72l0.9,6.3l17.2-4.6L265.1,72z M406.2,76l20.3,1.9l-4.2-6.5L406.2,76z M419,63.8l9.1,14.1L463,67.5L419,63.8z M382,73.8
		l19.7,1.8l-3.6-6.3L382,73.8z M399.5,69.3l3.6,6.3L419,71L399.5,69.3z M450.7,72.5l20.7,1.8l-5.1-6.5L450.7,72.5z M504,66l7.8,7.6
		l-3.1-3.6L504,66z M267.9,70.9l18,1.7l-1.3-6L267.9,70.9z M180.6,70.1l17.1,1.7l0.4-6L180.6,70.1z M402,68.2l19.4,1.7l-3.9-6.1
		L402,68.2z M178.4,63.7l-0.8,5.8l17.1-4.2L178.4,63.7z M497.1,62.3l4.4,5.2c0-0.2,0.1-0.3,0.2-0.5c0.1-0.1,0.1-0.1,0.2-0.1
		L497.1,62.3z M445.4,64.7l19.7,1.7l-4.8-6L445.4,64.7z M267.1,63.2l17.2,1.6l-1.2-5.6L267.1,63.2z M421.5,62.7l19.1,1.6l-4.2-5.9
		L421.5,62.7z M438,58.5l4.2,5.8L457,60L438,58.5z M245.4,61.3l17.2,1.6l-0.8-5.7L245.4,61.3z M263.1,57.2l0.8,5.6l16.1-4.1
		L263.1,57.2z M224.2,59.3l16.7,1.5l-0.4-5.5L224.2,59.3z M241.3,48.5l0.9,12.2l36.1-9L241.3,48.5z M491.5,55.8l3.5,4.1
		c0-0.1,0.1-0.2,0.1-0.3c0.1-0.1,0.1-0.1,0.2-0.1L491.5,55.8z M440.3,57.3l18.9,1.6l-4.5-5.7c0,0-0.1,0-0.1,0.1L440.3,57.3z
		 M221,53.4l0,5.3l16-3.9L221,53.4z M266,56.1l16.6,1.5l-1.1-5.3L266,56.1z M486.1,49.3l2.9,3.4c0-0.1,0.1-0.1,0.1-0.2
		c0.1-0.1,0.1-0.1,0.2-0.1L486.1,49.3z M434.1,50.4l19.6,1.6l-4.8-6c-0.1,0.2-0.2,0.4-0.5,0.5L434.1,50.4z M265.3,49.3l15.9,1.4
		l-1.1-5L265.3,49.3z M427,44.8l3.7,5.2l13.9-3.8L427,44.8z M411.4,48.6l17.7,1.4l-3.7-5.2L411.4,48.6z M261.2,43.8l0.7,5l15-3.7
		L261.2,43.8z M388.9,46.8l17.5,1.4l-3.3-5.2L388.9,46.8z M400.6,36.7l7.3,11.5l17.4-4.7c0.1,0,0.1,0,0.2-0.1l14-3.8L400.6,36.7z
		 M366.7,45l17.2,1.4l-2.9-5.1L366.7,45z M382.6,41.3l2.8,5l14-3.7L382.6,41.3z M480.9,43.1l2.3,2.7c0,0,0.1-0.1,0.1-0.1
		c0-0.1,0.1-0.1,0.2-0.1L480.9,43.1z M429.5,43.7l18.9,1.5l-4.4-5.5c-0.1,0.1-0.2,0.2-0.4,0.3L429.5,43.7z M482.3,40.4l4.6,4.4
		l-1.7-2L482.3,40.4z M344.9,43.2l16.8,1.3l-2.5-5L344.9,43.2z M351.9,21.8l11.3,22.8l66.9-17.3L351.9,21.8z M323.7,41.5l16.3,1.3
		l-2-4.8L323.7,41.5z M339.4,38l2,4.8l14-3.6L339.4,38z M385.1,40.2l17.1,1.3l-3.2-4.9L385.1,40.2z M303,39.9l15.9,1.3l-1.7-4.7
		L303,39.9z M316.5,30.4l3.8,10.7l32.2-8L316.5,30.4z M298.1,34.8l1.3,4.6l14.1-3.4L298.1,34.8z M475.7,37l1.5,1.8c0,0,0,0,0,0
		c0-0.1,0.1-0.1,0.2-0.1L475.7,37z M425,37.2l18.2,1.4l-4.2-5.3c-0.1,0.2-0.2,0.3-0.4,0.3L425,37.2z M342.3,36.9l16.3,1.3l-2.3-4.7
		L342.3,36.9z M403.1,35.6l16.7,1.3l-3.4-4.7L403.1,35.6z M418.1,32.2l3.3,4.6l13.1-3.5L418.1,32.2z M470.8,31.2l1.2,1.4
		c0,0,0,0,0,0c0,0,0.1-0.1,0.1-0.1L470.8,31.2z M420.6,31.1l17.6,1.3l-3.8-4.9c0,0-0.1,0-0.1,0L420.6,31.1z M339.9,30.8l15.6,1.2
		l-2.2-4.4L339.9,30.8z M334.4,26.1l1.8,4.3l13.2-3.2L334.4,26.1z M466,25.5l0.6,0.7c0,0,0,0,0.1-0.1L466,25.5z M416.6,25l16.8,1.2
		l-3.7-4.6c-0.1,0.1-0.2,0.2-0.3,0.2L416.6,25z M395.7,23.5l15.5,1.1l-3-4.2L395.7,23.5z M409.9,20.5l3,4.1l12.3-3.1L409.9,20.5z
		 M375.4,22.1l15.1,1.1l-2.6-4.1L375.4,22.1z M386,13.7l6,9.4l28.7-7.1L386,13.7z M369.3,17.7l2.3,4l12.3-3L369.3,17.7z M412.6,19.3
		l16.2,1.1l-3.5-4.4c-0.1,0.1-0.2,0.1-0.3,0.2L412.6,19.3z M409,13.9l15.5,1l-3.2-4.1c-0.1,0.1-0.2,0.1-0.3,0.1L409,13.9z
		 M402.4,9.8l2.6,3.7l11.5-2.8L402.4,9.8z M634.4,560.5c0,0-0.1,0-0.1,0l-10.5-2c-0.2,0-0.4-0.2-0.4-0.3c-0.1-0.2-0.1-0.4,0-0.6
		l7.4-18.9c0.1-0.3,0.4-0.4,0.7-0.4c0.3,0,0.5,0.3,0.6,0.5l3.2,20.8c0,0.2,0,0.4-0.2,0.6C634.7,560.4,634.5,560.5,634.4,560.5
		 M624.7,557.4l8.9,1.7l-2.7-17.5L624.7,557.4z M649,520.6c-0.1,0-0.1,0-0.2,0l-9-2.6c-0.2,0-0.3-0.2-0.4-0.3
		c-0.1-0.2-0.1-0.3,0-0.5l6.1-17.6c0.1-0.3,0.4-0.4,0.7-0.4c0.3,0,0.5,0.3,0.6,0.6l2.9,20.3c0,0.2,0,0.4-0.2,0.6
		C649.3,520.5,649.1,520.6,649,520.6 M640.8,516.9l7.4,2.2l-2.4-16.6L640.8,516.9z"/>
</g>
</svg>
