<svg xmlns="http://www.w3.org/2000/svg" xmlns:xlink="http://www.w3.org/1999/xlink" viewBox="0 0 5943.53 3133.67"><defs><style>.cls-1{fill:url(#linear-gradient);}.cls-2{fill:url(#linear-gradient-2);}</style><linearGradient id="linear-gradient" x1="1861.32" y1="3429.24" x2="4110.42" y2="-628.23" gradientUnits="userSpaceOnUse"><stop offset="0" stop-color="#57b9cf"/><stop offset="0.86" stop-color="#7633af"/></linearGradient><linearGradient id="linear-gradient-2" x1="789.82" y1="1171.24" x2="6733.36" y2="1171.24" gradientTransform="translate(-789.82 457.85)" gradientUnits="userSpaceOnUse"><stop offset="0.4" stop-color="#7633af"/><stop offset="0.43" stop-color="#7341b2"/><stop offset="0.51" stop-color="#6a66bb"/><stop offset="0.59" stop-color="#6384c2"/><stop offset="0.68" stop-color="#5e9bc8"/><stop offset="0.77" stop-color="#5aaccc"/><stop offset="0.87" stop-color="#58b6ce"/><stop offset="1" stop-color="#57b9cf"/></linearGradient></defs><title>Header-Logo</title><g id="Layer_2" data-name="Layer 2"><g id="color_shirt_logos" data-name="color shirt logos"><path class="cls-1" d="M2533,3133.67h-63.25a14.5,14.5,0,0,1-6.43-1.51l-43-21.49h-42.61a14.5,14.5,0,0,1-6.43-1.51l-69-34.5a14.57,14.57,0,0,1-4.4-3.4L1349.16,1984.53a14.41,14.41,0,0,1-3.35-7.09l-23-138a14.39,14.39,0,0,1,.34-6.26l391-1391.47h0s0,0,0-.06a0,0,0,0,1,0,0v0a.25.25,0,0,0,0-.07v0a.43.43,0,0,0,0,0L1731.46,384a14.38,14.38,0,0,1,4.15-6.55l57.45-51.7a14.38,14.38,0,0,1,5.77-3.2s0,0,.06,0h0l0,0,.48-.12L3162.14.38a14.43,14.43,0,0,1,5.67-.18l69,11.49a14.37,14.37,0,0,1,7.8,4l13.05,13h22.79a14.38,14.38,0,0,1,4.91.86l63.25,23a14.53,14.53,0,0,1,5,3.07L4515,1153.9l.27.26s0,0,0,0a14.33,14.33,0,0,1,3.11,4.65l40.14,91.74a14.36,14.36,0,0,1,.5,10.2L4117,2621.34v15a14.36,14.36,0,0,1-5.75,11.5L4047.06,2696l-4.91,34.35a14.34,14.34,0,0,1-5,9l-69,57.5a14.43,14.43,0,0,1-5.93,3l-1426,333.49A14.38,14.38,0,0,1,2533,3133.67Zm-59.86-28.75h58.2l1421-332.34,62.13-51.77,5-34.78a14.38,14.38,0,0,1,5.61-9.47l63.24-47.44v-8.29l-5.32-21.28a14.37,14.37,0,0,1,16.64-17.61L4530.05,1257.1l-36.62-83.7a14.4,14.4,0,0,1-2.6-2.82L3336,78.61,3277.91,57.5h-26.22a14.38,14.38,0,0,1-10.16-4.21l-14-14L3165.93,29,1811,349.17a14.63,14.63,0,0,1-2.45,1.27l-50.74,45.66-14.46,48.18a14.26,14.26,0,0,1-1.78,7.59l-.91,1.63-389,1384.38,21.81,130.81,944.18,1081.52,63.43,31.72h42.6a14.5,14.5,0,0,1,6.43,1.51Zm59.92-1.08a3.27,3.27,0,0,1-.7-.08l-81.54-20.54a2.86,2.86,0,0,1-2.17-2.8l-79.06-19.9a2.88,2.88,0,0,1,0-5.59l60.78-14.34L2348,3019.86a2.88,2.88,0,0,1,0-5.58l57.66-14.28-74.25-18.7a2.88,2.88,0,0,1,0-5.57l56.71-14.76-77-19.39,69.2,153.54a2.87,2.87,0,0,1-5.24,2.36l-367.46-815.3-67.33-20.71,371,799.12a2.87,2.87,0,1,1-5.21,2.42l-30.43-65.54a2.87,2.87,0,0,1-2.63-.3l-36.7-24.93a2.88,2.88,0,0,1-1-1.15l-18.47-39-35.2-23.59a2.74,2.74,0,0,1-1-1.14l-19.29-40.06-34.93-23.07a2.8,2.8,0,0,1-1-1.13L2105.37,2802l-34.46-22.39a2.82,2.82,0,0,1-1-1.13l-20.88-42.1-33.59-21.46a2.85,2.85,0,0,1-1-1.13L1993,2671.25l-32.55-20.44a2.9,2.9,0,0,1-1-1.13l-22-43.13-31.9-19.67a2.77,2.77,0,0,1-1-1.13l-23-44.54-31.34-18.93a2.81,2.81,0,0,1-1.06-1.13L1826,2476.83l-30.29-17.93a2.86,2.86,0,0,1-1.08-1.13l-24-45.5-29.57-17.11A2.89,2.89,0,0,1,1740,2394l-24.87-46.61-29.22-16.5a2.92,2.92,0,0,1-1.12-1.14L1659,2282.05l-28.7-15.79a2.87,2.87,0,0,1-1.14-1.15l-26.51-48.67-27.84-14.89a2.85,2.85,0,0,1-1.16-1.15l-26.93-49-26.86-13.94a3,3,0,0,1-1.19-1.16l-27.5-49.59L1465,2073.57a2.87,2.87,0,0,1-1.22-1.17l-28.63-51.17a2.87,2.87,0,0,1,4.69-3.27l37.31,43.46L1461.92,2034a2.87,2.87,0,0,1,3.1-4.2l-106.3-52.09a2.88,2.88,0,1,1,2.53-5.17l569.67,279.14-15.7-73.27-562.14-246.65a2.87,2.87,0,1,1,2.31-5.26l562.38,246.76,49.83-19.93-631.71-261.79a2.88,2.88,0,0,1-1.72-3.22l11.5-57.5a2.82,2.82,0,0,1,1.44-2,3,3,0,0,1,2.42-.16L1376,1839l-4.51-75.65a2.89,2.89,0,0,1,3.73-2.92l20.87,6.55-4.8-76.31a2.92,2.92,0,0,1,1-2.39,3,3,0,0,1,2.52-.59l21.87,5.31-5.07-76.15a2.86,2.86,0,0,1,3.36-3l22.85,4-5.53-78.88a2.88,2.88,0,0,1,.87-2.27,2.73,2.73,0,0,1,2.3-.79l24.22,2.51-5.69-76.76a2.86,2.86,0,0,1,.79-2.21,2.77,2.77,0,0,1,2.18-.87l24.89.9-6.06-77.46a2.88,2.88,0,0,1,.72-2.15,2.93,2.93,0,0,1,2-1l26-.79-6.37-77.06a2.88,2.88,0,0,1,2.6-3.1l26.32-2.52-6.48-74.87a2.88,2.88,0,0,1,2.41-3.09l26.82-4.23-7.06-77.17a2.87,2.87,0,0,1,2.24-3.07l29.15-6.46-7.51-77.85a2.88,2.88,0,0,1,2.08-3l30.41-8.66-7.88-77.37a2.88,2.88,0,0,1,1.92-3l31.66-11-8.54-79.77a2.87,2.87,0,0,1,1.77-3l33.37-13.66-8.76-77.31a2.88,2.88,0,0,1,1.64-2.92l34.18-16.06-9.27-77.67a2.88,2.88,0,0,1,1.51-2.88l35.58-18.83-9.69-76.93a2.88,2.88,0,0,1,1.4-2.84l38.29-22.51a2.89,2.89,0,0,1,3.21.2l.12.1L1725.26,447a2.93,2.93,0,0,1,.33-1.79l.92-1.65a2.82,2.82,0,0,1,.9-1l46.87-31.88a2.85,2.85,0,0,1,2.67-.29,3.16,3.16,0,0,1,.38-.84h0l.13-.18,38.89-50L1801,338.8a2.88,2.88,0,0,1,4.6-3.45l16,21.28,373.21,37.81a2.9,2.9,0,0,1-1-2.4l2-32.85-98.65,25.06a2.88,2.88,0,0,1-3.56-3.16l4.13-31.62-97.78,24.36a2.88,2.88,0,0,1-3.51-3.35l6.05-30.63-98,24a2.92,2.92,0,0,1-2.73-.78,2.88,2.88,0,0,1-.73-2.75l9.12-34.47a2.93,2.93,0,0,1,3.07-2.13l90.63,9.28,6.15-31.15a2.91,2.91,0,0,1,3.11-2.3l90.35,8.91,3.88-29.73a2.86,2.86,0,0,1,3.12-2.49l90,8.57,1.83-29.51a2.88,2.88,0,0,1,3.14-2.68l90.58,8.32-.2-27.4a2.94,2.94,0,0,1,.93-2.14,2.9,2.9,0,0,1,2.2-.75l88.77,7.88-2-26.48a2.88,2.88,0,0,1,.84-2.27,2.84,2.84,0,0,1,2.27-.81l88.33,7.57-3.66-25.21a2.88,2.88,0,0,1,3.08-3.28l85.43,7.09-5-23.38a2.88,2.88,0,0,1,.65-2.5,3,3,0,0,1,2.39-1l83,6.66-6.51-23.19a2.9,2.9,0,0,1,.54-2.6,2.94,2.94,0,0,1,2.45-1l85.91,6.66-7.88-22.44a2.88,2.88,0,0,1,2.93-3.82l85.4,6.4-9-21.37a2.85,2.85,0,0,1,.32-2.79,2.76,2.76,0,0,1,2.54-1.19l84.8,6.15L2874,94.43a2.84,2.84,0,0,1,.19-2.87,2.77,2.77,0,0,1,2.59-1.26l85.15,6-11.14-19.66a2.87,2.87,0,0,1,.07-2.94,2.91,2.91,0,0,1,2.63-1.34L3036.62,78l-12.15-19a2.87,2.87,0,0,1,2.61-4.42L3109.63,60l-12.87-18.07a2.89,2.89,0,0,1-.18-3.07,2.82,2.82,0,0,1,2.7-1.47l85,5.41L3164,17.19a2.87,2.87,0,1,1,4.5-3.57l279.41,353.13a2.88,2.88,0,0,1,2.45,2.55,3.62,3.62,0,0,1,0,.57l130.79,165.31,84.73,29.9L3248.28,47.6a2.88,2.88,0,0,1,4.48-3.61l423.47,524.73,1.91.68a2.9,2.9,0,0,1,1.88,2.24l10.3,61.82,29.29-43.94L3278.2,44.93a2.88,2.88,0,0,1,4.47-3.62l442.17,545.53L3795.41,607,3341.49,68a2.88,2.88,0,1,1,4.4-3.71l21.5,25.54a2.87,2.87,0,0,1,3.74,0l40.54,34.46,23.41,27.12,40.48,34.39,24.83,28.59.2.15,41.08,34.87,26.22,30,.12.16L3609.87,315l27.89,31.7.3.23,41.62,35.27,29.11,32.87,41.78,35.38L3781,484.69l0,0,42.15,35.67,32.27,36c.08.08.14.17.21.25l42.69,36.1,33.39,37.13,42.54,35.92,35.57,39.31,42.62,36,37.62,41.41.23.17,43.22,36.43,39.5,43.26a2,2,0,0,1,.23.28l44.13,37.16,42.05,45.87.31.23,43.76,36.8,43.7,47.46,0,.06,44,36.91,45.77,49.52,0,0,44.28,37.15,26.06,28.07,8.51,6.94a2.86,2.86,0,0,1,.89,3.19l12.83,13.82a2.87,2.87,0,0,1-4.1,4l-40.07-38.43a2.87,2.87,0,0,1-4.67,1l-32.23-31.07-9.17-7.48-.24.27a2.89,2.89,0,0,1-4,0l-24.79-23.93-16.06-13.09a2.87,2.87,0,0,1-3.86-.13l-19.89-19.21-24.94-20.32a2.89,2.89,0,0,1-2.91-.66L4331.48,1046l-33.54-27.32a2.83,2.83,0,0,1-1.81-.8l-4.39-4.25-481.5-392.24,24.59,63.94,710.36,567.14a2.87,2.87,0,0,1-3.59,4.49L3836.26,693.85,3856,836.47l37.38-78a2.88,2.88,0,0,1,5.44.86l16.26,120.26L3949,804a2.83,2.83,0,0,1,3-1.66,2.87,2.87,0,0,1,2.43,2.46l15.21,114,32.41-72.1a2.92,2.92,0,0,1,3-1.67,2.88,2.88,0,0,1,2.42,2.49l14,111.1,31.09-71.29a2.87,2.87,0,0,1,5.49.8l13,107.28,29.21-69a2.87,2.87,0,0,1,5.5.79L4118,1031.38l27.11-68.29a2.88,2.88,0,0,1,5.52.67l13,93.49,24-60a2.88,2.88,0,0,1,5.53.75l11.58,106.48a2.87,2.87,0,0,1-4.58,2.61l-33.08-24.86,13.28,95.4,60.49-153.82a2.87,2.87,0,0,1,5.53.75l11.69,110.33,24.69-76.34a2.94,2.94,0,0,1,3-2,2.87,2.87,0,0,1,2.56,2.56l11.8,111.29,26.21-75.19a2.85,2.85,0,0,1,3.05-1.91,2.88,2.88,0,0,1,2.53,2.57l9.6,95.85,21.66-66.85a2.87,2.87,0,0,1,5.59.62l8.86,93.84,21.33-65.77a2.88,2.88,0,0,1,5.6.64l8.12,91.49,20.72-63.85a2.87,2.87,0,0,1,5.6.65l7.32,88,20-61.61a2.82,2.82,0,0,1,3.08-2,2.86,2.86,0,0,1,2.52,2.63l6.64,85.18,19.6-60.29a2.9,2.9,0,0,1,3.09-2,2.85,2.85,0,0,1,2.51,2.64l7.09,97.53a2.88,2.88,0,0,1-4.61,2.49l-26.08-19.87,7.06,90.71a2.87,2.87,0,0,1-4.53,2.56l-59.33-42.32,8.87,100,23.39-71.94a2.88,2.88,0,0,1,5.6.66l7.9,94.89a2.88,2.88,0,0,1-4.46,2.63l-31.86-21.22-.14-.1,7.35,82.79a2.88,2.88,0,0,1-4.38,2.7l-62.35-38.6a3.09,3.09,0,0,1,.4,1.21l9.85,98.25,23.67-72.81a2.91,2.91,0,0,1,3.05-2,2.88,2.88,0,0,1,2.55,2.59l8.71,92.22a2.89,2.89,0,0,1-1.31,2.69,2.85,2.85,0,0,1-3,.07l-32.61-18.72a3,3,0,0,1-.73-.6l8.41,83.91a2.87,2.87,0,0,1-4.21,2.82l-29.26-15.52a3,3,0,0,1,.25.9l9.51,89.62a2.87,2.87,0,0,1-4.12,2.89l-33.36-16.28a2.86,2.86,0,0,1-1.47-3.47l23.85-73.34a2.85,2.85,0,0,1,2.26-2l-35-18.55a2.87,2.87,0,0,1-1.38-3.43l21.5-66.18a2.58,2.58,0,0,1-1.56-.38l-33.84-19.43,30,283a2.87,2.87,0,0,1-4,2.92l-208.38-94.11a3,3,0,0,1,.15.61l13.36,97.79,25.5-76a3,3,0,0,1,3-2,2.87,2.87,0,0,1,2.57,2.49l12.78,97.52,24.3-75.86a2.92,2.92,0,0,1,3-2,2.87,2.87,0,0,1,2.58,2.52l11.49,94.14,23.61-73.59a2.92,2.92,0,0,1,3-2,2.88,2.88,0,0,1,2.58,2.53l10.5,91.18,23.12-72a2.91,2.91,0,0,1,3-2,2.88,2.88,0,0,1,2.57,2.55l11.08,102.18a2.87,2.87,0,0,1-4.07,2.91l-33.65-15.66,11.09,96.35a2.87,2.87,0,0,1-4,3L4241.8,2037l11.94,97.77a2.87,2.87,0,0,1-3.88,3L4210.78,2123a3.49,3.49,0,0,1-.44-.2l11.27,86a2.85,2.85,0,0,1-1,2.55,2.9,2.9,0,0,1-2.67.59l-175-50.78a2.88,2.88,0,0,1-1.93-3.68l28.08-83.62-42.72-16.13a2.77,2.77,0,0,1-1.26-.93l28.53,205.92,32.53-84.19a2.91,2.91,0,0,1,3-1.82,2.87,2.87,0,0,1,2.52,2.43l15,98.62,27.92-78.81a3,3,0,0,1,3-1.91,2.9,2.9,0,0,1,2.57,2.46l27.69,192a2.86,2.86,0,0,1-3.5,3.2L4076,2373.84a2.87,2.87,0,0,1-1.87-1.42,2.9,2.9,0,0,1-.18-2.34l31.31-88.37a2.82,2.82,0,0,1-2,.23l-48.72-12.59,45.21,326.32a2.87,2.87,0,0,1-1.56,3l-68.44,34.22-41.86,52.34h45.76a2.87,2.87,0,0,1,.91,5.6l-69,23a2.86,2.86,0,0,1-1.48.09l-35.49,53.56,31.6,15.8a2.87,2.87,0,0,1-2.57,5.14l-34.22-17.11-855.9-218.48,5.18,61.85,98.39-31.33a2.87,2.87,0,0,1,3.74,2.6l2.73,55.79,102-30.91a2.87,2.87,0,0,1,3.71,2.74l.06,55.3,106.07-30.58a2.87,2.87,0,0,1,3.67,2.9l-2.67,54.79,109.62-30.07a2.93,2.93,0,0,1,2.62.58,2.88,2.88,0,0,1,1,2.49l-5.41,54,111.89-29.2a2.81,2.81,0,0,1,2.65.65,2.85,2.85,0,0,1,.91,2.57l-8,52.59,113.49-28.2a2.92,2.92,0,0,1,2.69.72,2.88,2.88,0,0,1,.82,2.65l-10.6,51.49,116.39-27.52a2.82,2.82,0,0,1,2.72.78,2.88,2.88,0,0,1,.72,2.74l-14.39,55.18a2.89,2.89,0,0,1-3.48,2.06l-103.44-26.05L3700.2,2834a2.91,2.91,0,0,1-1.29,1.86,3,3,0,0,1-2.23.36l-100.78-25.38-7.32,48a2.88,2.88,0,0,1-3.54,2.36l-98.15-24.72-4.75,47.45a2.88,2.88,0,0,1-3.56,2.5l-96.69-24.35-2.13,44a2.88,2.88,0,0,1-1.16,2.16,2.8,2.8,0,0,1-2.42.48l-92.8-23.36,0,42.42a2.86,2.86,0,0,1-1.1,2.27,2.81,2.81,0,0,1-2.47.52l-90.54-22.8,2,40.36a2.84,2.84,0,0,1-1,2.36,2.76,2.76,0,0,1-2.52.56L3099,2928.75l3.77,45.05a2.87,2.87,0,0,1-3.57,3l-90.68-23.13,5.7,40.72a2.88,2.88,0,0,1-3.55,3.19l-88.2-22.21,7.06,38.19a2.86,2.86,0,0,1-.86,2.62,2.89,2.89,0,0,1-2.67.69l-86.22-21.71,8.35,36.46a2.84,2.84,0,0,1-.79,2.69,2.8,2.8,0,0,1-2.71.73l-84.86-21.36,10.44,38.35a2.88,2.88,0,0,1-.72,2.77,2.83,2.83,0,0,1-2.76.77l-94.42-23.77,13.86,35a2.87,2.87,0,0,1-3.37,3.85l-83-20.89,11,31a2.88,2.88,0,0,1-3.41,3.76l-86.76-21.85a2.85,2.85,0,0,1,.55.88l14.41,36.35a2.88,2.88,0,0,1-2.67,3.94Zm-69.4-23.31,64.66,16.28L2516.85,3068Zm51.64-25.08a3.34,3.34,0,0,1,.7.08l87.72,22.1-24.39-68.52-1.15-.29-74.26,18.39a2.87,2.87,0,0,1-3.4-1.82l-14.05-39.47-125.84,31.17L2514,3055.73A3,3,0,0,1,2515.26,3055.45ZM2441,3043.28l13.3,33.54,63.32-14.93-.87-.22a2.86,2.86,0,0,1-1.94.19Zm-58.62,14.53,64.65,16.28-11.42-28.83Zm227.91-11.32,68.48,17.24L2666.19,3032Zm49.16-23.74a3.42,3.42,0,0,1,.7.08l103.23,26-44.61-163.89-90.85,24.86a2.86,2.86,0,0,1-3.53-2L2611,2858.5l-73.42,20.1,0,0a2.82,2.82,0,0,1-2.79.81l-.13,0-74.14,20.28-.06.07a2.83,2.83,0,0,1-2.83.85l-.25-.06-70,19.17-.18.22a2.83,2.83,0,0,1-2.86.89l-.54-.14L2320.5,2938l79.21,19.95.92-.24a2.84,2.84,0,0,1,3.18,1.27l83,20.91.74-.19a2.9,2.9,0,0,1,3,1.14l87.53,22,2.1-.52a2.89,2.89,0,0,1,3.4,1.83l0,.08,74.51,18.77A2.83,2.83,0,0,1,2659.46,3022.75Zm-73.47-12,11.76,33,.24-.07,58.46-15.21Zm183.09-.67,72.42,18.23-7.68-33.5Zm-276-22.72,12,33.61,61.26-15.18Zm264.36-18.89,165.66,41.72-14.64-79.15Zm-8.93,3.68,9.43,34.66,66.18-15.62Zm-342-6.6,12.35,31.16,56.16-13.91Zm-62.72,12.88,68.47,17.24-12.59-31.79Zm587.52-6.8L3008,2991l-5.07-36.22Zm-696.16-27.38,34.59,40.29-12.39-26.69a2.79,2.79,0,0,1-2.43-.36Zm5.13,23.63,18.19,12.36-27.52-32.06Zm10.44-211.45,612,154.1,234.09,59.69-15.4-183.81-.27-.08a2.87,2.87,0,0,1-.2-5.51l-4-48.36a2.9,2.9,0,0,1-.23-2.78l-4.25-50.72a2.88,2.88,0,0,1-.44-5.2l-4.38-52.37a2.88,2.88,0,0,1-.41-4.83l-5.23-62.5-97.77,34.08a2.77,2.77,0,0,1-2.5-.29,2.89,2.89,0,0,1-1.31-2.14l-5.93-61.84-4.86-1.24L2560,2653a2.86,2.86,0,0,1-3.38,1.75l-1-.27-84.69,28.34a3.08,3.08,0,0,1-1.55.52l-80.54,26.94a2.82,2.82,0,0,1-2.55.85L2309,2737a2.76,2.76,0,0,1-.93.31ZM2914,2929.6l7.13,38.55L2996,2950.5Zm-177.39-1,10,36.68,68.37-16.95Zm83-22.92,9,39.26,73.78-18.28Zm289.47,19.7,76.25,19.2-1.83-36.78Zm-893.88-22.65,35.79,41.67-13.05-28.1a2.9,2.9,0,0,1-2.61-.29ZM2745.77,2925l76.83,19.34-8.5-37.14Zm-524.74,3,19.53,13.09-84.85-98.84,29.84,62,34.86,23.36A2.47,2.47,0,0,1,2221,2927.94Zm-206.24-643.86,293.55,651.3.08,0,64-17.51-76.53-19.28a2.87,2.87,0,0,1-.09-5.54l61.45-17.67L2276.44,2855a2.87,2.87,0,0,1-.13-5.54l63.34-19.15-82.1-20.67a2.87,2.87,0,0,1-.17-5.53l70.26-22.32-87.9-22.14a2.87,2.87,0,0,1-.21-5.51l57.78-19.33-86.81-21.86a2.87,2.87,0,0,1-.25-5.5l67.29-23.67L2188,2661.23a2.87,2.87,0,0,1-.29-5.48l69.46-25.72-92.76-23.36a2.87,2.87,0,0,1-.35-5.46l70.63-27.52-97.27-24.5a2.87,2.87,0,0,1-.39-5.45l74.7-30.7-98.53-24.81a2.88,2.88,0,0,1-.44-5.43l74-32.06-101.74-25.62a2.88,2.88,0,0,1-.49-5.41l76.26-34.87-103.74-26.12a2.88,2.88,0,0,1-.55-5.38L2136,2315Zm1089.87,596.49,173,43.57-.1-86.49Zm-9.38,3.56,3.17,37.86,75.92-17.94Zm-371.46-2.59,11,40.34,73.36-19.1Zm-351.08-2.3,13.75,34.75L2446,2897.7Zm-65.1,16.35,72.62,18.3-13.92-35.18Zm308.17-41.24,13.38,49.14,87.12-23.84Zm-421,5.68,37.24,43.38-13.35-28.73a2.92,2.92,0,0,1-2-.43Zm1098.43,21.91,81,20.39,1.94-40Zm-1091.14,5.19,19.34,12.76-29.66-34.56Zm244.88-29.81,13,36.56,63.33-17.33Zm-159-5.37,165.88,41.78-29.53-83-72.39,21.89a3,3,0,0,1-1.07.32Zm805.15-68.48,383.69,96.62,20.78-207.56Zm190.26,53.84,0,41,84.06-19.86Zm-192-.27,3.36,40.07,78.46-19.47Zm-567.13-5.77,13,41.45,72.63-19.87Zm-70,21.95,76.94,19.39-12-38.07Zm-296-16.93,29.88,34.81-10.53-22.23Zm15.7-20.44,37.94,44.18-14.06-30.27a2.88,2.88,0,0,1-2.54-.28Zm-99.23-40.68L2203,2858.52l-205.92-239.86Zm1422.46,58,86.21,21.71,6.66-43.66ZM3185,2812.55l2.06,41.64,82.26-20.41Zm-84.9,20.76,81.18,20.45-2-41.09Zm-969.77,6.57,17.49,11.55-27.51-32Zm298.84-32.54,15.21,42.74,72.13-20.75ZM2122.41,2813l29.32,34.16-10.58-22ZM3502,2781.28l193.18,48.65,21-101.85Zm-414.77,6.65,3.51,41.88,80-20.86Zm404.86-3.22-4.49,44.83,94.14-22.25Zm-1156.82-1,16.94,42.81,69.56-21Zm-66.51,22.82,77,19.4-15.42-39Zm-116.35-35.61,39.38,45.87-14.71-31.69a2.85,2.85,0,0,1-2.5-.26Zm9,30.14,20.5,13.1L2150,2777Zm1559.4-21,91.85,23.13,12.46-47.8Zm-1605.43-32.41,32.1,37.38-11.62-24.52Zm967.35-12.92,3.73,44.54,82.88-22.73Zm414.82-5-4.79,47.83,98-24.35Zm-1366.7-4.5,40.15,46.76-15.17-32.66a2.88,2.88,0,0,1-2.5-.25Zm-27.51,8,58.18,36.54-92.42-107.67Zm856.32-214,963.46,245.93,35.07-52.93-1918-503.83-26.67,69.32,591.71,151a3,3,0,0,1,.83.21l113.43,29a2.76,2.76,0,0,1,1.88.33,4,4,0,0,1,.34.23l111.87,28.56.55-.19a2.9,2.9,0,0,1,2.44.25,3,3,0,0,1,1,.94l111.71,28.52,6.41-2.15a2.93,2.93,0,0,1,2.48.32,2.84,2.84,0,0,1,1.29,2.14Zm220.62,186.87,2.3,46.74,87.74-24.07Zm-90.09,24.51,86.61,21.81-2.27-46.12Zm417.56-4.28,92.09,23.2,7.5-49.18Zm-1215.79-39,17.27,43.39,66.58-22.27Zm-70.83,22.29,81.7,20.57L2285.64,2687Zm857.05-29.2,3.91,46.57,84.42-24.33Zm-969.61-2.09,41.25,48-16.2-34.89a2.88,2.88,0,0,1-3.13.09Zm1174.77-2.54.05,49.42,93.93-25.76Zm-199.31.17,193.61,48.75-.11-107.38-101.31,30.7a3.1,3.1,0,0,1-1.12.34Zm-965,35.2,21.66,13.35-34.21-39.84Zm-99.82-.79,16.79,10.73-27.51-32Zm38-30.61,32,37.31-12-25Zm-47.51,1.84,29,33.82-11.23-22.64ZM2040,2202.51l1924.55,505.55,51.38-17.12h-34a3.53,3.53,0,0,1-.72-.08h-.09L2049.23,2179.1l-.09,0h0l-60.56-18.63Zm332,456.46,16.24,45.39,70.43-23.57Zm-173.66-1,183.73,46.26-36.1-100.91Zm1094,14.29,92.31,23.25,2.46-50.57Zm-1221.16-16.39,33.85,39.43-12.59-26.58Zm-17.57-481.49L3980.85,2684.8l42.08-52.6-92.16-24.67a3,3,0,0,1-1.22-.09,3.27,3.27,0,0,1-.91-.47l-113.82-30.47-3.12,2.51a2.87,2.87,0,0,1-4.63-1.75l-.52-3L3138,2395.36a3.11,3.11,0,0,1-1.21-.16,2.73,2.73,0,0,1-.68-.35l-245-65.57-1.24,1.17a2.88,2.88,0,0,1-4.77-1.4l-.36-1.47-120.36-32.22-.47.45a2.89,2.89,0,0,1-4.8-1.51l-.07-.36-235.94-63.16a2.83,2.83,0,0,1-1.68,0,2.93,2.93,0,0,1-1.14-.71l-223.39-59.79-.47.45a2.91,2.91,0,0,1-2.95.64,2.87,2.87,0,0,1-1.89-2.37l0-.14-102.76-27.51-.2,0-113.8-30.46Zm28.85,452.79,46.21,53.82-18.88-40.66a.76.76,0,0,0-.11.14,2.87,2.87,0,0,1-3.67.62Zm-118.3,19.24,50.72,31.85-84.85-98.84Zm81.11,19.43L2065,2677.9l-31.9-37.16Zm51.11-1.45,21.72,13.12-235-273.77a3.11,3.11,0,0,1-.53-.62l-226-263.31,16.89,31.75a2.86,2.86,0,0,1,.7,1.93l27.11,51.41a2.82,2.82,0,0,1,.69,1.86l26.49,50.33a2.83,2.83,0,0,1,.69,1.73l25.23,48.32,1.71,2a2.92,2.92,0,0,1,.63,2.49l24.38,46.56a3,3,0,0,1,.66,1.41l24.76,47a2.86,2.86,0,0,1,.69,1.73L1830.5,2473a3,3,0,0,1,.55,1.05l22.82,43.73,130.27,78.71a2.6,2.6,0,0,1,2.32,1l.72.85,34.45,20.8a3.11,3.11,0,0,1,.93.57l35.05,21.18a2.93,2.93,0,0,1,1.6.94l0,0L2096,2664A2.73,2.73,0,0,1,2096.43,2664.34Zm359.62-34.92,15,47.26,74.18-24.81Zm-77.93,25.14,86.77,21.84L2450,2629.28ZM3073.4,2623l4.1,49,86.51-26.21ZM2034.61,2633.7l32.81,38.22L2054.94,2646Zm-47.42,3.37,29.81,34.72-11.68-23.55Zm365-33.81,17.27,48.27,72.76-25.6Zm-353,9,31.58,36.78L2018.46,2624Zm148.14-66.53L2553.21,2648l-66.27-241.79ZM2545.21,2597l13.77,50.25,79.78-26.69Zm534.12,21.55,92.49,23.29-2.55-51.92Zm-1104,4.42,17.81,11-29.66-34.54Zm83.64-45.42,47.44,55.26L2087,2591.07a2.85,2.85,0,0,1-3.62.61Zm12.34,36.23,22.73,13.45-36.54-42.58Zm-107.62-23,31.24,36.39-12.41-25Zm1973,12.35,87.78,23.49-12.21-86.77Zm-175.82-1891L4030.21,2626.2l63.58-31.79L3830,690.85Zm-1512.38,1865,19.45,48.89,70.74-26.18Zm-73.93,26.14,86.84,21.87-19.19-48.24Zm463.58-38.91,12.09,52.34,84.06-28.12Zm-86.34,28.35,92.36,23.26-11.92-51.58Zm-621.72-22.2,30,34.89-12.13-24.12Zm1890.28,1.5,105.78,28.31-26.62-92.11Zm85-64.15,26.53,91.76,72.6-60.79Zm-1884.14,47.88,36,42-13.81-29.13Zm-112,26.64,16.09,9.92-27.5-32Zm619.44-45.58,14.49,52.84,81.46-28.67Zm207.06-7.21,10.3,55,89.44-29.92Zm-838.61,21,29.11,33.91-12-23.58ZM2535,2532.48l205.17,51.66-22.33-119.39Zm-500.62-6.5,48.87,56.93-20.33-43.8-.13.17a2.87,2.87,0,0,1-3.64.68Zm925.94-.56,5.38,56.13,90.67-31.62Zm-912.78,38.88,24.14,13.95-100.58-117.16,39.4,81.79,36.26,21A3,3,0,0,1,2047.49,2564.3Zm1764.1,5.38,1.89.51L3987,2430.37l-210.77-65.59Zm-105-28.08,98.84,26.45-16.22-94Zm-867.94-47.21,8,56.59,92.48-30.93Zm-96.28,31,98.4,24.77-8-56.59ZM3594,2511.45l103.76,27.77-17.75-99Zm91.71-72.07L3703.2,2537l81.56-66.64Zm221.16,62.94,104.4,32.62.31.11L3898.7,1732.93l-103.48,90.21,112,32.46a2.88,2.88,0,0,1,1,5L3813,1938.16l113.92,34a2.87,2.87,0,0,1,1,5l-94.4,78,111.1,32.47a2.85,2.85,0,0,1,2,2.2,2.9,2.9,0,0,1-1,2.81l-95.73,75.8,110.12,34a2.87,2.87,0,0,1,1,5l-91.17,75.54,106.09,32.87a2.88,2.88,0,0,1,1,5l-89,72.75,106,33a2.87,2.87,0,0,1,.95,5Zm-1898-29.43,50.62,59-20.77-44.72a2.87,2.87,0,0,1-3.28.36Zm502.36.19,15.44,56.33,84.27-31.22Zm-487.43,40.36,23.86,13.47-39-45.47ZM1959.62,2484l36.61,42.64-14.54-30.19ZM2723.69,2465l10.67,57.08,89.49-31.51Zm420.2-74.05L3589,2510.1v0l-19.69-105.94L3485,2475a2.88,2.88,0,0,1-4.68-1.65l-19.77-102.76-83.15,70.87a2.89,2.89,0,0,1-4.69-1.63l-42.08-211.61L3246,2302l102.84,32.13a2.88,2.88,0,0,1,1.95,2.1,2.91,2.91,0,0,1-.85,2.75l-85.45,79.6a2.87,2.87,0,0,1-4.78-1.55l-21.15-108.54Zm-943.79,63.1,21.78,54.8,74.39-30.58Zm-77.27,30.64,92.52,23.3-21.5-54.08Zm1390.25-414.18,80.62,433.68,359.54-297.88Zm-1542.31,381.4,39.13,45.58L1994.47,2465Zm638.08-16.22,13.46,58.27,87.64-32.47Zm-91,33.09,98.51,24.81-13.39-58Zm-568.8,2.58,21.72,12.25-36.54-42.56Zm33.81-53.74,51.51,60-21.84-47a.91.91,0,0,1-.11.16,2.89,2.89,0,0,1-3.6.74Zm-49.31,13.81,38.47,44.81-15.51-32.19Zm-46.33-32,137.15,75.38-236.42-275.38Zm398.28,16.79,20.74,58,79.62-32.73Zm-191.07,5.31,205.36,51.71L2255,2348.12l-83.64,38.24a3,3,0,0,1-1.2.55Zm1371.84-51.87,18.81,97.74,79.68-67Zm-973.34,36.45,16.4,59.84,86.26-33.64Zm1194.66,27.82,100.17,31.3-17.26-100Zm-1888.21,20.43,15.41,9.11-27.51-32Zm98.24-42.65,36.82,42.88-15.15-31ZM1786,2421.18l27.94,32.54-12.25-23.46Zm590.37-44.8,19.33,61.06,84.24-34.62Zm-85.62,35.25,98.61,24.83-18.81-59.41Zm1045.39-185.1,41.24,207.33,167.19-142.48ZM1955.89,2361.38l53.26,62-22.79-49.09-.11.16a2.91,2.91,0,0,1-3.58.76Zm17.09,44.49,25,13.35-41.66-48.53Zm-198.44,2,16.55,9.57-84.83-98.81,38.38,71.93,29.17,16.88A2.7,2.7,0,0,1,1774.54,2407.9ZM3244.2,2307.44l20.14,103.37,78-72.7Zm-983.56,39.4,22.17,62,81.79-35.45Zm-500.27,26,29,33.79L1776.49,2382ZM3468,2364.2l99.62,31.12L3549,2295.17Zm309.73-5,101.38,31.54-16.87-101.57Zm-1860.33-17.8,41.72,48.6-16.95-35.76Zm1950.53-53.09,16.67,100.41,84.51-69.06Zm-858,66.79,124.18,33.24-22.44-129ZM4080.48,2369l81.1,19.15-25.43-176.26Zm-966.86-118.27a2.79,2.79,0,0,1,.9.15,2.86,2.86,0,0,1,1.93,2.23L3139.73,2387l189.95-165.6a3,3,0,0,1,.78-1.17,3,3,0,0,1,1.33-.67l85.07-74.16a2.87,2.87,0,0,1,1-2.09,2.81,2.81,0,0,1,2.25-.71l86.53-75.44,0-.21a2.87,2.87,0,0,1,.92-2.67,2.84,2.84,0,0,1,2.76-.61l.27.09,87.83-76.57,0-.22a2.89,2.89,0,0,1,.93-2.66,2.82,2.82,0,0,1,2.75-.59l.25.07,88.78-77.4-.05-.27a2.89,2.89,0,0,1,3.66-3.25l.32.09,89.2-77.76-.17-1a2.89,2.89,0,0,1,.93-2.63,3,3,0,0,1,2.71-.61l1,.31,104-90.68-127.35-38.76-.19.15a2.91,2.91,0,0,1-2.85.33,2.87,2.87,0,0,1-1.65-1.91l-94.75-28.83h0L3414,1583.89l-2.7,2.26a2.88,2.88,0,0,1-4.68-1.73l-.5-3-108.31-33.39-1.51,1.26a2.82,2.82,0,0,1-2.84.5,2.87,2.87,0,0,1-1.84-2.23l-.25-1.52-461.44-142.26-.43.4,156.24,830.48a2.89,2.89,0,0,1,.84,4.47l20.78,110.51,104.27-98.18A2.89,2.89,0,0,1,3113.62,2250.71ZM1835.4,2339.28l36.75,42.81-15.65-31.53Zm310.87-21.64,24.84,62.51,78.82-36.05Zm-80.11,37.44,98.68,24.85-24.17-60.8Zm-316.41,5.18,16.26,9.19-29.63-34.52Zm179-56.26,54.24,63.17-23.49-50.59-.13.18a2.87,2.87,0,0,1-3.56.8Zm-20.8,26.09,64.16,33.24-109.7-127.78Zm-174-6.8,30.34,35.34-13.66-26.16Zm1162.09,1.36,106.1,28.39-20.54-109.17Zm-1192.71-18.2,29.84,34.75-13.65-25.84Zm122.09,21,20.67,11-36.52-42.55Zm-136-1.12,14.7,8.3-27.49-32Zm118.59-41,38.14,44.43-16.48-33.2Zm-134.68,4.64,29.28,34.11-13.6-25.47Zm1187.81-82,28.4,115,89.16-84.17Zm-91.83,82.79,113.89,30.48L2855.47,2209Zm-1135.48-29.09,107.5,59.15L1535.45,2081Zm218.44,3.94,41.63,48.51-17.54-36.43Zm-78.43,2,36.33,42.32-16-31.78Zm124.49-25.5,58,67.53L1932.79,2259Zm-191.45,29.75,30.9,36-14.1-27Zm212.7,21.12,26.07,13.07-44.37-51.68Zm795.92-240.87,48.25,236,187.94-178.32Zm-69.2,205.73,111.49,29.84-23.25-113.7Zm800.08-3,100.95,31.41-19-102.23Zm-1682.09,1.35,55.51,28.76-100.56-117.13Zm94.87-33.28,46.55,54.23-18.8-39.67a2.65,2.65,0,0,1-.27-1.09Zm78.27,31.7,70.57,21.71,27.15-70.59-.57-.63-59.86-48.44L1921,2178.09Zm-157.3-24.68,39,45.48-17.12-34.49Zm2279,34.7,41.41,10.69-12.86-84.57ZM1697,2260l17.1,9.14L1682.18,2232Zm146.11-5.46,23.74,11.9-41.65-48.51Zm-22.17-50.41,45.69,53.22-18.82-39.07a2.65,2.65,0,0,1-.28-1.12Zm-141.78,15.5,32.21,37.5-14.9-28.53Zm849.28,6.62,108.39,29-24-109.68Zm90.09-81.72,23.84,109.13,84.86-80.65Zm720.08,76.73,98.75,30.73-19.25-100Zm84.9-71.66,19.38,100.67,80.63-69.69Zm-1775.1,54.07,32.07,37.35-15.06-28.53Zm64.16-7.5,36.25,42.22-16.47-32.3ZM1784,2186l44.57,51.91-18.43-37.69a2.76,2.76,0,0,1-.28-1.56Zm1078.49,16.29L2979.58,2233,2957,2112.69Zm-1091.6,16.48,21.6,10.83-39-45.44Zm640.4-23.92,107.48,28.77-18.54-114.51a2.74,2.74,0,0,1-.82,1.47Zm39.32-428.23,73.75,455.5,377.71-360.88ZM1747.09,2168l44.5,51.83-19-38.39a2.84,2.84,0,0,1-.3-1.12Zm-108.24,24.29,48.35,25.09-92.39-107.62Zm2408.57-35.76,167.92,48.72-25-190.62a2.84,2.84,0,0,1-.25-1.93L4163.6,1810.4l-25.24,75.18.16,1.1a2.9,2.9,0,0,1-1.15,2.71,3.17,3.17,0,0,1-.36.23l-27.25,81.17,0,.14a2.88,2.88,0,0,1-.93,2.56l-33.23,99a2.72,2.72,0,0,1-.41,1.24Zm-2396.27,10,32.81,38.23-15.38-29.48Zm-72.85,30.37,14,7.49-27.48-32Zm134-45.94,43.33,50.47-17.93-35.64a2.85,2.85,0,0,1-.07-2.42Zm-9.17,34.1,19.65,9.85-36.51-42.53Zm598.59-19.45,104.41,27.94-20.74-108.4Zm-741.2-7,29,33.76-14.2-26.1ZM2391,2083.67l19.84,103.67L2491.7,2110Zm-712.62,50.63L1721,2184l-17.84-35a2.87,2.87,0,0,1,0-2.54Zm1748.18,10.23,100.19,31-18.94-101.87Zm-1836.45-8.7,32,37.24-15.44-28.94ZM1977.59,2151l70.54,21.71,21.61-64.81-55.07-66.09-59,26.84Zm642.19-12.12,113.7,29.78-23.68-115.79Zm-974.14-20.67,41.63,48.49-17.33-33.58a2.85,2.85,0,0,1,.17-2.92ZM3738.22,2134l102.91,31.75L3824.07,2063ZM1641.83,2155.4l17.9,9-34.16-39.79Zm2187.56-95.47,17.23,103.78,91.08-72.12Zm-1634.25,77.12,95.72,25.62L2278.15,2057Zm75-195.15,26.55,220.65,177.64-170.83ZM1523.3,2132.77l42.14,21.87-84.8-98.78Zm91.37-29.7,41.39,48.22-16.23-31.1a2.87,2.87,0,0,1,.94-3.71,2.8,2.8,0,0,1,.62-.32Zm-274.4-216,630.67,261.36-21.12-79.21-599.18-234Zm192,220.15,29.77,34.67-14.79-27.15Zm51.31-19.37,41.67,48.55-16.76-31.76a2.87,2.87,0,0,1,.92-3.72,2.48,2.48,0,0,1,.38-.22Zm495.09,18,107.46,28.76-11.8-110.05a2.89,2.89,0,0,1,3.59-3.09l99,25.91-13.11-109a2.88,2.88,0,0,1,3.54-3.14L2368,1959.86l-14.49-108.33a2.87,2.87,0,0,1,3.49-3.18l104.87,23.77-17.48-108Zm-497.9,18.83,16.24,8.16-31.84-37.1Zm599.72-96.59,11.17,104.23,82.65-79.68Zm1445.64,71.28,103.69,32-18.27-105.81Zm589.19,19.19,32.08,12.11-9.91-81.15Zm-517.95-208.92L3735.28,2129l87.7-72.51v-.08a2.87,2.87,0,0,1,.92-2.62,2.91,2.91,0,0,1,2.72-.61l.27.08,93.26-77.1-112.53-33.57a2.9,2.9,0,0,1-2.49.22,2.86,2.86,0,0,1-1.57-1.43ZM1553.2,2073l40.9,47.64-16.65-31.21a2.87,2.87,0,0,1,.91-3.72,2.5,2.5,0,0,1,.35-.21Zm2643.4-55,13.06,99.64,26.41-82.25a3,3,0,0,1,.31-.65Zm-1803.92,60.22,105.45,27.6a2.86,2.86,0,0,1,1.75,1.32l-18.49-114.22Zm-868.91-19.63,39.88,46.46-16.14-29.94a2.88,2.88,0,0,1,.9-3.74,3,3,0,0,1,.72-.35Zm1313.61,17.38,118.07,28.84-22.55-119.89ZM1523,2096.11l14.71,7.38-29.6-34.48Zm496.44-57.54,53.81,64.58,644.52-602.36-.2-1a2.88,2.88,0,0,1,3.28-3.38l1.41.23,101-94.43-.41-2.14a2.87,2.87,0,0,1,3.68-3.28l1.9.58,780.64-729.57a2.87,2.87,0,0,1,4.74,1.34l34.44,127.16,36.29-150.32-63.77,26.57a2.9,2.9,0,0,1-3.14-.62l-67-67-103.68,97.08a3,3,0,0,1-.49.75,2.84,2.84,0,0,1-1.15.78L2665.2,1433.9l.08.6a2.91,2.91,0,0,1-.89,2.49,2.87,2.87,0,0,1-2.54.71l-.58-.12-97.12,90.94a3,3,0,0,1-.55.69,2.91,2.91,0,0,1-.69.47ZM3517,2065.72l101,31.18-18.49-103.15Zm87.82-75.16,18.59,103.67L3707,2022Zm-2110.57,53.49.18.19,39.66,46.21-16.66-30.6a2.88,2.88,0,0,1,.89-3.74l.24-.15Zm-27.93-13.69c.11.11.22.21.32.33l38.5,44.84-15.41-28a2.88,2.88,0,0,1,.88-3.75,3,3,0,0,1,2-.48Zm2.08,38.47,13.3,6.68-27.46-32Zm1248.23-22.41,112.2,27.4L2807,1960.07Zm96-87.78,21.58,112.43,91.12-86.87ZM4031,2053.34l38.22,14.43-13.81-90.88ZM1731.09,447.11l223.45,1615.75,57.78-26.26-16.5-113.86a2.89,2.89,0,0,1-.48-3.31l-217.89-1504ZM1885.77,2038l62.93,24.58L1774.52,803.14a2.82,2.82,0,0,1-.12.8L1745,904l36.6-12.68a2.87,2.87,0,0,1,3.7,3.54l-29.19,97.44,37.85-10.77a2.89,2.89,0,0,1,2.84.75,2.86,2.86,0,0,1,.7,2.85l-30,98.57,38.56-8.54a2.87,2.87,0,0,1,3.36,3.66L1778.85,1177l41.35-6.54a2.85,2.85,0,0,1,2.63,1,2.89,2.89,0,0,1,.56,2.75L1793.1,1270l41.12-3.92a2.81,2.81,0,0,1,2.51,1.06,2.87,2.87,0,0,1,.49,2.68l-32,99.18,42.55-1.29a2.7,2.7,0,0,1,2.39,1.15,2.89,2.89,0,0,1,.43,2.62l-33,100.19,44.16,1.61a2.88,2.88,0,0,1,2.62,3.79l-33.62,99.75,46.43,4.82a2.88,2.88,0,0,1,2.42,3.8l-35.49,103,47,8.18a2.86,2.86,0,0,1,2,1.37,2.91,2.91,0,0,1,.23,2.41L1858,1800.25l48.65,11.83a2.92,2.92,0,0,1,1.85,1.44,2.86,2.86,0,0,1,.17,2.34l-36.35,100.5,49.61,15.57a2.9,2.9,0,0,1,1.72,1.48,2.83,2.83,0,0,1,.11,2.26l-37.87,102.07C1885.86,2037.84,1885.82,2037.94,1885.77,2038Zm2170.59-76.6h.23a2.86,2.86,0,0,1,2.61,2.43l14.59,96,29.11-86.69L4014.3,1947a2.84,2.84,0,0,1-1.72-1.39,2.89,2.89,0,0,1-.21-2.21l29.81-96.43L3996.09,1831a2.88,2.88,0,0,1-1.82-3.54l29.41-98-46.86-21.17,47.9,345.71,28.9-90.55A2.88,2.88,0,0,1,4056.36,1961.44Zm140.1,50.2,72,30.29-21.59-187.43Zm-2361,6.74,44.79,17.49-13-105.28L1835.57,2018C1835.52,2018.14,1835.47,2018.26,1835.41,2018.38ZM2002,1924.93l15.58,107.53,257.27-240.89a2.87,2.87,0,0,1-1.2-.06L2173.11,1765l14.15,105.36a2.86,2.86,0,0,1-1,2.55,2.89,2.89,0,0,1-2.66.6l-97.95-27.24,13.84,103a2.87,2.87,0,0,1-1,2.56,2.9,2.9,0,0,1-2.68.58Zm-130-2.67,12.66,102.43,32.72-88.18Zm1736.75,63.49,101.4,31.15L3692.16,1913Zm-1820.86,14,42,16.41-11.95-101.71Zm21.76-205.4,24.7,210.22,31.4-86.82a2.76,2.76,0,0,1,.42-1.16l36.06-99.72Zm2373.14,117.75,11.48,87.65,23-71.61Zm-2439.95,70.06,39.24,15.32-10.88-97.64Zm633.9-20.22,103.8,25.32-17.56-108.47Zm-600.61-69.82,10.47,94,28.8-81.67Zm-75.84,73.43,36.49,14.24-9.89-93.31Zm1114-12.48,117.51,26.66.2,0-22.19-118ZM1720.53,1772.51l20.81,196.24,60.79-176.42Zm2298.19,169.78,84.71,25-14.77-99.81a2.83,2.83,0,0,1-.21-1.35l-14.95-101Zm-2358.24,7.78,33.78,13.19-8.91-88.73ZM4095,1871.33l12.87,86.92,23.5-70Zm168.78,72.22,31.27,14.56-9.07-83.66Zm-1904.08-88.68,13.68,102.3,83.3-80.32Zm-669.54,10.35,8.68,86.42,25.47-75.71ZM1623,1935.45l31.51,12.3-8.11-84.92Zm380.54-16,89.68,26.2-13.07-97.15Zm-361.79-165.83,17.38,182.1L1713.37,1771Zm2059.68,151.29,100.92,30.1-17.13-103.14Zm88.93-77.15,17.77,107,92.2-75.12Zm-2203.3,93.68,29.82,11.64-7.46-82.33ZM4183,1905.91l34.09,15.87-10.81-88.56Zm-2568.58-64.48,7.22,79.71,22.66-70.34Zm-60.62,67,27.36,10.68-6.7-77.41Zm432.8-89.71,13.87,95.8,76.35-70.71Zm-407.63,8.39,6.87,79.36,107.2-339-.14-1.42a2.86,2.86,0,0,1,.82-2.34,2.72,2.72,0,0,1,.67-.5l29-91.82a2.94,2.94,0,0,1,.62-1.93l30.23-95.61,0-.16a2.9,2.9,0,0,1,.68-2.22l.14-.15L1786.1,1273a2.92,2.92,0,0,1,.39-1.22l30-94.94-160.1,25.31a2.71,2.71,0,0,1-1.66.35,1.54,1.54,0,0,1-.3,0l-127.81,20.2L1533,1296l0,.06a2.83,2.83,0,0,1,.56,2.61l-.28,1,6.77,78.33a.52.52,0,0,0,.1.11,2.91,2.91,0,0,1,.5,2.56l-.28,1,7,81.09a.94.94,0,0,1,.09.12,2.89,2.89,0,0,1,.44,2.48l-.23.8,7.12,82.31a2.65,2.65,0,0,1,.86.84,2.87,2.87,0,0,1,.38,2.4l-.74,2.53,7.45,86.19,0,0a2.88,2.88,0,0,1,.31,2.33l-.1.31,7.6,87.84a2.34,2.34,0,0,1,.29.41,2.87,2.87,0,0,1,.25,2.26l-.23.79,7.86,90.87A2.84,2.84,0,0,1,1578.93,1827.08Zm-57.1,68.85,25.7,10-6.1-74.54Zm254.08-9.84,40.15,12.6-11.31-96.3Zm-229.63-66,6,73.63,20.25-65.39Zm-55,63.93,24.37,9.51-5.62-72.35Zm2603.56-19.11,37.27,17.35-12.83-93.92ZM1462,1872.56l23,9-5.14-69.72Zm46-151.48,12.42,159.73,19.79-65.12a3,3,0,0,1,.28-.92l24.28-79.89Zm182.38,138.17,34.72,10.9-9.33-88.05ZM1434,1861.64l21.51,8.4-4.69-66.81Zm50.74-60.86,5,68.11,18.15-60.84Zm504.7,12.75L2181,1866.8l-27.93-207.94Zm2039.71-87.92,300.11,135.54-51.71-487.87-1.38-.8a2.86,2.86,0,0,1-1.3-3.37l1.69-5.21-34.66-327-91.79,233.44.07.66a2.89,2.89,0,0,1-1.32,2.77l-.13.07-131.6,334.64.46,3.4a2.86,2.86,0,0,1-3.07,3.25l-34.69,88.22,47.62,21.51A2.92,2.92,0,0,1,4029.17,1725.61ZM1407.6,1851.33l20,7.81-4.22-63.59Zm42.25-144.57,10.56,150.75L1501,1719.18ZM2790,1831.92l118.56,24.85.23,0-84.27-448-95.12,88.9,104.6,16.86a2.88,2.88,0,0,1,1.54,4.91l-88.41,85.24L2858,1624.38a2.87,2.87,0,0,1,1.49,4.9l-90.94,87.46,112.42,21.7a2.87,2.87,0,0,1,1.45,4.9Zm1287.62-78.11,14.77,99.76,25.25-79.11a2.89,2.89,0,0,1,1.7-1.81Zm-2695.18,87.7,18.78,7.33-3.83-60.95Zm45.88-58.42,4.18,63,16.29-56.58Zm186,52.29,30.42,9.54L1637,1763.7Zm2386.27-8.91,40.88,14.13-15.17-99.82ZM1397.28,1694.18l8.87,141.15,36.86-130Zm2633.58,38.51,15.38,101.13,25.5-82.48.06-.16ZM2674,1807.61l107.34,22.5L2761,1724Zm92.5-85.4,20.13,105,87.75-84.15Zm-1389.05,44.94,3.47,58.34,14.68-52.65Zm169.2,47,26.07,8.18-6.33-73.14Zm424.37-102.49,14.19,97.92,77.88-73.63ZM2561.3,1784l104.46,21.9-18.52-104.76Zm72.22-193.46,37.49,212,180.4-173.48-110.13-19.49a2.85,2.85,0,0,1-1.16-.11,2.54,2.54,0,0,1-.38-.16ZM1484.8,1794.77l23.74,7.45-5.43-69.89Zm324.74-6.3,41.49,10.09-11.91-95.94Zm34.33-94.24,11.83,95.29,31-87.84ZM2262.92,1682l14.26,106.33a2.8,2.8,0,0,1,0,1l87.54-82ZM1764,1777.15l38.89,9.45L1792,1694.08Zm412.12-17.32,94.83,25-13.47-100.36Zm-747.47,17.32,20.86,6.54-4.51-64.26Zm1019.84-16.82,104.72,22-16.87-104Zm93.71-81.86,16.26,100.29,84-81Zm1793.74,86.77,26.45,12.91-7.54-71.05ZM1784,1577.74l23.46,199L1872.9,1587Zm-63.21,188.92,36.15,8.78-9.89-88.47Zm31.07-88.44,9.8,87.69,27.36-81.22Zm-71.54,78.83,33.63,8.18-9-84.62Zm478.11-101.11,13.42,100,82.17-76.08ZM1642,1747.73l31.51,7.66-8.2-81.36ZM1699,1568.92l19.71,185.93L1777.25,1577ZM1670.09,1664l8.15,80.87,24.27-75.24Zm305.27,42.87,89.35,23.57-13.07-97.2Zm81.73-76.23,13.24,98.5,79.66-75.31Zm-517.85,92.12,25.43,6.17-6.13-70.81Zm2231.82-35.23,126.68,38.56-87.94-625a2.86,2.86,0,0,1-1.06,1.72l-116.23,90,15.79,4.9a2.83,2.83,0,0,1,1.85,1.75l113.15,35.07a2.88,2.88,0,0,1,2,2.18,2.91,2.91,0,0,1-1,2.77l-205.83,172.73a3.21,3.21,0,0,1,1.11.11l110.41,33-13.91-113a2.87,2.87,0,0,1,3.62-3.12l122.91,34a2.87,2.87,0,0,1,1,5.05l-104,79.93,118.87,35.57a2.88,2.88,0,0,1,.94,5l-102.95,79.93,117.79,36.25a2.89,2.89,0,0,1,.87,5.06Zm-2262.92,27.66,24.39,5.93-5.71-69.63Zm-29.59-7.38,23.07,5.6-5.25-67.4Zm53.09-67.89,5.67,69.19,19.36-64.83Zm-81.44,61,21.62,5.25-4.78-64.64Zm505.44-95.61,14.31,98.77,78.37-75.64Zm400.73-11.69,14.47,108,89.32-83.63Zm-397.26,6.62L2365,1701.59l-59.36-442.83Zm-464.64-52.52,11.93,153,43.11-147,0-.25Zm2831.17,120.32,60.43,32.06-16.7-166.67Zm-2902.32,26.54,20.26,4.92-4.34-62Zm2487.57-462.12,64.6,466.24,33.67-85.61-46.53-18.7a2.88,2.88,0,0,1-1.59-3.74l36.09-90.09a2.89,2.89,0,0,1,2.64-1.81l-53.23-24.42a2.87,2.87,0,0,1-1.45-3.74l37.12-87.25-52.2-27a2.86,2.86,0,0,1-1.3-3.74l37.48-82.83a2.88,2.88,0,0,1,5.47.79l14.66,103.07,31.42-73.85a2.88,2.88,0,0,1,5.5.75l13,97.4,30.31-70.51a2.82,2.82,0,0,1,3-1.71,2.89,2.89,0,0,1,2.46,2.47l12.38,93.42,58.8-149.53-41.86-26.53,11.83,97.71a2.87,2.87,0,0,1-4.29,2.83Zm-2439,397.07,4.73,64.08,17.37-60.24Zm1070.38,43.1,103.43,19.95L2628,1592.51Zm-1104-130.73,10.11,144.25L1487.86,1547ZM3752,1573.49l13.65,110.89,101.49-75.46ZM3667.56,1656l92.27,28.08-13.24-107.6-95.76,74.36ZM1417.62,1620.1l4,59.37,15.61-56Zm334.27,52.28,38.29,6.67-10.67-90.5Zm-81.56-14.18,32.91,5.73-8.72-82.23Zm1863.26-43.47,109.73,33.84L3630.19,1537l-95,77.15A2.83,2.83,0,0,1,3533.59,1614.73Zm88.53-195.57,26.6,226.08,97.05-75.36v-.09a2.86,2.86,0,0,1,1-2.56,2.8,2.8,0,0,1,2.69-.54l.3.09,101.73-79L3733,1452.32a2.69,2.69,0,0,1-.67-.19l-.09,0Zm-2090.21,215,24.93,4.33-6-69Zm2857.63-16.39,25.77,14.8-6.88-72.87Zm-2917.45,6,22.85,4-5.17-66.31Zm1947.16-44.25,112.27,34.62a2.87,2.87,0,0,1-1-1.91L3517.54,1497Zm-967.62-73.71,14.31,106.83,89.61-83.91Zm-92,82.72,100.46,23.59-13.9-103.76Zm1607.83,1.64,43.81,17.62-12.83-94.92ZM3523.67,1500l11.94,106.28,90.3-73.3ZM2636,1585.11,2737.36,1603,2719,1507.46Zm88-82.28,18.83,98.14,84.6-81.59-103.32-16.66Zm-784.24-7.22,14.66,101.2,80-78.81-93.79-22A3.13,3.13,0,0,1,1939.75,1495.61ZM4002,1499.79a2.82,2.82,0,0,1,.65,1.46l12.92,95.53,30.24-76.9Zm328.59.74a1.62,1.62,0,0,1,.31,0,2.87,2.87,0,0,1,2.56,2.55l9.78,92.17,24.89-76.62a3,3,0,0,1,3-2l-72.9-45.12a2.86,2.86,0,0,1-1.22-3.33l23-71a3.19,3.19,0,0,1-1.48-.38l-34.79-20,20.9,197.26,23.23-71.56A2.87,2.87,0,0,1,4330.59,1500.53Zm-21.23,77.62,28,16.07-8.19-77.09Zm-1968-96.7,13.85,103.31,87.42-81ZM3411.22,1577l1.49.46,403.85-338.93-111-34.4a2.87,2.87,0,0,1-1.85-1.76l-137.44-42.59-5.19,4.5a2.87,2.87,0,0,1-4.75-1.88l-.59-5.88-341.22-105.75,59.93,359,1.4.39a2.87,2.87,0,0,1,1.19,4.87l-1.48,1.39,20.95,125.19,91.58-76.84a2.87,2.87,0,0,1,2.84-.5,2.9,2.9,0,0,1,1.84,2.22Zm-1626.82-5,39.26,4.07-11.13-89.37Zm1518.66-28.34,102,31.45-17.14-102.67ZM1741,1567.5l36.59,3.79-10.15-85.71Zm-40.67-4.22,33.75,3.5-9.13-81.35Zm116.83-85.9,11,88.68,29.39-87.21Zm-56.88-101.3,21.83,184.49,61.67-187Zm-30.8,98.11,9.18,81.85,26-80.57Zm2573.66-6.34,130.67,80.87-33.7-379.89Zm-2778.21,77.26,24,2.48-5.71-66Zm-30-3.12,23.29,2.42-5.4-65.48Zm-28.5-3,21.87,2.27-4.92-63Zm1713.67-33.29,110.24,34-19.79-118.57Zm-1662.53-39.28,5.35,65,18.49-64.11Zm2004.28,26.93L3629.14,1528l-13.24-112.53a2.76,2.76,0,0,1,.08-1.11Zm-2040-108.89L1493,1527.7l41.08-144.77ZM1460,1464.37l4.47,60.28,16.62-59.51Zm884.47,11.88,213.8,47.15-29.61-221.34Zm205-61.7L2563.74,1521l90.64-84.86Zm1402,55.73,94.45,43.33-27-201.88Zm-2004.54,21.27,89,20.91-13.07-97.25Zm81.36-79.14,13.25,98.54,79.29-78.13Zm2009.87-.17,12.68,94.83,28.86-73.38ZM3060.76,1469l111.27,34.3-21-118.69Zm95.86-85.74,20.74,117.2,92-86.06ZM1924.3,1389l14.82,102.3.11-.12,80.26-80.68-93.72-20.67A2.92,2.92,0,0,1,1924.3,1389Zm2513.56,78.71,25.08,16.72-6.22-74.74Zm-2111.67-99.13,13.93,103.9,87.72-83Zm-595.86,99.92,35.25,1.28-9.71-82.06Zm1216.27-34.7,105.12,32.41L3034.1,1352Zm75-200.43,35.65,231,187.08-174.93ZM1518,1460.73l23.57.86-5.57-64.3ZM3722.31,1336l13.31,108.15,99.91-76.79Zm-1169.8,73.32,106.54,22L2644.7,1323.9Zm282.27-10L2937.63,1431l-15.07-113.75Zm93.92-79.47,14.47,109.27,86.94-81.27Zm-996.64,65.47,190.08,41.93-28-208.17-80.93,83a2.85,2.85,0,0,1-.53.67,2.35,2.35,0,0,1-.47.36ZM4039,1406.19l40.37,20.84-11.63-87.7ZM2649.72,1318l14.54,108.88,94-88Zm-535.53,6.83L2127.78,1426l82.53-81.33Zm1044.14,52.88,110,30.38-19.24-115.26Zm-624.73-82h0l14.67,109.66,95.54-88.49Zm1890,63.57,57.5,41-13.69-175.84Zm-120.32-71.23h.21a2.87,2.87,0,0,1,2.62,2.41l16.16,99.9,25.34-78.15-76-50,9.35,88.26,19.57-60.4A2.89,2.89,0,0,1,4303.24,1288.06Zm-20.26,81.7,33.18,19.1-13.86-85.71-19.88,61.36ZM1892.91,1172.33l30.91,213.35a2.85,2.85,0,0,1,.51-.7l80.6-82.65-92.48-19a2.87,2.87,0,0,1-2.17-2,2.9,2.9,0,0,1,.67-2.85l82.7-86.45-99.47-19.1A3,3,0,0,1,1892.91,1172.33Zm437,191.1L2430,1384.05l-13.9-103.83Zm91.16-89.32,14.48,108.1,92.57-87.55Zm-892.15,41.38-17.43,62.37,22.76-.69Zm2406.17,37,45.81,23.66-13.52-95Zm-2147.31-65.7-26.39,83.47,36.69-1.12Zm-283.55,16.52,5,61.07,17.68-63.24Zm806.49-50.44,14.36,107.18,90.22-87.09Zm-518.51,22.93,10.33,82.66,27.89-86.31Zm2622.25-10.66,7.22,81.36,19.75-60.81Zm-1487.67,48.14,105.88,29.23-17.29-112Zm-809.34,6.33,94.11,19.39-13.48-100.45ZM3911.23,1226l195.58,112.26-25.49-210.56a2.85,2.85,0,0,1-.45-2.88l.07-.2-27.27-225.33ZM2203,1232.23l14.17,105.66,87.43-86.15Zm-302.38-63.93,858.57,164.89-23.67-106.52a2.55,2.55,0,0,1-.4-.83,2.88,2.88,0,0,1-.08-1.3l-67.18-302.3a2.89,2.89,0,0,1-1.57-1.73,2.86,2.86,0,0,1,.57-2.79l-92.46-416.09Zm841.23,60.36,23.1,104,273-255.6a2.88,2.88,0,0,1-2.33.67L2922.12,1060l22.15,100.91a2.88,2.88,0,0,1-3.29,3.45l-110.73-18.59,21.67,98.64a2.86,2.86,0,0,1-3.31,3.44Zm1738.44,79.47,24.4,18.59-5.55-76.53Zm-2381.24-95.86,0,.17L2113,1316l84.36-84.81Zm2176.68,45.78,71.39,47-19.6-195.61Zm67.76-46.91,8.7,86.82,20.85-64.31ZM1918.69,1278.7l88.68,18.27-13.08-97.29Zm80.51-85.61,13.61,101.16,81-83ZM3135.1,1256l112.59,28.35-18.37-110Zm1279.63,2.19,26.51,20.19-6.74-81.09ZM4106.38,1242l37.41,23.71L4133.2,1175Zm28.37-81.38.37,0a2.88,2.88,0,0,1,2.48,2.52l11.11,95.11,29-73.78a2.74,2.74,0,0,1-1.16-.38l-89-52.43,13.18,108.88,31.32-78.14A2.87,2.87,0,0,1,4134.75,1160.57Zm124.47-15,11.57,109.22,28.46-81.64a3.45,3.45,0,0,1-.5.35,2.89,2.89,0,0,1-3.15-.21Zm-1239.91,81.27,106.5,26.82L3115.12,1143a2.88,2.88,0,0,1,3.52-3.07l109.17,25.34L3208.56,1050Zm101.92-80.4,10.16,105.16,93.54-81.09Zm-377.18,76.78,101.33,18.23-20.52-93.4ZM4343.64,1204l28.88,22-8.13-86.07ZM2719.3,1127.16l20.48,92.17,80.81-75.17Zm1174-21.68,15.48,111.78,36.68-84.12-.12-.06Zm-2317.36,38.66-19,67.93,25.16-4Zm33.23-7.83L1589.08,1207l26.83-4.24Zm35.23-8.73L1623,1201.63l28.83-4.56ZM1548.8,1138l5.65,61.65,18.74-67.06Zm133-19.2-22.68,77.1,30.82-4.87Zm-109.1-68.35,13.91,144.24,45.82-161.24Zm1998.7,104.88,112.54,34.88L3672,1068Zm-1957.72-31.7,6.73,66.33,20.93-72.46ZM1721,1110l-23.91,79.9,32.77-5.18Zm1956.88-41.24,11.6,119.19,111.16-86.12Zm-2038-37.63L1656.33,1185l50.89-173ZM1762,1101.44l-25,82.18,34.64-5.48Zm-75.71,6.12,8,71.46,23.47-78.45Zm2400.82,17.12,87.23,51.41-13.73-98.68-2.14-1.61a2.88,2.88,0,0,1-.95-3.37l1.78-4.43-12.89-92.66ZM1714.91,1010l19.33,162.83,26.08-85.55a2.9,2.9,0,0,1,.31-1l29.8-97.76Zm162.19,53.16,15.25,105.32a3.54,3.54,0,0,1,.35-.42l510.71-505.32-98.24-10.55,15.19,88.7a2.89,2.89,0,0,1-.74,2.46,2.81,2.81,0,0,1-2.42.88l-97.83-11.09,15.17,92a2.87,2.87,0,0,1-3.17,3.32l-98.51-11.78,14.21,89.62a2.88,2.88,0,0,1-.78,2.45,2.84,2.84,0,0,1-2.42.85l-96.48-12.12,13.79,90.61a2.83,2.83,0,0,1-.79,2.44,2.78,2.78,0,0,1-2.42.84l-91.78-12.09a2.86,2.86,0,0,1,.9,1.7l13.71,93.86a2.87,2.87,0,0,1-.81,2.44,2.8,2.8,0,0,1-2.43.82l-98.4-13.57A2.82,2.82,0,0,1,1877.1,1063.15Zm-110.74,26.67,9.62,77,26.4-85Zm2495.92,50.85,31.5,24-9.7-91.41ZM2721.9,1121.76,2937.74,1158l-43.8-199.54Zm839.2,30.4,3.82,1.19,213.54-185.44-119-33-2,1.65a2.87,2.87,0,0,1-4.68-2l-.12-1.53-113.88-31.55-.09.09a2.89,2.89,0,0,1-4.59-1.23,2.8,2.8,0,0,1-2.13.16l-113.2-35.41,12.37,124a2.89,2.89,0,0,1,.42,4.21l11.75,117.81,100-90.72a2.87,2.87,0,0,1,4.79,1.84ZM3446,1116.49l109.13,33.83L3543,1028.54Zm486.64-97.9a2.71,2.71,0,0,1,.41,1.09l15.78,105.73,33.77-77.47a3.49,3.49,0,0,1-.39-.19ZM3895,1099.88l48,25.45-14.26-95.55Zm-1198.42-75,20.73,93.31,81.52-77.38Zm-1061.14,19-21,73.72,28.17-6.25Zm1694.45,36.65L3437.81,1114l-11.57-116Zm743.16-68.92,12.33,101.88,28.32-71.32Zm-2362.59,9.72-23.6,80.23,32.28-7.15Zm1967.46,41.52,129.81,35a2.88,2.88,0,0,1,1.81,1.46l-36.18-257.08a3.11,3.11,0,0,1-.32.31L3665,930.5l120.19,33.3a2.87,2.87,0,0,1,1.12,4.94Zm685-12,50.14,48.34-25.75-27.86ZM4166,1074.25l32.34,24.31-9.63-88.44-23.48,58.6ZM3876.7,985.67l15,107.92,36-74.73a2.84,2.84,0,0,1,2.74-1.62Zm-662.47,59,107.85,33.43-11.74-120.64a2.88,2.88,0,0,1,3.68-3l111.15,32.79-12.55-125.83a2.87,2.87,0,0,1,3.72-3l115,36a3,3,0,0,1,1.92-.29l-15-129A2.87,2.87,0,0,1,3522,762l121.68,39.33-34.16-126.11Zm-197.7-72.26,22.33,101.83a2.87,2.87,0,0,1-.71,2.59l-.05,0L3132,989Zm299.95-11.27L3327.55,1075l96-82.24Zm-1430.61,98.5,88.69,12.22-12.36-84.59Zm1039.52-4.93,107,16.66-21.16-96.46ZM1863,965.65l13.8,95.27a2.86,2.86,0,0,1,.81-1.35l84.69-80.29a2.6,2.6,0,0,1,.64-.46Zm1036.22-10.09,21.08,96L3006.91,971Zm1072.75-20,14,104.75,31-71Zm-95.16,43.45L3980,1039.8l-29.91-224.22Zm-1177.05,40.52,100.8,15.69L2780,941.81Zm-1073-57.32-20.33,72.66,27.28-7.77Zm2446.72,42.43,39.08,29.37-11.14-95.37Zm-1288.1-65.47,20.8,94.69L2890,954.24Zm1314.38-131,226.8,219.12L4213.48,904ZM1662.38,949.05l-21.58,75.85,29.2-8.31Zm-65.08,12.2,6.32,62.15,19.94-71.26Zm1076.68-38,20.72,93.21,81.13-78.58Zm-973.77,12.09-22.9,79.2,31.27-8.91Zm-77.89-68,15.68,146.4,49.19-173Zm44.5,69.8,7.55,66.83,22.31-77.17Zm72.89-15.26-24.1,81.92,33.18-9.44Zm-45.31-84,18.45,155,54.35-184.79Zm172.89,122.57,187.64,24.72L2028,808Zm1247.35-81.17,22.91,104.5,95.1-89Zm-439.47,38.33,456.35,65.52-93.06-424.57Zm-931.1-7.19,9,71.91,25.08-83.71Zm2113.81-60.52L3874.53,970l36.11-80.49Zm113.88,78.4,44.35,33.34-13-103.19ZM1849.49,872.6l12.33,85.08,77.75-73.77Zm2329.19,23.6,57.3,55.47-28.13-31Zm-2488.48-45-22.63,79.57,30.83-10.68ZM3658.08,928.6l.08,0,106.93-87.08-114.5-31.76-.21.19a3.92,3.92,0,0,1-.32.25h0l0,0,0,0,0,0h0l0,0h0l0,0,0,0h0a3,3,0,0,1-.82.3Zm-114-31.6,108.14,30-8.87-115Zm-893.34-78.51,21,94.44,81.92-81ZM2051,892.11l89.84,11.28-13.29-83.85Zm2111.29,8.63L4165,903l-2.63-2.56A3.59,3.59,0,0,1,4162.24,900.74ZM3524.5,768.84l14.55,124.88,101.82-87.26Zm-309.71,17.62,22.71,103.7,95.74-89.64ZM2033.27,804.75l12.8,84.06,77.31-73.29ZM3118.2,873.91l113.1,14.82L3209.46,789ZM3859,843.53l50.54,38-15.12-111.87ZM1854.56,867.44l87.3,11-12-82.43ZM1935.19,793l12.2,83.47,76.76-72.83ZM3861.35,600.44l283.88,275.37-28.95-32a2.89,2.89,0,0,1-.62-.87l-39.76-44.06a3,3,0,0,1-.58-.8l-40-44.1a2.83,2.83,0,0,1-.75-1.23l-35.74-39.66a3.07,3.07,0,0,1-.48-.61l-36.2-40.11a2.78,2.78,0,0,1-.58-.79L3927.79,634a3.86,3.86,0,0,1-.38-.44l-33-36.71-171-144.57a2.89,2.89,0,0,1-.9-.6l-1.4-1.35-43.26-36.56a3.47,3.47,0,0,1-.43-.35l-.17-.17-43.49-36.75a3.41,3.41,0,0,1-.57-.43l-.43-.42-23.81-20.13ZM3091.08,771.78l21.76,99.27L3205,785.3ZM4113.9,861.37l10.67,8.69-10.23-9.94A2.73,2.73,0,0,1,4113.9,861.37ZM1836.25,781.19l12.19,84.13,77.32-73.43Zm-155.76-12.31-21.65,77.32,29.44-12.05Zm1975.19,36.34L3772,837.49a3.24,3.24,0,0,1,.76.33l-17.17-122ZM4064.4,821l19,15.47-18-17.45a2.88,2.88,0,0,1-.88,1.83ZM1648.71,773.29l7.07,62.48L1677,760Zm69.74-22.7-23,80.6L1727,818.31ZM2655,813.25l100.27,13.13-20.54-93.5Zm85-83.14,20.81,94.74,83.34-82.38Zm-900.17,45.72,388.41,46.43L2169,463Zm-164.58-99.32,17.22,144.31,51.43-180.65Zm84.23,38.71a2.82,2.82,0,0,1,1.86.69,2.87,2.87,0,0,1,.9,3l-27.9,96.4,36.21-14.83a2.89,2.89,0,0,1,3,.53,2.84,2.84,0,0,1,.84,1.35L1751.3,635.2a.64.64,0,0,1,0,.07l-27.44,96.38,34.43-16.16A2.89,2.89,0,0,1,1759.49,715.22Zm868.63,1.61,20.94,94.24L2730.5,729Zm-905.39,21.7,8.43,67.09,23.8-82.23Zm2293,42.82L4042,802.81l-24.74-24.08a2.88,2.88,0,0,1-.9,2.13A3,3,0,0,1,4015.68,781.35Zm-23.1-41.14,63.94,62.15-29.83-33.51Zm-302.31-93.44-36.88,152.79L3753.5,710ZM3094.51,766.39l240.13,28.51-46.47-212.37Zm223.11-76.19,22.69,103.7,97.15-91Zm-1494.85-2.05L1835,772.51l78-74.13Zm2140.52,50.53,35.6,29-32.67-31.83a2.86,2.86,0,0,1-.9,2A3.21,3.21,0,0,1,3963.29,738.68Zm65-10.52,38.12,36.76-17.87-19.68Zm-960.92-64.54,21.89,99.84,92.37-87.71Zm-844.32,64.13,91,10.32L2299.81,655ZM2632,711.5l213.56,25.35-43.85-199.76-85.15,87.51a2.54,2.54,0,0,1-.36.5,3.11,3.11,0,0,1-.66.55Zm197.83-73.12,21.34,97.2,86.73-85.72Zm975.9-28.08,150.82,122.86-40.31-39.33a2.87,2.87,0,0,1-4.88,2.17l-46-45a2.9,2.9,0,0,1-.91,2.28,2.87,2.87,0,0,1-4,0l-88-86.06a2.88,2.88,0,0,1,2-4.93h0l-37.78-36.9a2.87,2.87,0,0,1-.13-4,2.92,2.92,0,0,1,2-.94L3702.09,485a2.87,2.87,0,0,1,1.61-4.9l-36.54-35.6a2.87,2.87,0,0,1,1.6-4.9l-32.53-31.65a2.89,2.89,0,0,1-.12-4,2.83,2.83,0,0,1,1.4-.84l-32.64-31.73a2.87,2.87,0,0,1-.13-4,2.9,2.9,0,0,1,1.28-.82l-30.34-29.46a2.87,2.87,0,0,1-.13-4,2.83,2.83,0,0,1,1.11-.76L3549,305.49Zm-77.94-114.83L3963,724.65,3857.15,604.38ZM2204.24,641.33,2218,724.64l77.54-73.5Zm401.14-26.8,21,94.48,81.34-83.6Zm1087,26.21,66.11,66.11,70.15-21.59-27.13-70.53-77.1-22Zm-371.46,44,119.73,12.72L3418.1,594.35Zm102.13-94.69L3446,695l98.16-91.9Zm-1593.7,93,85.94,9.75-11.74-80.34Zm79.59-73.53,11.88,81.34L1996.49,619Zm-99.1-10.64,12.07,83.31,77.46-73.69Zm1482.8-22.84a1.42,1.42,0,0,1,.05.22l23.07,105.4,99.4-92.49Zm-221.21,82.16,112.51,12-21.85-99.78Zm94.09-95.78a2.84,2.84,0,0,1,1.08,1.69l22.82,104.18,97.78-92.83Zm388.61,37.76,66.22,66.22,65.12-27.13-10.73-64.39a2.9,2.9,0,0,1-1.71-1l-.25-.31L3581,541.2ZM2390.84,570.53l15.8,88.85a.68.68,0,0,0,0,.14l80.09-79.25Zm-183,65.4,192.46,20.69-30.92-174Zm832.31-86a2.88,2.88,0,0,1,2.8,2.26l22.72,103.64,96.13-93.12a3.08,3.08,0,0,1,.8-.55l-582.72-62.44,24,108.25,85.45-89.51a2.88,2.88,0,0,1,4.89,1.37l21.39,97.4,85.62-88a2.92,2.92,0,0,1,2.85-.76,2.88,2.88,0,0,1,2,2.15L2828,630.18l89.61-90.33a2.88,2.88,0,0,1,4.85,1.41L2944.79,643l93.34-92.25A2.86,2.86,0,0,1,3040.15,549.94Zm-1299.86,5.71L1714,649.51l33.19-17.57a2.87,2.87,0,0,1,3.15.3,3,3,0,0,1,.68.79ZM2833.34,633l105.82,11.24L2918,547.65Zm962-58.32,70.12,68.48-30.77-35.45Zm-2092.65,3.1,7.9,62.69,22.61-80.62ZM2189.18,550l13.64,82.72,77.43-73.47Zm421.43,59.27,99.75,10.6-20.55-93.56ZM1816.3,593.85l182.23,19.58-25.68-168.65-77.55,73.84a3.39,3.39,0,0,1-.33.42,3,3,0,0,1-.63.5ZM1991.63,530l12.46,81.8L2080.63,539ZM2578,493.75l971,104,26.23-57.71-125.29-12.7-.85.29a2.84,2.84,0,0,1-2.94-.67L1821.27,362.39l-36.11,46.42,789.55,84.59a2.85,2.85,0,0,1,2.18-.23A2.72,2.72,0,0,1,2578,493.75ZM1797,510l12,82.94,77.31-73.62-88.19-9A2.93,2.93,0,0,1,1797,510Zm679.41-21.31,15.89,86.19,77-76.23Zm-82.18,76.45,92.15,9.36-15.17-82.34Zm-19.84-87.38,14.95,84.09,78.17-74.11Zm-181,67,89.56,9.09-13.87-81Zm80.52-77.75,14.5,84.67,78.7-74.68Zm-100.17-10.73a2.37,2.37,0,0,1,.11.46L2187.85,542l79.69-75.68ZM3463,522.93,3573,534.06l-30.17-38.13-.16.06Zm-1467.48,1.66,87,8.84L2070,453.8Zm77.85-79.12a2.86,2.86,0,0,1,1.38,2l13.38,84.37,80.19-76.23ZM1974.86,436a3,3,0,0,1,.93.16,2.87,2.87,0,0,1,1.91,2.29l12.66,83.11L2070,445.87a2.78,2.78,0,0,1,1.09-.65L1783.1,414.37l13.2,91.09.1-.09,81.72-77.88a2.87,2.87,0,0,1,4.83,1.66l12,81.9,78-74.23A2.85,2.85,0,0,1,1974.86,436Zm1474.33,85.51h0l79.05-26.75-105.94-10.84ZM3335.65,510l105.92,10.73-26.37-36.88Zm-1530.77-4.8,84.63,8.6-11.45-78.33Zm1405.47-7.89,106.19,10.76L3292.71,471ZM3273,429.66,3323.33,508l91.53-30.09a2.89,2.89,0,0,1,1.07-.36l79.07-26Zm-185.91,55.18,105.71,10.71-21.11-37.05ZM3178.57,459,3199,494.91l80.12-25.62Zm251.57,20,108,11.05-29.22-36.94Zm-463.88-6.36,104.66,10.61-18.29-36.81Zm35.72-141L3076.76,482l356.13-110.89Zm665.19,92.33,51,49.57-21.27-24.52Zm-817.9,36.87,103,10.43-15.44-36.33Zm93.79-25.87,14.59,34.33,80.91-24.55Zm787.15,5.86,28.41,27.39-12-13.55Zm-544,13.25,102.34,10.47-22.67-35.28Zm-450.91-4.79,101.95,10.33-12.79-36.09Zm81.52-64.58,25.56,72.18,176.49-52.23Zm-194.57,53.13,102.2,10.35-10.3-36.3Zm777.9-1.32,103.7,10.24L3476.41,412Zm-679.94-24.36,9.31,32.82,81.43-23.53Zm232.66,18,96.61,9.89-16.67-33.55ZM2514,426.79l99.49,10.07-7.57-35.45Zm766.46-2.17,99.87,9.86L3356.4,401Zm83.27-23.24,23.66,33.08,74.26-23.75Zm-752.55-2.9,7.32,34.33,376.21-106.2v0a2.88,2.88,0,0,1,2.63-1.24l1.35.13,87-24.57a2.86,2.86,0,0,1,1.19-.33l84.32-23.8a2.81,2.81,0,0,1,2-.6h.08l82.51-23.3a3.41,3.41,0,0,1,.57-.16l63.07-17.8L2930,203.7a2.74,2.74,0,0,1-1.14-.1l-365.55-29.31,4.56,21.36a2.87,2.87,0,0,1,1.05,4.94l5.19,24.31a2.87,2.87,0,0,1,1,4.84l5.56,26a2.87,2.87,0,0,1,1,4.56l5.84,27.36,1.17.11a2.87,2.87,0,0,1,.46,5.64l-.38.1,6.24,29.26a2.84,2.84,0,0,1,.78,3.66l6.69,31.32a2.87,2.87,0,0,1,1,4.75l7.13,33.39a2.85,2.85,0,0,1,.63,1.57A2.9,2.9,0,0,1,2611.2,398.48ZM2407.2,416,2506,426c0-.11-.05-.22-.07-.33l-5-35Zm99.47-25.75,4.53,31.39L2592.9,399Zm223.38,17.09,92,9.42-11.39-32.17Zm-428.13-2,99.16,10a2.75,2.75,0,0,1-.35-1.16l-2.6-34.33Zm99.24-61.71,5,66.69,95.9-25.91a2.68,2.68,0,0,1,.92-.25l82.59-22.32Zm970.19,52.74,100.19,9.54-25.87-32.68Zm-1173.21-1.55,99,10a2.94,2.94,0,0,1-.64-1.79l-.22-33.66ZM2937,390.72l92.46,9.12-15.57-31.34Zm-635-21.45.2,30,81.74-21.63Zm1202.52-136.1L3675.7,398.55l-69.85-79.44ZM2519.16,385.71l85.29,8.73-6.41-30Zm308-5.83,90.47,8.93L2904.58,358Zm83.71-21.64,12.9,30.31,75.7-21.87Zm-703.14-99.66-8.09,129.87L2571.77,292ZM2103.52,349l-3.74,28.68,81.56-20.72Zm210.61,15.78,83.5,8.54-2.24-29.6Zm-299.05-59.25-12.2,61.68,180.76-45Zm1329.8,51.8L3440,366l-24-30.31Zm-424-3.86,89.75,8.55-14.77-29.72ZM2514.24,349l82.24,8.12-6-28.28ZM1915,329.66l-7.25,27.41L1989,337.22Zm1317,17.25,92.4,8.49-21.16-29.57Zm78.55-20.74,20.88,29.18,69.72-21.14ZM2117.3,344.58l78.85,8.07,1.75-28.15Zm296-5.56,81.71,8.06L2491,318.9Zm83.42-20.24,4,27.81L2577,326.43Zm625.24,18,90,8.27-18.58-28.91Zm56.59-54.4,40.13,62.44,154.62-45.75ZM3014.69,327l87,8-16-28.05Zm77.62-20.15,16,28,70.36-20.33Zm226.77,14.35L3411,329.3l-22.65-28.63ZM3555,292.42,3589.66,326l-13.79-15.9ZM2509.16,314.19l79.79,7.6-5.72-26.8Zm-386.52-3.87,75.68,7.47,1.64-26.37ZM3103.11,302l86.14,7.65-17.38-27.05Zm-990.49-19.79-3.32,25.47,75.92-18.56Zm1411.71-6,19.41,23a2.88,2.88,0,0,1,.74-2,3,3,0,0,1,.89-.66Zm-228.62,10.49,87.44,7.5-21.09-26.66Zm-790.13-6.5,76,7-5.31-24.92Zm684-2.59,84.76,7.26-18.57-25.95Zm73.29-18.64,18.53,25.89,65.5-18.93Zm-853.28,12.41,76.07,7-3.63-25Zm78.23-18.2,3.58,24.69,71.11-18.06Zm-171.95,9.58,74.12,6.82-1.85-24.48Zm75.75-47.79,4.09,53.94L2555.76,229Zm1108.13,32L3515,265.12a3,3,0,0,1,.66-1.2,2.65,2.65,0,0,1,.88-.66ZM3273,254l83.84,6.95L3337,235.88a2.83,2.83,0,0,1-.57.23Zm-971.53-17.39.16,23.66,71-17.35Zm199.57,11.94,73.63,6.53-5-23.61Zm974.67-30.08,12.69,15.08a3.16,3.16,0,0,1,.54-.87,3.1,3.1,0,0,1,.82-.63Zm-230.14,4.75,86.93,7-21.1-26.67a2.86,2.86,0,0,1-2,2.1Zm-747.72-4.95,70.25,6-4.7-22ZM3214,198.41l16.4,23.05,61.62-17Zm-69.16,16.74,78.49,6.3L3207,198.39Zm-665.25-21.1,3.19,22,66.43-16.24Zm565.76,13.13L3123,213.4l-14.63-22.88Zm51.93-44.67,32.45,50.77,77.18-20.84a2.86,2.86,0,0,1,.88-.23l62-16.75ZM2947.13,199.3l76.21,6.11-12.77-22.54Zm70.21-16.15,12.55,22.17,62-16.38Zm435.32,7.91,10,11.88a3,3,0,0,1,.41-.59,3.32,3.32,0,0,1,.69-.56Zm-227.58,2.44,83.55,6.48-19.4-24.52a2.89,2.89,0,0,1-1.64,1.16ZM3459,179.16l20.28,19.57-7.7-8.88Zm-608.47,12.39,74.37,6L2914,175.45Zm30.84-95.17,49.92,101.09,296.55-76.78ZM2756.57,184l72,5.77-9.05-21.45Zm69.21-15.72,9,21.3,62.2-15.78Zm202.65,9.95,75.87,5.88-14-21.9Zm-363.71-1.6,70.3,5.64-7.38-21Zm59.63-42.11L2741,182l142.55-35.49Zm-81.25,19.59,5.75,20.48,62.24-15.2Zm786.53,9.59,6.84,8.12a1,1,0,0,1,.13-.16,2.66,2.66,0,0,1,.7-.56Zm-224.55,1.11,80.52,6-18.53-23.41a2.9,2.9,0,0,1-1.82,1.47Zm-366.26-1.29,72,5.59-10.34-20.94Zm269.46-6,73.94,5.55-14.84-20.85Zm66.33-15.06,14.63,20.56,57.89-15.3ZM3408,138l5.25,6.23.1-.12a3.11,3.11,0,0,1,.52-.45Zm-222.33-.46,78.07,5.67-17-21.51a2.83,2.83,0,0,1-.41.14Zm-357.34-1,69,5.18-9.71-19.67Zm-24.39-21,8,19.05,58.26-14.24Zm582.94-2.68,2.68,3.17a3,3,0,0,1,.33-.28Zm-219-2.2,74.3,5.21-16.21-20.49a2.94,2.94,0,0,1-1.47.92Zm-92.29-6.48,68.71,4.82L3131,90.45Zm62.64-13.6L3151.26,109l54.3-13.77Zm-152.91,7.27,67.1,4.71-11.66-18.25Zm47.11-37.24,26.69,41.75,127.12-31.64Zm-74,17.76,10,17.68,54.47-13.3Zm191.73,7.26,72,4.88-15.33-19.36a2.82,2.82,0,0,1-1.28.7Zm-16-24.09,68.61,4.51L3188.41,48a2.83,2.83,0,0,1-1.15.57ZM3105,43.5l11.71,16.44,51-12.45ZM4132.61,2482.73a2.32,2.32,0,0,1-.53-.05l-46.61-8.72a2.87,2.87,0,0,1-2.15-3.87l32.58-83.53a2.86,2.86,0,0,1,3-1.82,2.89,2.89,0,0,1,2.53,2.43l14,92.26a2.87,2.87,0,0,1-2.84,3.3Zm-42.68-13.79,39.23,7.35-11.81-77.63Zm107.38-163a2.77,2.77,0,0,1-.8-.12l-40-11.71a2.88,2.88,0,0,1-1.91-3.69l26.92-78.06a3,3,0,0,1,3-1.92,2.86,2.86,0,0,1,2.57,2.44l13.06,89.77a2.88,2.88,0,0,1-2.85,3.29ZM4161,2289.5l32.78,9.59-10.7-73.61Z"/><path class="cls-2" d="M0,1818.66V1439.51H128.47q41.49-.55,71.63,18.77,29,18.2,38.64,42.62,9.09,23.32,8.53,40.93,0,25.59-11.37,44.34T203.51,1618q29,10.79,46.61,34.38t17.62,59.4q0,30.15-16.2,57.42t-49.18,40.35a129.55,129.55,0,0,1-26.42,6.83,181.13,181.13,0,0,1-28.14,2.27Zm72.19-224h35.25q30.69,0,40.36-5.12,13.63-6.83,19.89-17.33a41.59,41.59,0,0,0-2.27-47.18q-8.53-11.64-25-17.33c-.77,0-2.56-.2-5.4-.57s-6.17-.76-10-1.14-7.76-.76-11.93-1.13-8-.57-11.37-.57H72.19Zm0,159.16h51.74q18.75,0,29.55-1.7t17.63-5.68q11.94-6.83,17.33-16.77a43,43,0,0,0,5.4-20.75,48.69,48.69,0,0,0-6.82-24.44,51.53,51.53,0,0,0-19.9-19.34,66.69,66.69,0,0,0-19.9-6.52,141.51,141.51,0,0,0-24.44-2H72.19Z"/><path class="cls-2" d="M573,1818.66V1439.51h72.76v379.15Z"/><path class="cls-2" d="M1130.05,1826.62q-37,0-67.93-13.08a144.55,144.55,0,0,1-53.15-38.36q-22.15-25.29-34.38-61.68t-12.23-83q0-51.16,13.07-88.4t35.25-61.95q22.16-24.73,50.87-36.67a156,156,0,0,1,60.54-11.94q50,0,80.72,18.48t46.61,47.46l-50,46q-10.8-18.75-30.7-31.83t-46-13.07q-30.14-.57-51.16,22.17a111.8,111.8,0,0,0-29,53.43,211.94,211.94,0,0,0-5.4,29.84,179.75,179.75,0,0,0-.85,26.44q0,43.18,15.35,75.6,8.54,18.2,19.61,28.7a85.86,85.86,0,0,0,22.73,15.93,77.55,77.55,0,0,0,22.17,6.81A136.51,136.51,0,0,0,1134,1759q22.76,0,36.67-2.56t16.21-3.68v-68.22h-59.12v-65.38h127.33v182.48q-14.23,9.09-46.61,17.05T1130.05,1826.62Z"/><path class="cls-2" d="M1933.23,1818.66V1439.51H2040.1a339.55,339.55,0,0,1,45.47,3.41,173.28,173.28,0,0,1,47.76,13.64q35.8,17.64,58,52.31,22.72,34.1,28.42,66.5,2.84,16.49,4.55,29.27a118.93,118.93,0,0,1,1.14,22.45q1.13,35.82-8.82,65.65t-24.44,52.31q-14.49,22.47-31,36.37t-28.42,17.92q-38.67,19.32-89.82,19.32Zm72.76-68.22h29.56q39.78,0,64.8-14.2,26.15-14.21,38.65-43.5a156.78,156.78,0,0,0,12.51-62.23,164.44,164.44,0,0,0-11.37-61.11q-11.37-28.71-35.25-44.62-12.49-8.54-31-12.8a162.72,162.72,0,0,0-36.67-4.25H2006Z"/><path class="cls-2" d="M2484.61,1818.66,2621,1439.51h72.18l137,379.15h-74.46l-26.15-76.17h-145l-25.59,76.17Zm122.22-140.41H2708l-50.59-149.49Z"/><path class="cls-2" d="M3145.15,1818.66V1508.3H3037.71v-68.79h287.63v68.79H3217.91v310.36Z"/><path class="cls-2" d="M3532.81,1818.66l136.43-379.15h72.18l137,379.15H3804l-26.15-76.17h-145l-25.58,76.17ZM3655,1678.25h101.18l-50.59-149.49Z"/><path class="cls-2" d="M4528.14,1818.66V1439.51h72.76v310.36h176.21v68.79Z"/><path class="cls-2" d="M5038.58,1818.66,5175,1439.51h72.18l137,379.15h-74.46l-26.15-76.17h-145L5113,1818.66Zm122.22-140.41H5262l-50.59-149.49Z"/><path class="cls-2" d="M5675.79,1818.66V1439.51h128.48q41.47-.55,71.62,18.77,29,18.2,38.64,42.62,9.11,23.32,8.53,40.93,0,25.59-11.37,44.34T5879.3,1618q29,10.79,46.61,34.38t17.62,59.4q0,30.15-16.2,57.42t-49.17,40.35a129.65,129.65,0,0,1-26.43,6.83,181.13,181.13,0,0,1-28.14,2.27Zm72.2-224h35.24q30.7,0,40.36-5.12,13.64-6.83,19.89-17.33a41.59,41.59,0,0,0-2.27-47.18q-8.53-11.64-25-17.33c-.76,0-2.56-.2-5.4-.57s-6.17-.76-10-1.14-7.76-.76-11.93-1.13-8-.57-11.37-.57H5748Zm0,159.16h51.73q18.75,0,29.56-1.7t17.62-5.68q11.94-6.83,17.33-16.77a43,43,0,0,0,5.4-20.75,48.69,48.69,0,0,0-6.82-24.44,51.46,51.46,0,0,0-19.9-19.34,66.72,66.72,0,0,0-19.89-6.52,141.59,141.59,0,0,0-24.44-2H5748Z"/></g></g></svg>