<svg xmlns="http://www.w3.org/2000/svg" viewBox="0 0 7431.97 5991.12"><defs><style>.cls-1{fill:#fff;}</style></defs><title>logo v1</title><g id="Layer_2" data-name="Layer 2"><g id="b_w_logos" data-name="b/w logos"><g id="logo_v1" data-name="logo v1"><path class="cls-1" d="M591.66,5941.21h-58a11.57,11.57,0,0,1-7.48-2.74l-522-440.84A11.61,11.61,0,0,1,0,5487.77l34.81-406a11.54,11.54,0,0,1,3.19-7l278.42-290L363,4738.09a11.58,11.58,0,0,1,6.3-3.24l34.8-5.8a11.39,11.39,0,0,1,3.95,0l649.66,116a11.61,11.61,0,0,1,6.88,4l58,69.61a11.66,11.66,0,0,1,2.67,6.69l40.6,632.26a11.62,11.62,0,0,1-1.2,5.93l-29,58a11.58,11.58,0,0,1-4.51,4.82L597.53,5939.61A11.56,11.56,0,0,1,591.66,5941.21ZM537.89,5918h50.62l528-309.89,26.07-52.13-40.17-625.35-52.87-63.45L406,4752.26l-29.16,4.86L333,4800.9,57.61,5087.8l-33.94,396Zm59.57,8.7a2.84,2.84,0,0,1-1.35-.33,2.9,2.9,0,0,1-1.22-3.92l224-425h-30a2.89,2.89,0,0,1-2.9-2.9v-16.85L659.82,5726.87a2.91,2.91,0,0,1-2.21,4.37l-26.05,51.45a3,3,0,0,1-.19.69,2.78,2.78,0,0,1-.66,1L607,5831.19a2.9,2.9,0,0,1-2.31,4.65h-.05L583.29,5878a2.92,2.92,0,0,1,.41,3,2.62,2.62,0,0,1-2.8,1.76l-21.46,42.37a2.89,2.89,0,0,1-4.46.91l-493-417.64a2.9,2.9,0,0,1,1.72-5.11l709.91-39.76-20.4-6.8a2.89,2.89,0,0,1-2-2.9l1.29-25.84L40.79,5474.25a2.75,2.75,0,0,1-2.57-1.24,2.91,2.91,0,0,1-.26-2.85L339.59,4803.1a2.88,2.88,0,0,1,2.41-1.69,2.94,2.94,0,0,1,2.65,1.28l410.77,619.05,29.27-15.27L564.28,5071.19l-.66-.11a2.9,2.9,0,0,1-2.13-4.12l-43-65.5a2.88,2.88,0,0,1-1.37-1.3,3,3,0,0,1-.32-1.27L374.61,4782.68a2.9,2.9,0,0,1,2.84-4.46L410.8,4783l-18.63-23.29a2.89,2.89,0,0,1,2.77-4.66l661.26,116a2.9,2.9,0,0,1,2.1,4.15l-266,532,19.23,24,270.59-535.42a2.9,2.9,0,0,1,5.17,2.61l-272.6,539.42c-.05.1-.11.19-.17.29a3.06,3.06,0,0,1-.21.29l-14.92,18.65L821.52,5446l269.29-538.58A2.9,2.9,0,0,1,1096,4910L827.36,5447.29l18.47,13.86,265.28-536.33a2.9,2.9,0,0,1,5.49,1.1l40.61,632.26a3,3,0,0,1-.41,1.68l-17.4,29a2.93,2.93,0,0,1-3.61,1.19L848.08,5469.21,832.58,5495l244,98.54a2.86,2.86,0,0,1,1.76.71l48.05,19.4a2.9,2.9,0,1,1-2.17,5.38l-46.53-18.79-24.23,45.24a2.9,2.9,0,0,1-3.51,1.37l-33.54-11.63-24.26,45.32a2.92,2.92,0,0,1-3.51,1.37l-33.77-11.72-24.57,45.9a2.92,2.92,0,0,1-3.51,1.37l-34-11.8L868,5751.92a2.91,2.91,0,0,1-3.51,1.37l-34.09-11.82-24.64,46a2.93,2.93,0,0,1-3.51,1.37l-33.73-11.7-24.39,45.56a2.91,2.91,0,0,1-3.51,1.37l-33.58-11.65-24.44,45.64a2.9,2.9,0,0,1-3.51,1.37L643.2,5847a3,3,0,0,1-1.42-1.07L600,5925.16A2.89,2.89,0,0,1,597.46,5926.7ZM504.89,5876l51,43.24,18.75-37Zm.21-5.8,67.32,6-50.85-44.46ZM529,5830.46,578.8,5874l19.56-38.64Zm-85-6.05,54.59,46.24,17.6-41.1Zm207.12,19.19,27.56,9.56,19.59-36.58Zm16-45.69-22.54,42.78,54.28-31.11-30.24-10.49A2.94,2.94,0,0,1,667.08,5797.91ZM521.24,5824.1l75,5.34L480.44,5728l-34.06,90.73,73.74,5.25A2.5,2.5,0,0,1,521.24,5824.1Zm28.58-43,52.7,46.13,21.39-42.25Zm-167.09-8.55,56.78,48.1a1.83,1.83,0,0,1,.08-.25l16.52-44ZM676.5,5795.7l63.71,22.1,45.29-84.58Zm16.09-46.18-22.86,43.37,54.61-31.3-30-10.41A2.89,2.89,0,0,1,692.59,5749.52ZM774.28,5773l27.57,9.55L821.43,5746Zm-228.11,2.05,74.31,3.89-55.24-48.41Zm25.49-46.61,56,49.08,23.54-46.48Zm-85.12-2.77,54.17,47.41,19.27-45Zm-99.78,41.24,64.58,3.38-51.13-44.71ZM71.23,5508.65,380,5770.19a2.93,2.93,0,0,1,.08-1.47l15-46-72.29-2.36a2.9,2.9,0,0,1-2.7-3.68l13.32-47.86L263.1,5668a2.91,2.91,0,0,1-2.79-3.57l11.5-49.05-67.91.67a2.45,2.45,0,0,1-2.25-1,2.88,2.88,0,0,1-.62-2.41l9.76-50.53-66.34,2.17a3.19,3.19,0,0,1-2.26-1,2.9,2.9,0,0,1-.7-2.36l8.6-55.75a2.91,2.91,0,0,1,.29-.89Zm334.88,214.4,52.71,46.08,16.45-43.82ZM794.36,5729l-20,37.3,48.07-27.56Zm-92.11,18.83,27.56,9.55,19.59-36.58Zm56-31.34-19.85,37.05,47.76-27.37Zm-31.32-17L864.09,5747l97.45-182Zm-9.27,2.41-22.94,43.53,55.41-31.76-31.12-10.79A2.89,2.89,0,0,1,717.7,5701.86Zm-391.06,12.8,322.68,10.53L387.61,5495.6Zm270.08-43.33,58.66,51.46,25.56-50.48Zm302.07,30.31,27.56,9.55,19.59-36.58Zm-155-49.27-23.22,44.06,55.13-31.6-30-10.41A2.92,2.92,0,0,1,743.79,5652.37Zm174.73,5.24-20.1,37.55,48.39-27.74Zm6-4.06,63.72,22.09,24-44.87a2.73,2.73,0,0,1,.47-.87l20.79-38.84Zm-330.86,11.94,82.54,1-60.26-52.94Zm28.3-54.41,62.3,54.73,28.18-55.65Zm-92.81.94,59,51.72,22.52-52.54ZM266.79,5662.2l61.75.73L277.14,5618Zm16-47,52.67,46.05,13-46.7ZM753.58,5651l27.56,9.56L800.73,5624Zm56-31.3-19.84,37.05,47.75-27.37ZM769.27,5604l-23.65,44.89,55.84-32-30.26-10.5A2.92,2.92,0,0,1,769.27,5604Zm174.79,5.92L924.19,5647,972,5619.62ZM1022,5631l27.57,9.56,19.59-36.58Zm-242.83-28,63.72,22.09,45.28-84.57Zm263.59-16.87-20.33,38,47.25-27.08Zm-171.47-1.79-19.87,37.11L899.19,5594Zm78.68,21.47,27.56,9.56,19.59-36.58Zm57.32-34a2.93,2.93,0,0,1-.28.8l-20.84,38.91,49.37-28.3Zm-779.83-65.25-20,103.61,136.83-1.36ZM296.12,5559l54.53,47.73,13.91-50Zm275.55-73.47-45.32,120.71,180.47-1.83Zm-110,67.35,59,51.79,20.43-54.41Zm188.35-6.13,65.35,57.48,30.71-60.65Zm175-48.53-54.21,102.86,56.3-32.28-30-10.4a2.9,2.9,0,0,1-.49-5.26l61.45-35.22a2.9,2.9,0,0,1,4,3.88l-20.83,38.9L894,5530.47a2.9,2.9,0,0,1,4,3.89l-21,39.24,53.12-30.46a2.9,2.9,0,0,1,4,3.89L913.26,5586l53.33-30.56Zm146.74,59.27a2.89,2.89,0,0,1-.35,1.32L949.8,5599.2l51.77-29.67Zm-94.69,22.73,27.56,9.56,19.59-36.59Zm227-9.81,31.68,13.3,15.64-26.07-39.85-620.55-260.66,527,34.93,14.67-3.57-74.06a2.9,2.9,0,0,1,1.23-2.51,2.94,2.94,0,0,1,2.77-.32L917,5414.49l-3.48-72.35a2.9,2.9,0,0,1,4-2.82l31.07,12.73-3.54-73.3a2.9,2.9,0,0,1,4-2.82l31.29,12.81-3.56-73.83a2.9,2.9,0,0,1,4-2.82l31.37,12.85-3.54-73.49a2.88,2.88,0,0,1,1.22-2.51,2.91,2.91,0,0,1,2.78-.32l31,12.71-3.51-72.76a2.9,2.9,0,0,1,1.22-2.51,2.94,2.94,0,0,1,2.78-.31L1075,5098.4l-3.52-72.89a2.9,2.9,0,0,1,1.23-2.51,2.94,2.94,0,0,1,2.77-.32l35.09,14.38a2.89,2.89,0,0,1,1.49,4L1082,5101.27l32.52,13.32a2.9,2.9,0,0,1,1.5,4L1085.9,5179l32.31,13.24a2.9,2.9,0,0,1,1.5,4l-30.19,60.46,33.39,13.67a2.91,2.91,0,0,1,1.49,4l-30.59,61.28,32.33,13.24a2.9,2.9,0,0,1,1.5,4l-30.16,60.41,32.54,13.33a2.91,2.91,0,0,1,1.5,4L1101.3,5491l32.29,13.23a2.9,2.9,0,0,1,1.49,4Zm-35-14.71,29.12,12.23-3.1-64.34ZM805,5555l27.56,9.56L852.2,5528Zm295.47-58,3,61.57,25-50.11ZM155,5511.21l-7.26,47.07,58.9-1.92Zm.49-7.28,56.89,49.74,10.27-53.15a2.37,2.37,0,0,1,.09-.36Zm149.08-1.76-12,51.15,67.82-2.22Zm729.14,38.72,29.25,12.28-3.11-64.63Zm-805.21-41.05,58.63,51.32,12.9-55c0-.1.06-.21.09-.31Zm77.28-4.33,60.95,53.4,16.06-57.71Zm171-4.15-18.18,55.83,78.78-2.6Zm-86-.61,62.26,54.62,19.28-59.19Zm670.76-86,6.71,139.27,56.58-113.34Zm-582.34,81L544,5542.66l23.2-61.78Zm194.27-5.86-26.2,61.11,92.12-3.05Zm-98.89.52,67.06,59,27.57-64.29Zm101.78-5.7,72.27,63.66L784,5468.74Zm322.19,51.4,29,12.16-3.08-64ZM1030,5467.8l3,61.57,25-50.11ZM962.53,5511l29.13,12.23-3.1-64.37Zm20.29-291.81,14.31,297,120.69-241.73Zm-55.34,277.09,28.81,12.1-3.07-63.65Zm31.23-58.13,3,61.57,25-50.1Zm-66.49,43.31,28.63,12-3.05-63.26Zm-68.48,10.21h4.1l15.21-25.35-19.68-14.76-31.59,15.8v24.31h32Zm99.34-72.4,3.2,66.43,56.59-113.34-63.3-25.93,3.46,71.9A2.7,2.7,0,0,1,923.08,5419.26Zm107.69,42.58,28.37,11.62-3-62.43ZM888.23,5409l3,61.57,25-50.11ZM197.89,5130.57,45.24,5468.15l77-5L88,5384.83a2.91,2.91,0,0,1,2.38-4.05l69.69-6.64-34.9-75.31a2.92,2.92,0,0,1,.1-2.64,2.89,2.89,0,0,1,2.2-1.46l69.93-8.13-35.28-71.91a2.89,2.89,0,0,1,0-2.64,2.85,2.85,0,0,1,2.17-1.51l70.1-9.56ZM164.4,5383.51l-34,79.1,68.59-4.46Zm592.68,68.39,30.79,10.27,20.5-25.61-20.27-25.33-29.76,15.53ZM94.91,5386.18l31.28,71.52,33.4-77.69Zm146-10.18-34.54,81.67,72.29-4.7Zm80-8.33-35.26,84.84,76.7-5ZM132.11,5300l70.38,151.9,71.2-168.36Zm272.66,59.41L369,5447.09l81-5.27Zm-159.45,12.4,36.59,74.6,33.78-81.3Zm714.16,60.35,28.36,11.62-3-62.41Zm-467.81-80.84-36,90.11,85.16-5.54a2.66,2.66,0,0,1-.39-.54ZM204.45,5130.62l160.91,310.09,146-358Zm377,212.92L545.63,5435a2.86,2.86,0,0,1-.36.64l89.38-5.81a3,3,0,0,1-1-1Zm-171.84,12.64,42.76,77.91,34.07-85.23Zm264.54-31a2.91,2.91,0,0,1,2.71,3.94l-38,99.26a2.91,2.91,0,0,1-.92,1.26l111-7.23-365.64-551a2.87,2.87,0,0,1-.22,1.38l-32.3,75.11L422,4934.09a2.91,2.91,0,0,1,2.8,1,2.87,2.87,0,0,1,.42,2.95L392,5016.61l74.72-13.07a2.9,2.9,0,0,1,3.18,4l-33.69,81,79.4-12.4a2.9,2.9,0,0,1,3.13,4l-35.47,87L564.79,5156a3,3,0,0,1,2.67,1.09,2.89,2.89,0,0,1,.41,2.86l-35.07,87.7,85.49-9.93a2.9,2.9,0,0,1,3,3.94l-36,92,88.54-8.45Zm-226.77-61.76,95.06,163.88,35.5-90.68a2.83,2.83,0,0,1,.28-.94,4.11,4.11,0,0,1,.24-.39L614.16,5244Zm138.34,76,49.82,81.38,34.23-89.4Zm476.56,59.36,28.32,11.61-3-62.33Zm30.81-57.24,3,61.57,25-50.1ZM731,5314.16l57.58,87.59,74.05-148.08-184.45-19.86,49,74.5a2.25,2.25,0,0,1,.64-.05H728l40.28-62.79a2.9,2.9,0,0,1,2.24-1.33,2.72,2.72,0,0,1,2.4,1l57.62,67.24a2.91,2.91,0,0,1,.42,3.14,3,3,0,0,1-2.71,1.65Zm224.48,40.68,28.69,11.75-3-63.12Zm-676.66-68.4L245.11,5366l71.43-6.8Zm163.81-19.73-34.15,83.76,78.4-7.48ZM951.1,5283l3,61.57,25-50.1Zm-216.4,25.45,87.11,2.71-50.8-59.3Zm-495.81-98.9-32.68,76,68-7.91Zm-69.8,6.17,32.42,66.09,32.2-74.89Zm310.35-39.39-33.17,81.33,77.46-9Zm574.88,65.85,28.34,11.61-3-62.33ZM763,5105l102.56,142.75,58-116a2.87,2.87,0,0,1-1.74.25Zm-82.3,123.27,177.45,19.11-101-140.59Zm404.45-43.34,3,61.57,25-50.11Zm-601.06-12.09,43.79,71.51,32.77-81.94Zm534.83,54.88,28.51,11.67-3-62.73Zm27.25-134.85,6.71,139.27,56.59-113.34Zm-474.07-20.33,102.06,155.24,78.37-124.56Zm442.56,83.2,3,61.57,25-50.11Zm-120.88-69.46,30.84,41.13a2.76,2.76,0,0,1,.52,1.16l18.65-37.29Zm-659-37.21-34.53,76.36,70.41-11Zm334.33,17.08,346.53,58.92-30.44-40.59a2.88,2.88,0,0,1-.21-3.16,2.84,2.84,0,0,1,2.82-1.46l51.29,5.13L736.8,4823.7l-28.87,41.74a3.38,3.38,0,0,1-.31.82,2.85,2.85,0,0,1-1,1Zm-258-26.38L279.62,5113l67.84-10.6Zm-69.86,9.1,33.44,60.91,31-72.18Zm146.67-22.75L356.24,5101,427.06,5090Zm-111.65-58,75.11,129.48,66.32-156.79Zm801.25,61.65,3,61.57,25-50.1Zm-685.06-7.37,38.67,63.12,31.32-75.37Zm455.9-64.07,98.35,127,58-116a2.81,2.81,0,0,1-1.46.28Zm-322.74,43.5,39.4,59.94,40.47-58.49Zm-255.07-32-33.39,73.84,69.21-12.1Zm297.75-28L609,4998.23l32.09-46.38ZM525.09,4996l76.17,1.38-39.52-54.78ZM478,4929.36l42,63.87,36.42-53.06Zm487.6-17L1005.8,4965a2.74,2.74,0,0,1,.54,1.19l45-90.05-57-10,.27.29,37,43.22a2.91,2.91,0,0,1,.42,3.14,2.78,2.78,0,0,1-2.71,1.65Zm-116.46,40.18,148.15,10.77-83.5-109.09Zm-543.21-60.91-32.12,71,67.64-13.07ZM742.78,4822,843,4951.37l65.94-100.28Zm-131.87,85.29,34.09,39,20.13-29.11Zm-47.45,28.05,73.11,10.08-35.49-40.56a2.9,2.9,0,0,1,2.7-4.76l56.79,10.33L581.37,4799l-100.26,125,79.48,11a3,3,0,0,1,1.09-.22A2.9,2.9,0,0,1,563.46,4935.29Zm-252.29-46.16,34.37,56.11,29.95-69.66ZM433.67,4862l40.41,61.47,38-47.33-77.52-13.84A3,3,0,0,1,433.67,4862Zm198.68-1.3,36.4,51.21,30.89-44.65Zm338.83,46.11,51.83,1.61-30.23-35.28Zm-51-53.7,42.1,55a2.91,2.91,0,0,1,2.14-1.47L990,4866.69a2.93,2.93,0,0,1,1.36-1.13Zm-577.45-42.8-33.13,73.27,70.18-14.78a3,3,0,0,1,1.94.26Zm145.49,21.4L516.94,4870l23.17-28.88Zm-47.6,25.78,68.91,12.31-30.38-40.52A2.9,2.9,0,0,1,479,4826a3,3,0,0,1,3-1.33L539,4835l-34.58-50.63Zm195.91-2.21,62.32,6.08-33.61-44.92Zm28.7-46.61a2.88,2.88,0,0,1,2.32,1.17l37.33,49.88,27.38-39.58-147.07-25.8L628.31,4855a3.59,3.59,0,0,1,1.46-.38l33.11-44.79a2.87,2.87,0,0,1,2.32-1.18Zm-258.64,12.1,25.58,38.92a2.94,2.94,0,0,1,.71-2.16l68.05-78-51.61-9.05,15.06,25.09a2.89,2.89,0,0,1-.05,3.06,2.93,2.93,0,0,1-2.77,1.32l-32.59-3.7,14.38,24a2.9,2.9,0,0,1-2.81,4.37Zm102.48-39.79,36.48,53.42,33.06-41.22Zm-100.89,34.14,27.17,3.08L423,4797.65ZM383,4784.87l18.85,28.68L440,4768.83l-38.49-6.76,18.41,23a2.91,2.91,0,0,1,.25,3.25,3,3,0,0,1-2.93,1.44Zm46.2,5.56,27.17,3.07L444.06,4773ZM20.3,5399.82a2.89,2.89,0,0,1-2.5-4.35l36.91-63.53-27.88,20a2.9,2.9,0,0,1-4.29-3.64l70.64-143.17-59,47.62a2.9,2.9,0,0,1-3.75-4.42l63.78-135.53-47.86,41.76a2.9,2.9,0,0,1-4.58-3.31L89.17,5038.1a2.9,2.9,0,0,1,5.57,1l1.89,68.53,72.83-154.76a2.9,2.9,0,0,1,5.53,1.22l.38,72.17,59.77-143.84a2.94,2.94,0,0,1,3.08-1.76,2.89,2.89,0,0,1,2.48,2.53l3.54,29.29,33-67a2.84,2.84,0,0,1,3.17-1.57,2.92,2.92,0,0,1,2.33,2.66l2.92,44.91a2.89,2.89,0,0,1-1.26,2.59l-37.66,25.65a3,3,0,0,1-1.53.51l6.16,50.89a2.92,2.92,0,0,1-1,2.57l-37.83,31.77a2.92,2.92,0,0,1,.6,1.58l2.93,43.47a2.9,2.9,0,0,1-1.33,2.63L177,5077.43a2.89,2.89,0,0,1-1.4.45l.31,59a2.85,2.85,0,0,1-1.08,2.27l-35.5,28.68a2.88,2.88,0,0,1,.75,1.94l0,44.92a2.89,2.89,0,0,1-1.54,2.56l-35.91,18.93,3.65,57.15a2.91,2.91,0,0,1-1.21,2.55l-40.42,28.94c0,.1,0,.2.05.3l4.83,46.41a2.91,2.91,0,0,1-1.5,2.85l-46.41,25.13A2.8,2.8,0,0,1,20.3,5399.82Zm39.61-65.29L28,5389.46l35.63-19.3Zm35.53-120.91L32.86,5340.45l67.59-48.39-3.62-56.61a2.94,2.94,0,0,1-.09-1.53ZM169.25,4967l-128.45,273,129.34-104.45Zm-34.93,213.5-27.16,46.75,27.18-14.33Zm-35.07,19.71a2.89,2.89,0,0,1,1.29,2.23l1.42,22.22,29.16-50.19Zm-9.93-147.43L52,5141.94,90.84,5108Zm86.09-17.46.18,33.1,28.74-56-26.51,22.28A2.86,2.86,0,0,1,175.41,5035.3Zm32.6-17.36-25,48.78,27.15-17.45Zm28.26-123.07-53.08,127.71,62.2-52.24Zm41.35-37-25.08,51,27.2-18.53Zm619.19,321.63h-.09L818,5177a2.9,2.9,0,0,1,0-5.8l31.34-48.84a2.89,2.89,0,0,1,2.24-1.33,2.79,2.79,0,0,1,2.41,1L899,5174.69a2.9,2.9,0,0,1-2.2,4.79Zm-72.11-8,65.63,2-38.27-44.67Zm-110.41-13.76h-.23l-89-7.09a2.9,2.9,0,0,1,.33-5.79l40.07-54.45a2.89,2.89,0,0,1,2.33-1.18h0a2.89,2.89,0,0,1,2.33,1.17l46.53,62.72a2.9,2.9,0,0,1-2.33,4.63Zm-82.12-12.35,76,6.05-40.39-54.44ZM975,5023.16h-.09l-75.66-2.35a2.9,2.9,0,0,1-.08-5.79l30.07-46.87a2.89,2.89,0,0,1,2.24-1.33,2.81,2.81,0,0,1,2.41,1l43.31,50.55a2.9,2.9,0,0,1-2.2,4.78Zm-69.07-7.94,62.59,1.94-36.5-42.6ZM801.62,4894.71a2.9,2.9,0,0,1-.3-5.78l28-48.14a2.9,2.9,0,0,1,2.18-1.43,2.93,2.93,0,0,1,2.45.9l45.48,48.61a2.9,2.9,0,0,1-2.08,4.88l-75.69,1Zm30.75-47.64-24.29,41.76,62.62-.79Zm4554.9-1685.76h-63.8a14.64,14.64,0,0,1-6.49-1.53l-43.34-21.67h-43a14.64,14.64,0,0,1-6.49-1.53l-69.6-34.81a14.43,14.43,0,0,1-4.44-3.43L4193,2002a14.51,14.51,0,0,1-3.37-7.15l-23.21-139.21a14.46,14.46,0,0,1,.35-6.31L4561.23,445.62h0a.43.43,0,0,1,0-.05v-.06a.19.19,0,0,1,0-.07h0l0-.06,17.4-58a14.42,14.42,0,0,1,4.19-6.61l58-52.16a14.56,14.56,0,0,1,5.82-3.23s0,0,.06,0l.05,0h0l.49-.12L6022,.39a14.5,14.5,0,0,1,5.72-.19l69.61,11.6a14.45,14.45,0,0,1,7.87,4L6118.35,29h23a14.66,14.66,0,0,1,4.95.87l63.81,23.21a14.6,14.6,0,0,1,5,3.09L7386.83,1164.08l.28.26s0,0,0,0a14.48,14.48,0,0,1,3.14,4.69l40.49,92.55a14.5,14.5,0,0,1,.5,10.29L6985.33,2644.46v15.1a14.5,14.5,0,0,1-5.8,11.6l-64.8,48.6-5,34.66a14.47,14.47,0,0,1-5.07,9.09l-69.6,58a14.72,14.72,0,0,1-6,3L5390.58,3160.93A14.74,14.74,0,0,1,5387.27,3161.31Zm-60.38-29h58.71L6819.17,2797l62.68-52.23,5-35.09a14.49,14.49,0,0,1,5.65-9.55l63.81-47.85v-8.37l-5.37-21.47a14.49,14.49,0,0,1,16.79-17.76L7402,1268.18,7365,1183.75a14.72,14.72,0,0,1-2.63-2.85L6197.37,79.31,6138.79,58h-26.45a14.49,14.49,0,0,1-10.25-4.24L6088,39.64l-62.14-10.36L4659,352.25a13.88,13.88,0,0,1-2.48,1.28l-51.18,46.07-14.58,48.6a14.41,14.41,0,0,1-1.81,7.65l-.91,1.65L4195.59,1854.09l22,132L5170.1,3077.11l64,32h43a14.64,14.64,0,0,1,6.49,1.53Zm60.44-1.1a3.51,3.51,0,0,1-.71-.08l-82.25-20.72a2.89,2.89,0,0,1-2.19-2.82l-79.76-20.09a2.9,2.9,0,0,1,.05-5.63l61.31-14.46-83.07-20.92a2.9,2.9,0,0,1,0-5.63l58.17-14.41L5184,3007.59a2.9,2.9,0,0,1,0-5.62l57.21-14.89-77.68-19.56,69.81,154.9a2.9,2.9,0,1,1-5.29,2.37l-370.7-822.48-67.92-20.9,374.29,806.17a2.9,2.9,0,0,1-5.26,2.45l-30.7-66.12a2.92,2.92,0,0,1-2.65-.31l-37-25.15a2.93,2.93,0,0,1-1-1.16L5068.43,2958l-35.51-23.79a2.72,2.72,0,0,1-1-1.15l-19.46-40.42-35.24-23.26a2.88,2.88,0,0,1-1-1.15l-20.3-41.52-34.76-22.59a2.81,2.81,0,0,1-1-1.14l-21.06-42.47-33.89-21.65a2.9,2.9,0,0,1-1-1.14l-21.56-42.87-32.84-20.61a3,3,0,0,1-1-1.15l-22.17-43.51-32.19-19.84a2.79,2.79,0,0,1-1.05-1.13l-23.18-44.94-31.62-19.1a2.94,2.94,0,0,1-1.07-1.14l-23.34-44.71-30.56-18.08a2.94,2.94,0,0,1-1.09-1.15l-24.23-45.89-29.83-17.27a2.94,2.94,0,0,1-1.1-1.14l-25.09-47-29.48-16.65a3,3,0,0,1-1.12-1.15l-26-48.15-29-15.93a2.87,2.87,0,0,1-1.14-1.15l-26.74-49.1-28.09-15a2.73,2.73,0,0,1-1.17-1.16l-27.17-49.42-27.1-14.06a2.86,2.86,0,0,1-1.19-1.17l-27.75-50-26.42-13.26a2.92,2.92,0,0,1-1.23-1.18l-28.89-51.62a2.9,2.9,0,0,1,4.73-3.3l37.64,43.83-15.36-27.7a2.89,2.89,0,0,1,.87-3.79,3,3,0,0,1,2.26-.45l-107.24-52.55a2.9,2.9,0,1,1,2.56-5.21l574.69,281.6-15.84-73.92L4197,1948.75a2.9,2.9,0,0,1,2.33-5.32l567.34,248.94,50.27-20.1-637.28-264.1a2.92,2.92,0,0,1-1.74-3.25l11.6-58a2.88,2.88,0,0,1,1.46-2,2.94,2.94,0,0,1,2.44-.16l26.7,10.42-4.54-76.32a2.89,2.89,0,0,1,3.76-2.94l21.05,6.6-4.84-77a2.91,2.91,0,0,1,1-2.4,3,3,0,0,1,2.55-.6l22.06,5.36-5.12-76.82a2.9,2.9,0,0,1,3.39-3l23.06,4-5.58-79.57a2.91,2.91,0,0,1,.88-2.29,2.81,2.81,0,0,1,2.32-.8l24.43,2.53-5.74-77.43a2.93,2.93,0,0,1,.8-2.23,2.8,2.8,0,0,1,2.19-.88l25.11.91-6.11-78.14a2.92,2.92,0,0,1,.73-2.17,2.89,2.89,0,0,1,2.07-1l26.25-.79-6.43-77.75a2.9,2.9,0,0,1,2.62-3.12l26.55-2.55-6.53-75.53a2.9,2.9,0,0,1,2.43-3.11l27.06-4.28-7.13-77.84a2.9,2.9,0,0,1,2.26-3.1l29.41-6.51-7.57-78.55a2.88,2.88,0,0,1,2.09-3.06l30.68-8.73L4437.35,968a2.92,2.92,0,0,1,1.94-3l31.93-11.06-8.61-80.48a2.9,2.9,0,0,1,1.78-3l33.67-13.78-8.83-78a2.9,2.9,0,0,1,1.65-3l34.48-16.2L4516,681.19a2.92,2.92,0,0,1,1.52-2.91l35.9-19-9.78-77.6a2.92,2.92,0,0,1,1.41-2.87l38.63-22.71a2.91,2.91,0,0,1,3.24.21l.12.1-14.59-105.52a2.89,2.89,0,0,1,.33-1.8l.92-1.67a2.88,2.88,0,0,1,.91-1l47.28-32.16a2.88,2.88,0,0,1,2.7-.29,3.08,3.08,0,0,1,.38-.85h0l.14-.18,39.23-50.44-15.54-20.71a2.9,2.9,0,0,1,4.64-3.48l16.1,21.47,376.51,38.14a2.89,2.89,0,0,1-1-2.42l2.06-33.14-99.52,25.27a2.9,2.9,0,0,1-3.59-3.18l4.16-31.9-98.63,24.58a2.91,2.91,0,0,1-3.55-3.38l6.11-30.91L4753.21,367a2.9,2.9,0,0,1-3.5-3.56l9.2-34.77a3,3,0,0,1,3.1-2.14l91.42,9.36,6.22-31.43a2.92,2.92,0,0,1,3.13-2.32l91.15,9,3.91-30a2.88,2.88,0,0,1,3.15-2.51l90.77,8.65,1.85-29.78a2.91,2.91,0,0,1,1-2,2.85,2.85,0,0,1,2.15-.68l91.38,8.39-.19-27.64a2.88,2.88,0,0,1,3.15-2.91l89.55,7.94-2-26.72a3,3,0,0,1,.85-2.28,2.89,2.89,0,0,1,2.29-.82l89.11,7.64L5327.19,193a2.91,2.91,0,0,1,3.11-3.31l86.18,7.15-5-23.59a2.86,2.86,0,0,1,.65-2.51,3,3,0,0,1,2.41-1l83.73,6.71-6.56-23.39a2.88,2.88,0,0,1,.55-2.62,2.93,2.93,0,0,1,2.46-1.05l86.67,6.72-7.95-22.65a2.89,2.89,0,0,1,.44-2.72,2.86,2.86,0,0,1,2.52-1.13l86.16,6.46-9.1-21.56a2.86,2.86,0,0,1,.31-2.81,2.77,2.77,0,0,1,2.57-1.2l85.55,6.2-10.59-21.43a2.9,2.9,0,0,1,.19-2.9,2.81,2.81,0,0,1,2.62-1.28l85.9,6-11.24-19.83a2.88,2.88,0,0,1,.07-3,3,3,0,0,1,2.65-1.36l83.92,5.71L5883.12,59.5a2.9,2.9,0,0,1,2.63-4.46L5969,60.52l-13-18.23a2.92,2.92,0,0,1-.17-3.1,2.84,2.84,0,0,1,2.72-1.48l85.73,5.46-20.43-25.83a2.9,2.9,0,1,1,4.54-3.6L6310.3,370a2.9,2.9,0,0,1,2.48,2.57,2.72,2.72,0,0,1,0,.57L6444.73,539.9l85.47,30.16L6108.91,48a2.9,2.9,0,1,1,4.51-3.64l427.21,529.36,1.92.68a2.91,2.91,0,0,1,1.9,2.26l10.39,62.37,29.55-44.33L6139.09,45.33a2.9,2.9,0,1,1,4.51-3.65L6589.67,592l71.19,20.34L6202.94,68.57a2.9,2.9,0,1,1,4.43-3.73l21.7,25.76a2.9,2.9,0,0,1,3.77,0l40.9,34.77,23.61,27.35,40.84,34.7,25.05,28.84.2.16,41.44,35.17,26.45,30.24.13.15,42.22,35.82,28.14,32a3,3,0,0,1,.3.23l42,35.58,29.37,33.16,42.15,35.7L6646.35,489l0,0,42.52,36,32.56,36.36c.08.08.14.17.21.25L6764.76,598l33.68,37.46,42.92,36.25,35.88,39.65,43,36.28,37.95,41.78.23.17,43.6,36.76L7041.87,870a3.11,3.11,0,0,1,.23.28l44.52,37.49L7129,954l.31.23,44.15,37.13,44.08,47.88.06,0,44.33,37.24,46.17,50,0,0,44.67,37.47,26.29,28.32,8.59,7a2.9,2.9,0,0,1,.89,3.23l12.94,13.93a2.9,2.9,0,0,1-4.14,4.06L7357,1181.8a2.89,2.89,0,0,1-4.71,1l-32.51-31.35-9.26-7.54a2.88,2.88,0,0,1-4.28.28l-25-24.14-16.2-13.2a2.9,2.9,0,0,1-3.89-.13l-20.07-19.39-25.16-20.49a2.92,2.92,0,0,1-2.94-.67l-11.33-11-33.83-27.57a2.84,2.84,0,0,1-1.83-.81l-4.43-4.28-485.74-395.7,24.81,64.5,716.62,572.14a2.9,2.9,0,1,1-3.62,4.53L6702.07,700,6722,843.85l37.71-78.67a2.89,2.89,0,0,1,5.48.87l16.4,121.31,34.22-76.27a2.9,2.9,0,0,1,5.52.81l15.35,115,32.69-72.73a2.9,2.9,0,0,1,5.52.82L6889,967.09l31.35-71.92a2.93,2.93,0,0,1,3.08-1.71,2.9,2.9,0,0,1,2.46,2.52L6939,1004.21l29.47-69.62a2.9,2.9,0,0,1,5.55.79l12.27,105.09,27.35-68.89a2.9,2.9,0,0,1,5.57.68l13.13,94.31,24.24-60.48a2.9,2.9,0,0,1,5.57.77l11.69,107.41a2.89,2.89,0,0,1-4.62,2.63l-33.37-25.07,13.39,96.24,61-155.18a2.93,2.93,0,0,1,3.09-1.82,2.89,2.89,0,0,1,2.49,2.57l11.8,111.31,24.9-77a3,3,0,0,1,3.06-2,2.9,2.9,0,0,1,2.58,2.58l11.91,112.27,26.44-75.85a2.9,2.9,0,0,1,5.63.66l9.69,96.7,21.84-67.44a3,3,0,0,1,3.08-2,2.91,2.91,0,0,1,2.57,2.61l8.93,94.68,21.52-66.35a2.9,2.9,0,0,1,5.65.64l8.19,92.29,20.91-64.41a2.9,2.9,0,0,1,5.64.66l7.39,88.73,20.19-62.15a2.85,2.85,0,0,1,3.1-2,2.92,2.92,0,0,1,2.55,2.66l6.69,85.93,19.78-60.82a2.93,2.93,0,0,1,3.11-2,2.9,2.9,0,0,1,2.54,2.68l7.15,98.38a2.9,2.9,0,0,1-4.65,2.52l-26.31-20,7.12,91.51a2.9,2.9,0,0,1-4.57,2.58l-59.86-42.69,8.95,100.87,23.6-72.57a2.9,2.9,0,0,1,5.65.66l8,95.73a2.9,2.9,0,0,1-4.5,2.65l-32.14-21.41-.14-.1,7.41,83.52a2.89,2.89,0,0,1-4.41,2.72l-62.91-38.93a3,3,0,0,1,.41,1.22l9.93,99.11,23.89-73.45a2.9,2.9,0,0,1,5.64.63l8.79,93a2.9,2.9,0,0,1-4.33,2.79l-32.9-18.89a3.35,3.35,0,0,1-.74-.6l8.48,84.64a2.89,2.89,0,0,1-4.24,2.85l-29.52-15.65a2.92,2.92,0,0,1,.25.9l9.6,90.42a2.91,2.91,0,0,1-4.16,2.91l-33.66-16.43a2.91,2.91,0,0,1-1.49-3.5l24.07-74a2.88,2.88,0,0,1,2.28-2l-35.28-18.72a2.89,2.89,0,0,1-1.39-3.45l21.69-66.77a2.66,2.66,0,0,1-1.58-.38l-34.13-19.6L7205.73,1882a2.89,2.89,0,0,1-4.07,3L6991.44,1790a3,3,0,0,1,.15.61l13.48,98.66,25.73-76.64a3,3,0,0,1,3-2,2.9,2.9,0,0,1,2.59,2.51l12.89,98.38,24.52-76.53a2.94,2.94,0,0,1,3-2,2.91,2.91,0,0,1,2.61,2.54l11.59,95,23.81-74.23a3,3,0,0,1,3.05-2,2.9,2.9,0,0,1,2.59,2.56l10.6,92,23.32-72.62a2.93,2.93,0,0,1,3.06-2,2.89,2.89,0,0,1,2.59,2.57l11.18,103.07a2.9,2.9,0,0,1-4.11,2.94L7133.2,1967l11.2,97.2a2.89,2.89,0,0,1-1.14,2.66,2.93,2.93,0,0,1-2.87.35l-29.21-12.29,12,98.63a2.9,2.9,0,0,1-3.91,3.07l-39.43-14.89a3.49,3.49,0,0,1-.44-.2l11.37,86.77a2.88,2.88,0,0,1-1,2.57,2.92,2.92,0,0,1-2.69.59l-176.57-51.22a2.93,2.93,0,0,1-1.95-3.71l28.33-84.37-43.09-16.26a2.86,2.86,0,0,1-1.28-1l28.78,207.75,32.82-84.94a2.91,2.91,0,0,1,5.58.62l15.13,99.49,28.17-79.51a3,3,0,0,1,3-1.92,2.93,2.93,0,0,1,2.59,2.48l27.93,193.66a2.89,2.89,0,0,1-3.53,3.23l-89.11-21a2.84,2.84,0,0,1-1.88-1.43,3,3,0,0,1-.19-2.36l31.59-89.15a2.82,2.82,0,0,1-2,.23l-49.15-12.69,45.61,329.19a2.89,2.89,0,0,1-1.58,3l-69,34.52-42.24,52.79h46.17a2.91,2.91,0,0,1,.92,5.66l-69.61,23.2a2.9,2.9,0,0,1-1.49.09l-35.8,54,31.87,15.93a2.9,2.9,0,1,1-2.59,5.19L6790,2795.71,5926.54,2575.3l5.23,62.39,99.26-31.6a2.91,2.91,0,0,1,3.78,2.62l2.75,56.29,102.93-31.19a2.91,2.91,0,0,1,3.75,2.77l.05,55.79,107-30.86a2.9,2.9,0,0,1,3.7,2.93l-2.69,55.28,110.59-30.34a2.9,2.9,0,0,1,3.65,3.09l-5.46,54.53L6474,2717.55a2.87,2.87,0,0,1,2.68.65,2.9,2.9,0,0,1,.92,2.59l-8.1,53.05L6584,2745.4a2.9,2.9,0,0,1,3.54,3.4l-10.69,51.94L6694.22,2773a2.83,2.83,0,0,1,2.74.79,2.89,2.89,0,0,1,.73,2.76l-14.51,55.66a2.93,2.93,0,0,1-3.52,2.09L6575.31,2808l-10.51,51a2.84,2.84,0,0,1-1.3,1.87,3,3,0,0,1-2.24.36l-101.67-25.61-7.39,48.47a2.86,2.86,0,0,1-1.26,2,2.9,2.9,0,0,1-2.31.4l-99-24.93-4.79,47.86a2.92,2.92,0,0,1-3.6,2.53l-97.54-24.57-2.15,44.37a2.87,2.87,0,0,1-1.17,2.19,2.84,2.84,0,0,1-2.44.48l-93.62-23.57,0,42.8a2.9,2.9,0,0,1-1.12,2.29,2.81,2.81,0,0,1-2.49.52l-91.34-23,2,40.71a2.92,2.92,0,0,1-1.06,2.38,2.83,2.83,0,0,1-2.55.57l-89.51-22.54,3.81,45.45a2.9,2.9,0,0,1-3.61,3l-91.47-23.33,5.75,41.08a2.92,2.92,0,0,1-.94,2.56,2.88,2.88,0,0,1-2.64.65l-89-22.41,7.13,38.54a2.91,2.91,0,0,1-.87,2.63,2.87,2.87,0,0,1-2.7.7l-87-21.9,8.43,36.78a2.92,2.92,0,0,1-.8,2.72,2.86,2.86,0,0,1-2.74.74l-85.6-21.55,10.53,38.69a2.9,2.9,0,0,1-3.51,3.57l-95.26-24,14,35.31a2.91,2.91,0,0,1-3.41,3.89l-83.67-21.08,11.12,31.25a2.91,2.91,0,0,1-3.44,3.79l-87.52-22a3,3,0,0,1,.55.89l14.54,36.68a2.9,2.9,0,0,1-2.7,4Zm-70-23.52,65.22,16.42L5371,3095Zm52.09-25.3a2.94,2.94,0,0,1,.71.09l88.49,22.29L5434,3035.64l-1.16-.29-74.91,18.56a2.91,2.91,0,0,1-3.43-1.84l-14.17-39.82-127,31.45,154.79,39A2.86,2.86,0,0,1,5369.42,3082.39Zm-74.9-12.28,13.41,33.84,63.88-15.06-.88-.22a2.9,2.9,0,0,1-2,.19Zm-59.14,14.67,65.22,16.42-11.53-29.08Zm229.92-11.43,69.08,17.4-12.7-32.07Zm49.59-23.95a2.8,2.8,0,0,1,.7.09l104.15,26.23-45-165.34-91.66,25.08a2.92,2.92,0,0,1-2.2-.28,2.87,2.87,0,0,1-1.36-1.76L5466,2883.71,5391.93,2904s0,0,0,0a2.89,2.89,0,0,1-2.82.83l-.13,0-74.79,20.46-.06.07a2.87,2.87,0,0,1-2.86.86l-.25-.06-70.63,19.33-.18.23a2.87,2.87,0,0,1-2.89.9l-.54-.14-63.82,17.47,79.91,20.12.93-.24a2.86,2.86,0,0,1,3.2,1.28l83.76,21.1.75-.19a2.94,2.94,0,0,1,3.07,1.14l88.3,22.24,2.12-.52a2.91,2.91,0,0,1,3.43,1.84l0,.08,75.16,18.93A3,3,0,0,1,5514.89,3049.4Zm-74.11-12.06,11.85,33.32.25-.07,59-15.35Zm184.7-.68,73.06,18.4-7.75-33.8ZM5347,3013.74l12.07,33.91,61.8-15.31Zm266.7-19,167.12,42.09-14.78-79.85Zm-9,3.71,9.51,35,66.76-15.75Zm-345.05-6.66,12.46,31.44,56.65-14Zm-63.28,13,69.08,17.39-12.7-32.06Zm592.7-6.85,77.38,19.49-5.12-36.54Zm-702.29-27.63,34.9,40.65-12.5-26.92a2.86,2.86,0,0,1-2.46-.37Zm5.18,23.84,18.34,12.47-27.76-32.34Zm10.53-213.31,617.35,155.46L5956,2996.45,5940.47,2811l-.27-.07a2.9,2.9,0,0,1-.2-5.57l-4.09-48.78a2.87,2.87,0,0,1-.23-2.8l-4.29-51.18a2.89,2.89,0,0,1-.44-5.24l-4.43-52.84a2.92,2.92,0,0,1-1.54-2.47,2.87,2.87,0,0,1,1.14-2.39l-5.29-63.06L5822.21,2611a2.85,2.85,0,0,1-2.52-.3,2.92,2.92,0,0,1-1.33-2.16l-6-62.38-4.9-1.26-393,131.47a2.72,2.72,0,0,1-.62,1,2.94,2.94,0,0,1-2.79.79l-1.05-.27-85.44,28.59a2.94,2.94,0,0,1-1.56.52l-81.26,27.18a2.81,2.81,0,0,1-2.56.86l-77.92,26.07a2.81,2.81,0,0,1-.94.31Zm669.19,174.66,7.19,38.89,75.48-17.81Zm-179-1,10.08,37,69-17.1Zm83.77-23.12,9.07,39.6,74.43-18.45Zm292,19.87,76.92,19.37-1.85-37.11Zm-901.76-22.85,36.09,42L5089.7,2942a2.91,2.91,0,0,1-2.63-.3ZM5602,2950.76l77.51,19.52-8.58-37.47Zm-529.36,3,19.7,13.2-85.6-99.71,30.1,62.53,35.17,23.56A2.88,2.88,0,0,1,5072.6,2953.76Zm-208.06-649.54,296.13,657.05.09,0,64.56-17.67-77.2-19.44a2.9,2.9,0,0,1-.09-5.6l62-17.83-81.52-20.53a2.9,2.9,0,0,1-.13-5.59l63.9-19.32-82.83-20.86a2.9,2.9,0,0,1-.17-5.57l70.88-22.52L5091.47,2784a2.89,2.89,0,0,1-2.19-2.7,2.92,2.92,0,0,1,2-2.87l58.28-19.49L5062,2736.86a2.89,2.89,0,0,1-.25-5.54l67.88-23.88-90.3-22.75a2.88,2.88,0,0,1-2.19-2.65,2.91,2.91,0,0,1,1.89-2.88l70.07-25.93-93.58-23.57a2.89,2.89,0,0,1-.34-5.51l71.24-27.77-98.13-24.71a2.9,2.9,0,0,1-.39-5.5l75.36-31-99.39-25a2.9,2.9,0,0,1-.45-5.48l74.66-32.34-102.63-25.84a2.9,2.9,0,0,1-.5-5.46l76.94-35.17-104.66-26.36a2.9,2.9,0,0,1-.55-5.42l80.13-38.68ZM5964,2906l174.53,44-.1-87.25Zm-9.47,3.6,3.2,38.18,76.59-18.09ZM5579.81,2907l11.08,40.69,74-19.26Zm-354.17-2.32,13.87,35.06,60.05-16.44Zm-65.67,16.5,73.26,18.45-14-35.48Zm310.89-41.61,13.5,49.58,87.89-24Zm-424.76,5.73,37.57,43.76-13.46-29a2.91,2.91,0,0,1-2-.44Zm1108.12,22.1,81.7,20.58,1.95-40.34Zm-1100.76,5.24,19.51,12.87-29.92-34.86Zm247-30.08,13.13,36.89,63.89-17.49Zm-160.43-5.41,167.35,42.15-29.8-83.74-73,22.08a2.89,2.89,0,0,1-1.08.33ZM5952.31,2808l387.08,97.47,21-209.39Zm191.95,54.31,0,41.4,84.81-20Zm-193.69-.27,3.39,40.43,79.15-19.65Zm-572.14-5.82,13.16,41.82,73.27-20.06Zm-70.58,22.14,77.62,19.56-12.08-38.41Zm-298.61-17.08,30.14,35.12L5028.76,2874Zm15.84-20.61,38.27,44.56-14.18-30.53a2.92,2.92,0,0,1-2.56-.29ZM4925,2799.64l129.42,84.09-207.74-242Zm1435,58.54,87,21.9,6.71-44ZM6045,2837.35l2.08,42,83-20.59Zm-85.64,21,81.89,20.62-2.05-41.45Zm-978.33,6.62,17.65,11.65L4971,2844.24Zm301.48-32.82,15.35,43.11,72.76-20.93Zm-309.45,5.73,29.58,34.45L4992,2850.11Zm1391.75-32,194.88,49.08,21.16-102.74Zm-418.43,6.72,3.54,42.25,80.68-21.05Zm408.43-3.25-4.52,45.23,95-22.45Zm-1167-1,17.09,43.19,70.17-21.21Zm-67.09,23,77.71,19.57-15.56-39.32Zm-117.38-35.92,39.73,46.27-14.84-32a2.88,2.88,0,0,1-2.53-.27Zm9.11,30.4,20.69,13.21L5001,2801.48Zm1573.16-21.14,92.66,23.34,12.58-48.22ZM4966,2771.92l32.39,37.71-11.72-24.74Zm975.89-13,3.76,44.94,83.61-22.94Zm418.47-5-4.83,48.25,98.9-24.57Zm-1378.75-4.54,40.5,47.18-15.3-32.95a2.92,2.92,0,0,1-2.52-.25Zm-27.76,8.1,58.7,36.85-93.24-108.61Zm863.88-215.89,972,248.1,35.38-53.39L4890.2,2228l-26.9,69.94,596.93,152.37a3.07,3.07,0,0,1,.83.21l114.43,29.21a2.84,2.84,0,0,1,1.89.34,2.16,2.16,0,0,1,.35.24l112.86,28.8.55-.19a2.94,2.94,0,0,1,2.47.25,3.22,3.22,0,0,1,1,.95l112.69,28.78,6.47-2.17a2.93,2.93,0,0,1,2.5.32,2.85,2.85,0,0,1,1.31,2.15Zm222.56,188.52,2.32,47.16,88.52-24.28Zm-90.88,24.73,87.37,22-2.29-46.52Zm421.24-4.31,92.9,23.39,7.57-49.61Zm-1226.51-39.38,17.42,43.77,67.17-22.47Zm-71.45,22.49,82.42,20.75-17.37-43.64Zm864.61-29.47,3.94,47,85.16-24.55Zm-978.17-2.1,41.61,48.46-16.34-35.2a2.88,2.88,0,0,1-3.15.1Zm1185.13-2.56.05,49.86,94.76-26Zm-201.06.17,195.31,49.18-.11-108.33-102.2,31a2.8,2.8,0,0,1-1.13.34Zm-973.56,35.51,21.84,13.46-34.5-40.19Zm-100.71-.8,16.95,10.83-27.76-32.33Zm38.31-30.88,32.31,37.64-12.13-25.2Zm-47.93,1.86,29.29,34.11-11.33-22.84Zm30.65-483.4,1941.52,510,51.83-17.27h-34.26a3.55,3.55,0,0,1-.73-.08h-.09l-1949-516.25-.09,0s0,0,0,0l-61.08-18.79Zm335,460.49,16.38,45.78,71.05-23.77Zm-175.2-1.06L5235.14,2728l-36.42-101.8Zm1103.62,14.42,93.12,23.45,2.49-51Zm-1231.93-16.54,34.15,39.78-12.7-26.82Zm-17.72-485.74,1944.18,515,42.45-53.07-93-24.88a2.91,2.91,0,0,1-1.24-.1,3,3,0,0,1-.92-.47l-114.82-30.74-3.14,2.54a2.93,2.93,0,0,1-2.85.45,2.89,2.89,0,0,1-1.83-2.22l-.52-3-674.43-180.51a3.15,3.15,0,0,1-1.22-.15,2.83,2.83,0,0,1-.69-.36l-247.14-66.15-1.25,1.18a2.9,2.9,0,0,1-4.81-1.41l-.36-1.49-121.43-32.5-.47.45a2.9,2.9,0,0,1-4.84-1.52l-.08-.36-238-63.71a2.9,2.9,0,0,1-1.7-.05,2.86,2.86,0,0,1-1.14-.71l-225.37-60.32-.47.45a2.9,2.9,0,0,1-4.89-1.74v-.15l-103.67-27.74-.2-.06-114.8-30.73Zm29.1,456.79,46.62,54.29-19.05-41a1.34,1.34,0,0,1-.11.14,2.9,2.9,0,0,1-3.7.64Zm-119.34,19.4,51.17,32.13-85.6-99.71Zm81.82,19.6,19.83,12.22L4883,2664Zm51.57-1.46,21.91,13.24L4731.7,2424.89a3.22,3.22,0,0,1-.54-.63l-228-265.63,17,32a2.91,2.91,0,0,1,.7,2l27.35,51.86a2.83,2.83,0,0,1,.7,1.88l26.72,50.77a2.9,2.9,0,0,1,.7,1.75l25.45,48.75,1.72,2a2.93,2.93,0,0,1,.64,2.51l24.6,47a3,3,0,0,1,.66,1.41l25,47.44a2.88,2.88,0,0,1,.69,1.74l23.55,45.11a3,3,0,0,1,.55,1.05l23,44.12,131.41,79.41a2.64,2.64,0,0,1,2.35,1l.72.85,34.75,21a3,3,0,0,1,.94.57l35.37,21.37a2.93,2.93,0,0,1,1.6.95l0,.05,37,22.37A3.5,3.5,0,0,1,4946.9,2687.83Zm362.78-35.22,15.1,47.68,74.83-25ZM5231.07,2678l87.54,22-15.06-47.54Zm701.41-31.85,4.14,49.46,87.27-26.44Zm-1047.95,10.81,33.1,38.55L4905,2669.31Zm-47.84,3.39,30.08,35L4855,2671.59Zm368.18-34.1,17.42,48.69,73.4-25.82Zm-356.1,9.1,31.86,37.1-12.39-25.33Zm149.45-67.12,409.48,103.11-66.85-243.93Zm401.41,51.71,13.89,50.69,80.49-26.92Zm538.84,21.74,93.29,23.5-2.56-52.39Zm-1113.78,4.46,18,11.07-29.92-34.85Zm84.38-45.82,47.86,55.75-19.56-42.12a2.89,2.89,0,0,1-3.65.62Zm12.44,36.55,22.94,13.57-36.87-42.95Zm-108.57-23.17,31.52,36.71-12.52-25.23Zm1990.44,12.45,88.56,23.7-12.32-87.53ZM6626,718.41l271.72,1931,64.14-32.07L6695.8,696.94ZM5100.3,2599.88l19.62,49.33,71.36-26.41Zm-74.59,26.38,87.61,22.06L5094,2599.66ZM5493.38,2587l12.2,52.79,84.8-28.37Zm-87.1,28.6,93.17,23.46-12-52Zm-627.2-22.41,30.22,35.21-12.24-24.34Zm1907,1.52,106.72,28.56-26.87-92.92Zm85.79-64.72,26.76,92.58,73.24-61.34Zm-1900.76,48.31,36.36,42.36-13.93-29.39Zm-113,26.87,16.23,10-27.75-32.32Zm624.9-46,14.61,53.3,82.18-28.93Zm208.88-7.28,10.39,55.53,90.24-30.19Zm-846,21.21,29.38,34.21-12.12-23.79Zm643.42-18.33,207,52.12-22.52-120.44Zm-505-6.55,49.3,57.42L4913,2561.5a1,1,0,0,1-.13.17,2.88,2.88,0,0,1-3.66.69Zm934.11-.57,5.43,56.63,91.46-31.9Zm-920.83,39.22,24.34,14.08L4820.41,2482.8l39.74,82.51,36.59,21.15A3.28,3.28,0,0,1,4897.53,2586.91Zm1779.65,5.43,1.91.52,175-141.06-212.62-66.16ZM6571.3,2564,6671,2590.7l-16.36-94.8Zm-875.59-47.62,8.11,57.09,93.29-31.21Zm-97.14,31.25,99.27,25-8.11-57.09Zm859.1-14,104.68,28-17.91-99.91Zm92.52-72.7,17.65,98.45,82.27-67.24Zm223.11,63.49,105.32,32.9a1.66,1.66,0,0,1,.31.12l-113.87-809.2-104.39,91,113,32.74a2.91,2.91,0,0,1,1,5l-96,78.26,114.91,34.27a2.9,2.9,0,0,1,1,5l-95.23,78.73L6811.42,2106a2.89,2.89,0,0,1,1,5.05l-96.57,76.47,111.08,34.27a2.9,2.9,0,0,1,1,5l-92,76.21,107,33.17a2.89,2.89,0,0,1,1,5l-89.81,73.39L6861,2447.87a2.9,2.9,0,0,1,1,5ZM4858.57,2494.7l51.07,59.48-21-45.12a2.9,2.9,0,0,1-3.31.37Zm506.8.19,15.57,56.82,85-31.49Zm-491.74,40.72,24.08,13.58-39.38-45.87Zm-64.75-29.73,36.93,43-14.67-30.46Zm770.81-19.11,10.76,57.58,90.28-31.79Zm423.9-74.71,449,120.17h0l-19.86-106.87-85,71.44a2.91,2.91,0,0,1-4.72-1.67L6323,2391.45l-83.89,71.5a2.91,2.91,0,0,1-2.83.53,2.94,2.94,0,0,1-1.9-2.18L6192,2247.83l-85.39,74.44,103.75,32.41a2.89,2.89,0,0,1,1.11,4.89l-86.2,80.31a2.91,2.91,0,0,1-2.88.63,2.87,2.87,0,0,1-1.94-2.2l-21.34-109.5Zm-952.11,63.67,22,55.27,75.05-30.84Zm-78,30.9,93.35,23.5-21.69-54.55ZM6376,2088.8l81.33,437.51,362.71-300.52ZM4820.13,2473.56l39.47,46L4844,2486.7Zm643.71-16.36,13.57,58.78,88.42-32.75ZM5372,2490.58l99.38,25-13.51-58.5Zm-573.81,2.6,21.91,12.36-36.87-42.93Zm34.11-54.21,51.95,60.52-22-47.44-.12.16a2.92,2.92,0,0,1-3.63.74Zm-49.75,13.93,38.8,45.21-15.64-32.47Zm-46.74-32.3,138.36,76.05-238.5-277.81Zm401.79,16.94,20.93,58.51,80.32-33Zm-192.75,5.35L5152,2495.06l-45.16-126.24-84.38,38.58a2.73,2.73,0,0,1-1.21.55Zm1383.94-52.32,19,98.6,80.38-67.56Zm-981.93,36.77,16.54,60.36,87-33.93Zm1205.2,28.06L6653.1,2487l-17.41-100.89ZM4647.19,2476l15.54,9.19L4635,2452.88Zm99.11-43,37.14,43.26L4768.15,2445Zm-112.56,9.54,28.18,32.83-12.35-23.67Zm595.57-45.2,19.5,61.61,85-34.93Zm-86.37,35.57,99.48,25-19-59.94Zm1054.61-186.74,41.6,209.16,168.67-143.74Zm-1392.43,136,53.73,62.59-23-49.52-.12.15a2.91,2.91,0,0,1-3.6.78Zm17.24,44.89,25.21,13.46-42-49Zm-200.19,2,16.69,9.66-85.58-99.68,38.73,72.57,29.42,17A3.24,3.24,0,0,1,4622.17,2429.13Zm1482.62-101.34,20.32,104.28,78.73-73.34Zm-992.24,39.74,22.37,62.53,82.51-35.76Zm-504.68,26.26,29.26,34.08-13-24.9Zm1722.68-8.74,100.5,31.4-18.78-101Zm312.46-5,102.27,31.83-17-102.47Zm-1876.73-18,42.08,49L4791.27,2375ZM6734,2308.52l16.81,101.29,85.26-69.66Zm-865.53,67.38,125.27,33.53-22.63-130.16Zm1080,14,81.81,19.32-25.65-177.81Zm-975.39-119.31a2.91,2.91,0,0,1,2.86,2.4L5999.39,2408,6191,2241a2.81,2.81,0,0,1,.78-1.18,3.05,3.05,0,0,1,1.34-.68l85.82-74.81a2.92,2.92,0,0,1,1-2.11,2.84,2.84,0,0,1,2.28-.72l87.29-76.1,0-.21a2.91,2.91,0,0,1,.93-2.7,2.85,2.85,0,0,1,2.78-.61l.27.09,88.61-77.25,0-.22a2.91,2.91,0,0,1,.93-2.68,2.88,2.88,0,0,1,2.78-.6l.26.08,89.56-78.09-.05-.28a2.9,2.9,0,0,1,.93-2.66,2.94,2.94,0,0,1,2.76-.61l.32.1,90-78.45-.17-1a2.89,2.89,0,0,1,.94-2.64,3,3,0,0,1,2.73-.62l1.06.31L6759,1745.82l-128.47-39.1-.2.15a2.91,2.91,0,0,1-4.54-1.59l-95.59-29.09h0l-254.07-78.33-2.73,2.29a2.9,2.9,0,0,1-4.72-1.75l-.5-3-109.27-33.69-1.52,1.28a2.89,2.89,0,0,1-4.72-1.75l-.26-1.53-465.51-143.52-.43.4,157.61,837.81a2.9,2.9,0,0,1,.85,4.51l21,111.48,105.19-99A2.88,2.88,0,0,1,5973.05,2270.56Zm-1289.48,89.35,37.07,43.18-15.79-31.8Zm313.6-21.83,25.06,63.05,79.52-36.36Zm-80.81,37.77,99.54,25.06-24.37-61.33Zm-319.2,5.23,16.4,9.26-29.89-34.82Zm180.63-56.76L4832.5,2388l-23.69-51-.14.18a2.89,2.89,0,0,1-3.58.81Zm-21,26.32,64.73,33.53-110.67-128.9Zm-175.56-6.86,30.6,35.65L4598.07,2353Zm1172.34,1.37,107,28.64-20.72-110.14Zm-1203.23-18.36,30.1,35.05-13.76-26.06ZM4673.51,2348l20.86,11.14-36.85-42.92Zm-137.21-1.14,14.83,8.38-27.73-32.3Zm119.63-41.39,38.48,44.81-16.63-33.49Zm-135.87,4.68,29.54,34.41-13.71-25.7Zm1198.28-82.72,28.66,116,89.94-84.91Zm-92.63,83.52,114.9,30.75-28-113.22Zm-1145.5-29.35,108.46,59.68L4381,2099.32Zm220.37,4,42,48.93-17.7-36.74Zm-79.12,2,36.65,42.69L4642,2298.2Zm125.59-25.73,58.49,68.12-23.72-51.08Zm-193.14,30,31.17,36.32-14.22-27.25Zm214.58,21.31,26.3,13.19L4750,2274.21Zm802.93-243,48.68,238.09,189.6-179.89Zm-69.81,207.55,112.48,30.1-23.45-114.7Zm807.14-3,101.84,31.69-19.17-103.13ZM4611.82,2276l56,29L4566.37,2186.9Zm95.71-33.57,47,54.71-19-40a2.89,2.89,0,0,1-.28-1.1Zm79,32,71.2,21.91,27.39-71.22-.58-.63-60.38-48.87L4770,2197.3Zm-158.68-24.9,39.39,45.88-17.27-34.79Zm2299.06,35,41.76,10.78-13-85.31Zm-2383-4.64,17.25,9.23L4529,2251.7Zm147.4-5.51,23.95,12-42-48.93Zm-22.37-50.86,46.09,53.69-19-39.4a2.74,2.74,0,0,1-.28-1.14Zm-143,15.64,32.48,37.84-15-28.78Zm856.77,6.68L5492,2275.14l-24.17-110.65Zm90.88-82.43,24.05,110.08,85.61-81.36Zm726.43,77.4,99.62,31-19.42-100.92Zm85.65-72.29,19.55,101.56,81.34-70.31ZM4494.88,2223.1l32.35,37.68L4512,2232Zm64.72-7.58,36.57,42.6-16.61-32.59Zm72.09-10.21,45,52.38-18.59-38a2.79,2.79,0,0,1-.28-1.57Zm1088,16.44,118.14,30.95L5815,2131.32Zm-1101.22,16.63,21.79,10.92-39.36-45.84Zm646-24.13,108.43,29-18.7-115.52a2.86,2.86,0,0,1-.83,1.48Zm39.67-432,74.4,459.52,381-364.07Zm-709.7,404.84,44.89,52.29-19.22-38.73a2.93,2.93,0,0,1-.3-1.13Zm-109.2,24.51,48.78,25.3-93.2-108.56Zm2429.81-36.08,169.4,49.14-25.2-192.3a2.87,2.87,0,0,1-.25-1.94l-26.74-204.05-25.46,75.85.15,1.11a2.92,2.92,0,0,1-1.15,2.73c-.12.08-.24.16-.37.23L6978,1988.17l0,.14a2.89,2.89,0,0,1-.94,2.58l-33.52,99.85a2.82,2.82,0,0,1-.42,1.25Zm-2417.4,10.11,33.1,38.56-15.52-29.74Zm-73.5,30.63,14.13,7.56-27.72-32.29Zm135.24-46.35,43.71,50.92-18.09-36a2.88,2.88,0,0,1-.07-2.45Zm-9.25,34.41,19.82,9.94-36.83-42.91Zm603.87-19.63,105.32,28.2-20.92-109.36Zm-747.74-7,29.24,34-14.33-26.32ZM5244.08,2102l20,104.59,81.56-78Zm-718.91,51.08,43,50.12-18-35.32a2.92,2.92,0,0,1,0-2.56Zm1763.6,10.32,101.07,31.32L6370.74,2092Zm-1852.65-8.78,32.26,37.57L4452.8,2163ZM4827,2170l71.16,21.9,21.8-65.38-55.56-66.67-59.56,27.07Zm647.85-12.23,114.7,30L5565.68,2071Zm-982.73-20.85,42,48.92L4516.64,2152a2.89,2.89,0,0,1,.17-2.94Zm2111,15.87,103.82,32-17.21-103.64Zm-2114.87,21.61,18.05,9.06-34.46-40.14Zm2206.85-96.31,17.38,104.69L6804.4,2110Zm-1648.66,77.79,96.56,25.85-12.82-106.59ZM5122.09,1959l26.78,222.59,179.21-172.34Zm-753.38,192.54,42.51,22.07L4325.67,2074Zm92.18-30,41.76,48.64-16.38-31.37a2.89,2.89,0,0,1,.94-3.74,2.71,2.71,0,0,1,.63-.33Zm-276.82-217.9,636.23,263.66L4799,2087.47l-604.47-236Zm193.74,222.09,30,35-14.92-27.39Zm51.76-19.54,42,49-16.91-32a2.89,2.89,0,0,1,.93-3.75,2.56,2.56,0,0,1,.39-.22ZM4929,2124.46l108.41,29-11.9-111a2.88,2.88,0,0,1,1-2.51,2.85,2.85,0,0,1,2.62-.61l99.9,26.14-13.22-109.92a2.91,2.91,0,0,1,3.57-3.16l101.43,24.74-14.61-109.28a2.88,2.88,0,0,1,.91-2.52,2.92,2.92,0,0,1,2.6-.69l105.8,24-17.63-108.91Zm-502.29,19,16.39,8.23L4411,2114.26Zm605-97.45L5043,2151.17l83.37-80.39Zm1458.38,71.92,104.61,32.27-18.43-106.75Zm594.39,19.35,32.37,12.22-10-81.86ZM6562,1926.52l38.2,221.21,88.47-73.15v-.08a2.89,2.89,0,0,1,3.67-3.26l.28.08,94.08-77.79-113.53-33.86a2.88,2.88,0,0,1-4.09-1.22ZM4398.87,2091.23l41.26,48.06-16.8-31.48a2.9,2.9,0,0,1,.93-3.76,2.5,2.5,0,0,1,.35-.21Zm2666.71-55.5,13.18,100.52,26.65-83a2.5,2.5,0,0,1,.31-.66Zm-1819.82,60.76,106.38,27.84a2.9,2.9,0,0,1,1.76,1.33l-18.65-115.23Zm-876.58-19.81,40.24,46.87-16.29-30.2a2.91,2.91,0,0,1,.91-3.77,2.75,2.75,0,0,1,.73-.36Zm1325.2,17.54,119.11,29.09-22.75-121Zm-1326,20.37,14.83,7.45-29.86-34.78Zm500.81-58.05,54.29,65.15L5573.69,1514l-.2-1.06a2.91,2.91,0,0,1,3.31-3.41l1.42.23,101.93-95.26-.4-2.16a2.88,2.88,0,0,1,3.7-3.3l1.92.59,787.53-736a2.89,2.89,0,0,1,4.78,1.36l34.74,128.28L6549,651.64l-64.33,26.8a2.91,2.91,0,0,1-3.17-.63l-67.62-67.62-104.6,97.94a2.62,2.62,0,0,1-.49.75,2.9,2.9,0,0,1-1.15.79l-787,736.88.08.6a2.9,2.9,0,0,1-3.46,3.23l-.58-.12-98,91.74a3.38,3.38,0,0,1-.56.7,2.91,2.91,0,0,1-.69.47ZM6380,2083.94l101.94,31.45-18.66-104Zm88.6-75.82,18.75,104.58,84.35-72.91Zm-2129.18,54,.18.19,40,46.61L4362.76,2078a2.9,2.9,0,0,1,.9-3.77c.08-.06.16-.1.24-.15Zm-28.18-13.81a3.34,3.34,0,0,1,.32.33l38.84,45.23-15.55-28.27a2.92,2.92,0,0,1,.89-3.79,3,3,0,0,1,2.06-.48Zm2.09,38.8,13.42,6.74-27.7-32.26Zm1259.24-22.61,113.19,27.65-22-114.75Zm96.8-88.55,21.77,113.42,91.93-87.64Zm1229.15,95.54,38.57,14.55-13.94-91.68ZM4578.33,451.05l225.43,1630,58.28-26.5L4845.4,1939.7a2.92,2.92,0,0,1-.73-1.35,2.85,2.85,0,0,1,.25-2L4625.1,419.11Zm156.05,1605,63.49,24.8L4622.15,810.22a2.84,2.84,0,0,1-.12.81L4592.34,912l36.92-12.79a2.9,2.9,0,0,1,3.73,3.57l-29.44,98.3,38.18-10.87a2.91,2.91,0,0,1,3.57,3.64L4615,1093.26l38.9-8.62a2.91,2.91,0,0,1,3.4,3.69l-30.76,99.05,41.71-6.6a2.86,2.86,0,0,1,2.65,1,2.9,2.9,0,0,1,.57,2.77l-30.56,96.65,41.48-4a2.84,2.84,0,0,1,2.53,1.07,2.88,2.88,0,0,1,.5,2.71l-32.33,100,42.92-1.3a2.76,2.76,0,0,1,2.42,1.16,3,3,0,0,1,.43,2.65l-33.33,101.06,44.55,1.63a2.9,2.9,0,0,1,2.64,3.82l-33.92,100.64,46.84,4.86a2.89,2.89,0,0,1,2.44,3.83l-35.8,103.92,47.44,8.25a2.88,2.88,0,0,1,2,1.39,2.91,2.91,0,0,1,.23,2.43l-35.57,100.75,49.08,11.93a2.94,2.94,0,0,1,1.87,1.45,2.9,2.9,0,0,1,.17,2.36l-36.67,101.38,50.05,15.72a2.91,2.91,0,0,1,1.85,3.77l-38.21,103A2.71,2.71,0,0,1,4734.38,2056Zm2189.73-77.27h.23a2.89,2.89,0,0,1,2.64,2.45L6941.7,2078l29.36-87.45-89.38-26.42a2.88,2.88,0,0,1-2-3.63l30.08-97.29-46.51-16.07a2.9,2.9,0,0,1-1.83-3.58l29.67-98.87-47.28-21.35,48.33,348.75,29.16-91.35A2.9,2.9,0,0,1,6924.11,1978.74Zm141.33,50.64,72.63,30.56-21.78-189.08Zm-2381.86,6.79,45.18,17.65-13.13-106.2-31.9,88.19A1.94,1.94,0,0,1,4683.58,2036.17Zm168-94.27,15.72,108.49,259.54-243a2.76,2.76,0,0,1-1.21,0l-101.38-26.75,14.28,106.28a2.9,2.9,0,0,1-3.65,3.18l-98.82-27.48,14,103.89a2.88,2.88,0,0,1-1,2.58,2.91,2.91,0,0,1-2.7.58Zm-131.14-2.69,12.77,103.33,33-89Zm1752.06,64,102.29,31.43-18.09-104.83Zm-1836.92,14.18L4678,2034l-12.06-102.6Zm22-207.22,24.91,212.08,31.68-87.58a2.93,2.93,0,0,1,.42-1.18l36.39-100.6ZM7051.6,1929l11.59,88.42,23.17-72.23Zm-2461.47,70.68,39.6,15.46-11-98.51Zm639.5-20.4,104.71,25.55-17.72-109.43Zm-605.91-70.43,10.56,94.82,29.06-82.39Zm-76.51,74.07L4584,1997.3l-10-94.14ZM5671,1970.35l118.55,26.89a.67.67,0,0,1,.19,0l-22.39-119ZM4567.68,1788.14l21,198,61.32-178Zm2318.46,171.27,85.45,25.26L6956.69,1884a2.9,2.9,0,0,1-.2-1.37l-15.09-101.92Zm-2379,7.86,34.08,13.3-9-89.51Zm2456-79.44,13,87.69,23.7-70.61Zm170.27,72.86,31.55,14.69-9.15-84.4Zm-1920.87-89.46,13.8,103.19,84-81Zm-675.45,10.44,8.76,87.18,25.69-76.38Zm-67.75,70.84,31.78,12.42-8.18-85.67Zm383.9-16.17,90.46,26.44-13.17-98Zm-365-167.29,17.54,183.71,54.69-166.14Zm2077.85,152.63L6667.89,1952l-17.28-104Zm89.72-77.84,17.92,107.94,93-75.78Zm-2222.74,94.52,30.09,11.74-7.53-83.06Zm2618.77-15.64,34.39,16-10.91-89.34Zm-2591.24-65,7.29,80.41,22.86-70.95Zm-61.15,67.56L4427,1936l-6.76-78.1Zm436.61-90.51,14,96.65,77-71.33Zm-411.22,8.47,6.93,80.06,108.15-342-.15-1.43a2.9,2.9,0,0,1,.83-2.36,3.36,3.36,0,0,1,.68-.51l29.29-92.62a2.92,2.92,0,0,1,.62-2l30.5-96.45,0-.17a2.89,2.89,0,0,1,.68-2.23c.05,0,.1-.11.15-.15l31.34-99.12a3.05,3.05,0,0,1,.39-1.24l30.29-95.77L4503,1212.77a2.8,2.8,0,0,1-1.67.36l-.3-.05-128.94,20.39,6.4,74,0,0a2.9,2.9,0,0,1,.57,2.65l-.28,1,6.83,79,.1.12a2.91,2.91,0,0,1,.5,2.58l-.28,1,7.08,81.8.09.12a3,3,0,0,1,.44,2.51l-.23.8,7.18,83a2.82,2.82,0,0,1,.87.85,2.9,2.9,0,0,1,.38,2.43L4401,1568l7.52,87,0,0a2.9,2.9,0,0,1,.31,2.35l-.09.32,7.66,88.61a2.42,2.42,0,0,1,.29.42,2.88,2.88,0,0,1,.26,2.28l-.24.79,7.93,91.67A2.91,2.91,0,0,1,4424.83,1843.19Zm-57.6,69.46,25.92,10.12-6.15-75.19Zm256.31-9.93,40.52,12.71-11.42-97.15Zm-231.65-66.6,6.07,74.28,20.42-66Zm-55.49,64.49,24.58,9.6-5.67-73Zm2626.52-19.28,37.6,17.51-12.94-94.75Zm-2656.06,7.75,23.16,9-5.19-70.33Zm46.42-152.82,12.52,161.14,20-65.7a2.89,2.89,0,0,1,.28-.92l24.49-80.6Zm184,139.39,35,11-9.41-88.82Zm-258.62,2.41,21.7,8.47-4.72-67.4Zm51.19-61.4,5.06,68.71L4353.2,1824ZM4839,1829.52l193.21,53.74L5004,1673.49Zm2057.69-88.69,302.76,136.73-52.16-492.17-1.39-.8a2.89,2.89,0,0,1-1.31-3.41l1.7-5.26-35-329.89-92.6,235.5.08.67a2.9,2.9,0,0,1-1.34,2.79l-.13.07-132.75,337.6.46,3.43a2.91,2.91,0,0,1-3.1,3.28l-35,89,48,21.7A2.85,2.85,0,0,1,6896.67,1740.83ZM4252,1867.65l20.2,7.89-4.26-64.16Zm42.62-145.84,10.66,152.08,40.92-139.55Zm1352,126.27,119.6,25.06.24.06-85-451.92L5585.47,1511,5691,1528a2.9,2.9,0,0,1,1.55,5l-89.19,86,111.81,19.78a2.9,2.9,0,0,1,1.51,4.94l-91.75,88.23,113.42,21.89a2.9,2.9,0,0,1,1.46,4.94Zm1299-78.8,14.9,100.64,25.48-79.81a2.91,2.91,0,0,1,1.72-1.82Zm-2718.94,88.47,18.95,7.4-3.87-61.5Zm46.29-58.93,4.21,63.55,16.44-57.08Zm187.59,52.75,30.69,9.62-7.82-81.93Zm2407.32-9,41.24,14.25-15.31-100.7ZM4241.58,1709.12l8.95,142.4,37.18-131.19ZM6898.39,1748l15.51,102,25.73-83.22s0-.11.05-.16Zm-1368.8,75.58,108.29,22.7-20.55-107.08Zm93.31-86.16,20.31,105.9,88.53-84.89Zm-1401.29,45.34,3.5,58.86,14.81-53.12Zm170.69,47.44,26.3,8.25-6.39-73.78Zm428.11-103.4,14.31,98.79,78.57-74.28Zm595.45,73,105.39,22.08-18.69-105.68Zm72.86-195.18,37.82,213.89,182-175-111.11-19.65a2.86,2.86,0,0,1-1.16-.12,3.53,3.53,0,0,1-.39-.15Zm-1158.85,206,23.95,7.52-5.47-70.5Zm327.61-6.35,41.85,10.18-12-96.78Zm34.63-95.07L4704,1805.3l31.29-88.61Zm422.74-12.32,14.39,107.27a2.85,2.85,0,0,1-.05,1.05l88.31-82.69Zm-503.34,96,39.23,9.53-11-93.33Zm415.75-17.47,95.66,25.24-13.59-101.24Zm-754.07,17.47,21.05,6.6-4.54-64.82Zm1028.84-17L5407.67,1798l-17-105Zm94.54-82.59,16.4,101.17,84.7-81.66Zm1809.55,87.53,26.68,13-7.6-71.68ZM4631.74,1591.66l23.67,200.78,66-191.49ZM4568,1782.24l36.46,8.86-10-89.25Zm31.33-89.22,9.89,88.46,27.6-81.94Zm-72.16,79.53,33.92,8.25-9-85.37Zm482.32-102L5023,1771.37l82.9-76.75Zm-521,92.6,31.79,7.72-8.27-82.08Zm57.44-180.4,19.88,187.57,59.11-179.38Zm-29.11,95.92,8.22,81.59,24.48-75.9Zm308,43.25,90.13,23.78-13.18-98.06Zm82.45-76.9,13.36,99.37,80.36-76ZM4384.79,1738l25.65,6.23-6.18-71.44Zm2251.5-35.53,127.8,38.89-88.71-630.47a2.93,2.93,0,0,1-1.08,1.74l-117.25,90.83,15.93,4.94a2.92,2.92,0,0,1,1.87,1.77L6689,1245.5a2.88,2.88,0,0,1,2,2.19,2.92,2.92,0,0,1-1,2.8l-207.64,174.26a3.26,3.26,0,0,1,1.12.1l111.38,33.33-14-114a2.9,2.9,0,0,1,3.65-3.15l124,34.35a2.9,2.9,0,0,1,1,5.09l-104.89,80.64L6724.49,1497a2.9,2.9,0,0,1,.95,5.07l-103.86,80.64,118.83,36.57a2.9,2.9,0,0,1,.88,5.1Zm-2282.88,27.9,24.61,6-5.76-70.25Zm-29.85-7.45,23.28,5.65-5.3-68Zm53.56-68.49,5.73,69.8,19.53-65.4ZM4295,1715.93l21.81,5.29L4312,1656Zm509.91-96.46,14.44,99.65,79-76.31Zm404.26-11.78,14.6,109,90.1-84.37Zm-400.76,6.68,409.5,102.22L5158,1269.86Zm-468.74-53,12,154.31,43.49-148.31,0-.25Zm2856.14,121.38,61,32.34L7239.88,1547Zm-2927.92,26.77,20.44,5-4.38-62.52Zm2509.51-466.19,65.17,470.35,34-86.36-46.93-18.87a2.9,2.9,0,0,1-1.61-3.77l36.41-90.89A2.9,2.9,0,0,1,6867,1512l-53.7-24.64a2.9,2.9,0,0,1-1.46-3.77l37.45-88-52.67-27.2a2.89,2.89,0,0,1-1.31-3.77l37.82-83.56a2.9,2.9,0,0,1,5.51.79l14.8,104,31.69-74.5a2.9,2.9,0,0,1,5.54.75l13.14,98.27,30.58-71.13a2.85,2.85,0,0,1,3.06-1.73,2.91,2.91,0,0,1,2.48,2.49l12.49,94.25,59.32-150.85-42.23-26.76,11.93,98.56a2.9,2.9,0,0,1-4.33,2.86ZM4316.88,1643.91l4.77,64.65,17.53-60.77Zm1079.81,43.48L5501,1707.52l-17.86-101ZM4283,1555.5l10.2,145.53,39.8-140.34Zm2334.11,31.86,13.78,111.88,102.38-76.13Zm-85.19,83.28L6625,1699l-13.36-108.54-96.61,75ZM4262.1,1634.38l4,59.9,15.76-56.46Zm337.21,52.75,38.63,6.73-10.76-91.31ZM4517,1672.82l33.21,5.78-8.8-83ZM6396.73,1629l110.7,34.13-13.25-112.59-95.87,77.82A2.86,2.86,0,0,1,6396.73,1629ZM6486,1431.68l26.83,228.06,97.91-76v-.09a2.9,2.9,0,0,1,1-2.58,2.86,2.86,0,0,1,2.72-.55l.31.09,102.62-79.68-119.58-35.78a3.28,3.28,0,0,1-.68-.19l-.09,0ZM4377.39,1648.54l25.16,4.37-6-69.61ZM7260.23,1632l26,14.93-6.95-73.52Zm-2943.18,6,23.05,4-5.22-66.89Zm1964.33-44.64,113.27,34.92a2.91,2.91,0,0,1-1-1.92l-13.06-116.21Zm-976.15-74.36,14.43,107.77,90.41-84.64Zm-92.83,83.45,101.34,23.8-14-104.68Zm1622,1.66,44.19,17.77-12.94-95.76Zm-447.69-90.9,12.05,107.23,91.09-74Zm-895.54,85.83,102.3,18.09-18.5-96.42Zm88.81-83,19,99,85.35-82.3L5580.11,1516Zm-791.16-7.28,14.8,102.09,80.69-79.51-94.62-22.22A3,3,0,0,1,4788.83,1508.8ZM6869.27,1513a2.9,2.9,0,0,1,.66,1.48l13,96.37,30.51-77.57Zm331.49.75.31,0a2.9,2.9,0,0,1,2.58,2.58l9.87,93,25.11-77.3a3,3,0,0,1,3-2l-73.55-45.52a2.91,2.91,0,0,1-1.23-3.36l23.22-71.61a3.17,3.17,0,0,1-1.49-.38L7153.48,1389l21.09,199,23.44-72.19A2.89,2.89,0,0,1,7200.76,1513.76Zm-21.42,78.3,28.23,16.22-8.25-77.77ZM5194,1494.51l14,104.22,88.19-81.69Zm1079.33,96.4,1.51.47,407.41-341.92-112-34.7a2.89,2.89,0,0,1-1.87-1.77l-138.66-43-5.23,4.54a2.9,2.9,0,0,1-4.79-1.9l-.59-5.93L6074.86,1060l60.45,362.19,1.41.39a2.89,2.89,0,0,1,1.21,4.91l-1.5,1.41,21.14,126.3,92.38-77.53a2.9,2.9,0,0,1,4.73,1.75Zm-1641.16-5.05,39.6,4.11-11.23-90.16Zm1532.05-28.58L6267.08,1589l-17.29-103.58Zm-1575.83,24,36.91,3.83L4615,1498.68Zm-41-4.25,34,3.53-9.21-82.07Zm117.85-86.66,11.14,89.46,29.65-88Zm-57.38-102.19,22,186.11L4692,1385.66Zm-31.07,99,9.26,82.57,26.24-81.28Zm2596.36-6.4,131.82,81.59-34-383.24Zm-2802.71,77.94,24.25,2.51-5.77-66.59Zm-30.3-3.14,23.49,2.43-5.44-66Zm-28.75-3,22.07,2.29-5-63.51ZM6040.1,1519l111.21,34.29-20-119.61ZM4362.91,1479.4l5.4,65.56,18.66-64.68Zm2022,27.17,108.26,34.93L6479.76,1428a2.94,2.94,0,0,1,.09-1.11Zm-2058-109.85,11.3,144.45,41.45-146.05Zm-22,80.56,4.51,60.82,16.77-60Zm892.27,12,215.69,47.56-29.87-223.29ZM5404,1427l14.37,107.42,91.44-85.62Zm1414.34,56.23,95.28,43.7-27.23-203.65ZM4796.09,1504.7l89.79,21.1-13.19-98.11Zm82.08-79.84,13.36,99.42,80-78.83Zm2027.59-.17,12.79,95.67,29.11-74Zm-986,57.22L6032,1516.52l-21.2-119.74Zm96.7-86.49,20.93,118.23,92.83-86.82Zm-1243.18,5.79,14.95,103.2.11-.12,81-81.39-94.54-20.85A2.92,2.92,0,0,1,4773.25,1401.21ZM7309,1480.61l25.31,16.87-6.28-75.4Zm-2130.28-100,14.05,104.82,88.49-83.69Zm-601.12,100.81,35.56,1.3-9.79-82.79Zm1227-35,106,32.69-17.78-115.22Zm75.68-202.2,36,233.06,188.73-176.47Zm-1516.9,229.4,23.77.86-5.61-64.86Zm2223.78-125.85,13.43,109.11,100.78-77.48Zm-1180.13,74,107.48,22.14L5500,1335.58Zm284.76-10.1,103.76,32-15.2-114.75Zm94.75-80.18,14.61,110.24,87.7-82Zm-1005.43,66.06,191.76,42.29-28.21-210L4863,1313.51a3.23,3.23,0,0,1-.54.68,2.74,2.74,0,0,1-.48.36Zm2125.52,21.08,40.72,21-11.73-88.48Zm-1401.53-88.95,14.68,109.84,94.84-88.8Zm-540.24,6.89,13.7,102,83.26-82Zm1053.34,53.35,111,30.65-19.41-116.28Zm-630.24-82.73h0l14.8,110.63,96.38-89.28Zm1906.63,64.13,58,41.37-13.82-177.39Zm-121.39-71.86h.22a2.88,2.88,0,0,1,2.64,2.43l16.3,100.78,25.57-78.84-76.66-50.48,9.43,89,19.74-60.94A2.9,2.9,0,0,1,7173.16,1299.42Zm-20.43,82.42,33.47,19.27-14-86.47-20.05,61.9ZM4741.58,1182.66l31.19,215.24a2.72,2.72,0,0,1,.51-.71l81.3-83.37-93.29-19.23a2.89,2.89,0,0,1-1.51-4.84l83.43-87.22-100.35-19.27A2.91,2.91,0,0,1,4741.58,1182.66Zm440.83,192.79,101,20.8-14-104.74Zm92-90.11L5289,1394.4l93.39-88.32Zm-900,41.75L4356.78,1390l23-.7Zm2427.39,37.37,46.21,23.86-13.64-95.83Zm-2166.24-66.28-26.63,84.2,37-1.12Zm-286.06,16.67,5.09,61.61,17.83-63.81Zm813.6-50.89,14.49,108.12,91-87.86ZM4640,1287.09l10.42,83.39,28.14-87.08Zm2645.38-10.75,7.28,82.08,19.93-61.35ZM5784.56,1324.9l106.81,29.49-17.44-113Zm-816.48,6.38,94.94,19.57-13.6-101.34Zm1809.62-94.44L6975,1350.09l-25.71-212.41a2.89,2.89,0,0,1-.46-2.91l.08-.21-27.52-227.31Zm-1723.28,6.26,14.3,106.59,88.19-86.91Zm-305.06-64.5L5615.51,1345l-23.88-107.47a2.8,2.8,0,0,1-.41-.83,3,3,0,0,1-.07-1.32l-67.77-305a2.88,2.88,0,0,1-1.59-1.74,2.92,2.92,0,0,1,.57-2.82l-93.27-419.76ZM5598,1239.5l23.31,104.87,275.39-257.85a2.93,2.93,0,0,1-2.35.67l-114.49-17.83,22.34,101.8a2.9,2.9,0,0,1-3.31,3.48l-111.71-18.75,21.86,99.5a2.88,2.88,0,0,1-.74,2.63,2.93,2.93,0,0,1-2.61.85Zm1753.78,80.17,24.62,18.75-5.61-77.2ZM4949.55,1223l0,.17,14,104.43,85.1-85.56Zm2195.88,46.18,72,47.43-19.78-197.34Zm68.35-47.32,8.78,87.59,21-64.88ZM4767.59,1290l89.46,18.44-13.2-98.15Zm81.22-86.36,13.72,102.06,81.67-83.74Zm1145.91,63.45,113.58,28.61-18.52-111Zm1290.92,2.21,26.75,20.38-6.81-81.81Zm-311.07-16.36,37.74,23.92-10.68-91.45Zm28.62-82.11.38,0a2.9,2.9,0,0,1,2.5,2.54l11.2,95.94,29.27-74.42a2.75,2.75,0,0,1-1.17-.39l-89.76-52.89,13.29,109.84,31.59-78.83A2.91,2.91,0,0,1,7003.19,1170.8Zm125.57-15.14,11.67,110.18,28.71-82.35a3.45,3.45,0,0,1-.5.35,2.92,2.92,0,0,1-3.19-.22Zm-1250.85,82,107.44,27-10.78-111.62a2.9,2.9,0,0,1,3.55-3.1l110.13,25.56-19.42-116.32Zm102.82-81.11L5991,1262.63l94.36-81.81ZM5600.23,1234l102.22,18.39-20.7-94.22Zm1613.7-19.36,29.13,22.19-8.2-86.82ZM5575.26,1137.1l20.66,93,81.53-75.83Zm1184.35-21.87L6775.23,1228l37-84.86-.12-.06Zm-2337.79,39-19.16,68.53,25.38-4Zm33.52-7.9-20.27,71.31,27.06-4.28Zm35.54-8.81-21.58,74.71,29.08-4.6Zm-96.44,10.53,5.69,62.2L4419,1142.6Zm134.15-19.37-22.88,77.79,31.09-4.91Zm-110.06-69,14,145.52,46.23-162.67Zm2016.33,105.81,113.53,35.19-12-123.36Zm-1975-32,6.79,66.91,21.11-73.09Zm108.28-13.75-24.12,80.6,33.07-5.22Zm1974.14-41.61,11.7,120.24,112.15-86.87Zm-2056-38,16.61,155.2,51.34-174.55Zm123.23,70.91-25.27,82.9,34.94-5.52Zm-76.38,6.17,8.12,72.1,23.68-79.14Zm2422,17.28,88,51.86-13.85-99.55-2.16-1.62a2.9,2.9,0,0,1-.95-3.4l1.79-4.47-13-93.48ZM4562,1018.9l19.5,164.26,26.31-86.31a3,3,0,0,1,.31-1l30.07-98.61Zm163.62,53.63L4741,1178.77a2.79,2.79,0,0,1,.35-.42l515.21-509.77-99.11-10.65,15.33,89.48a2.86,2.86,0,0,1-.75,2.48,2.81,2.81,0,0,1-2.43.89l-98.7-11.19,15.31,92.79a2.91,2.91,0,0,1-3.21,3.36l-99.37-11.89L4998,914.26a2.91,2.91,0,0,1-.78,2.47,2.88,2.88,0,0,1-2.45.86l-97.33-12.22,13.92,91.4a2.9,2.9,0,0,1-.8,2.47,2.82,2.82,0,0,1-2.45.84l-92.58-12.19a2.84,2.84,0,0,1,.9,1.71l13.83,94.68a2.9,2.9,0,0,1-3.26,3.3l-99.27-13.69A2.88,2.88,0,0,1,4725.63,1072.53Zm-111.72,26.9,9.71,77.71,26.64-85.76Zm2517.94,51.3,31.77,24.2-9.78-92.21Zm-1554-19.07,217.74,36.55-44.18-201.3Zm846.6,30.66,3.86,1.2,215.42-187.07-120-33.25-2.05,1.66a2.9,2.9,0,0,1-4.72-2l-.12-1.55L6402,909.46l-.1.09a10.24,10.24,0,0,0-6.77-1.07l-114.2-35.73,12.47,125.13a2.83,2.83,0,0,1,1.09,1.71,2.89,2.89,0,0,1-.66,2.53L6305.65,1121l100.92-91.52a2.9,2.9,0,0,1,4.84,1.85Zm-116.12-36,110.1,34.12-12.25-122.85Zm490.94-98.77a2.8,2.8,0,0,1,.41,1.11l15.92,106.65,34.07-78.15a2.81,2.81,0,0,1-.39-.19Zm-38,82,48.42,25.68-14.38-96.4Zm-1209-75.65,20.92,94.13,82.24-78.07Zm-1070.49,19.14-21.13,74.36,28.41-6.3Zm1709.4,37,108.86,33.74-11.67-117ZM6941,1020.52l12.44,102.77,28.57-72Zm-2383.42,9.8-23.81,80.93,32.56-7.21Zm1984.8,41.89,130.95,35.27a2.92,2.92,0,0,1,1.83,1.48l-36.5-259.35a2.36,2.36,0,0,1-.32.31l-109,88.79,121.26,33.59a2.89,2.89,0,0,1,1.13,5Zm691-12.12,50.58,48.77-26-28.11Zm-198.67,23.63,32.63,24.53-9.71-89.22-23.69,59.12Zm-291.84-89.36L6758,1103.23l36.28-75.38a2.86,2.86,0,0,1,2.76-1.64Zm-668.31,59.51,108.81,33.73-11.85-121.71a2.93,2.93,0,0,1,1-2.52,2.89,2.89,0,0,1,2.67-.54l112.13,33.08L6274.69,869a2.89,2.89,0,0,1,3.75-3.05l116.06,36.3a2.92,2.92,0,0,1,1.93-.29l-15.16-130.11a2.9,2.9,0,0,1,3.77-3.1l122.76,39.68-34.46-127.22ZM5875.11,981l22.53,102.72a2.88,2.88,0,0,1-.72,2.61l-.05,0,94.7-88.66Zm302.59-11.37,11.18,114.82,96.81-83ZM4734.48,1069,4824,1081.3,4811.48,996Zm1048.69-5,107.9,16.8-21.35-97.32ZM4711.38,974.17l13.92,96.11a2.92,2.92,0,0,1,.81-1.37l85.44-81a2.69,2.69,0,0,1,.65-.47ZM5756.73,964l21.27,96.91,87.41-81.3Zm1082.21-20.13,14.1,105.67,31.22-71.61Zm-96,43.83L6847.11,1049l-30.17-226.2Zm-1187.44,40.88,101.7,15.83-20.71-94.27ZM4473,970.73l-20.51,73.3,27.52-7.83Zm2468.3,42.81,39.43,29.63L6969.51,947Zm-1299.46-66,21,95.52,84.66-80.35Zm1326-132.18,228.8,221-114-124.43ZM4509,957.42l-21.77,76.52,29.46-8.39Zm-65.66,12.3,6.38,62.7,20.11-71.88Zm1086.18-38.35,20.9,94,81.85-79.28Zm-982.36,12.18-23.1,79.9,31.54-9ZM4468.61,875l15.81,147.69,49.63-174.48Zm44.89,70.42,7.61,67.41L4543.62,935ZM4587,930l-24.31,82.65,33.47-9.52Zm-45.71-84.77,18.61,156.36,54.83-186.42Zm174.41,123.65L4905,993.83,4877.81,815.1ZM5974.08,887l23.11,105.43,96-89.84Zm-443.34,38.68,460.37,66.09-93.88-428.31Zm-939.32-7.26,9.09,72.54,25.3-84.45Zm2132.46-61,16.79,121.21,36.44-81.2Zm114.88,79.09,44.75,33.63L6870.43,866Zm-2141-56.17,12.43,85.84,78.44-74.42ZM7047.51,904.1l57.8,56-28.37-31.24ZM4537.09,858.75,4514.25,939l31.11-10.78Zm1985.23,78,.08,0L6630.27,849l-115.51-32.05-.21.19-.32.26h0l0,0s0,0,0,0h0l0,0s0,0,0,0l0,0,0,0h0l0,0h0a3,3,0,0,1-.82.3Zm-115-31.88,109.1,30.23-8.95-116ZM5506.06,825.7,5527.23,921l82.65-81.68ZM4901,900l90.63,11.39-13.41-84.59Zm2129.9,8.71,2.74,2.24-2.66-2.59A2,2,0,0,1,7030.92,908.68ZM6387.56,775.62l14.67,126,102.73-88ZM6075.12,793.4,6098,898l96.58-90.43ZM4883.18,811.84l12.91,84.81,78-73.94Zm1094.5,69.78,114.1,14.94-22-100.6ZM6725,851l51,38.32-15.25-112.85ZM4702.89,875.09,4791,886.15,4778.81,803ZM4784.24,800l12.3,84.21L4874,810.74ZM6727.38,605.74l286.38,277.79-29.2-32.29a2.77,2.77,0,0,1-.62-.88l-40.12-44.45a3,3,0,0,1-.58-.8l-40.37-44.49a3,3,0,0,1-.76-1.24l-36-40a2.84,2.84,0,0,1-.49-.62l-36.52-40.46a3,3,0,0,1-.59-.8l-34.06-37.85a3.79,3.79,0,0,1-.38-.45l-33.3-37L6588.18,456.31a3,3,0,0,1-.91-.6l-1.42-1.37-43.64-36.88a2.86,2.86,0,0,1-.43-.35l-.17-.17-43.88-37.08a3,3,0,0,1-.57-.44l-.44-.42-24-20.3ZM5950.32,778.59l22,100.14,93-86.5ZM6982.16,869l10.76,8.77-10.32-10A2.73,2.73,0,0,1,6982.16,869ZM4684.42,788.08,4696.71,873l78-74.07Zm-157.13-12.42-21.85,78,29.7-12.16ZM6519.9,812.32l117.33,32.56a2.87,2.87,0,0,1,.76.33l-17.31-123.06Zm412.32,16,19.16,15.61-18.1-17.6a2.89,2.89,0,0,1-.89,1.84Zm-2437-48.17,7.13,63,21.41-76.45Zm70.35-22.9-23.15,81.31,31.74-13Zm944.81,63.21,101.16,13.25-20.72-94.33Zm85.77-83.87,21,95.57,84.07-83.1ZM4688,782.67l391.84,46.85L5020.1,467ZM4522,682.48l17.37,145.57,51.88-182.23Zm85,39a2.89,2.89,0,0,1,2.79,3.7l-28.15,97.24,36.53-15a2.9,2.9,0,0,1,3,.54,2.93,2.93,0,0,1,.85,1.35l-23.32-168.6s0,0,0,.06L4571,738.1l34.73-16.3A2.93,2.93,0,0,1,4607,721.53Zm876.29,1.62,21.13,95.07,82.15-82.81ZM4569.9,745l8.51,67.69,24-83Zm2313.17,43.2,26.57,21.65-25-24.3a2.89,2.89,0,0,1-.9,2.15A3.05,3.05,0,0,1,6883.07,788.24Zm-23.31-41.5,64.51,62.7-30.09-33.81Zm-305-94.27-37.2,154.14,101-90.36Zm-601,120.68L6196,801.91l-46.89-214.25Zm225.07-76.86,22.9,104.61,98-91.77Zm-1508-2.07,12.33,85.1,78.67-74.78Zm2159.4,51,35.91,29.25-33-32.11a2.89,2.89,0,0,1-.9,2.07A3.29,3.29,0,0,1,6830.22,745.19Zm65.58-10.61,38.45,37.08-18-19.85Zm-969.4-65.11,22.08,100.72,93.19-88.48Zm-851.77,64.7,91.8,10.41-14.36-83.82Zm412.53-16.39,215.44,25.56-44.24-201.52-85.9,88.29a2.54,2.54,0,0,1-.36.5,2.69,2.69,0,0,1-.67.55ZM5686.73,644l21.53,98.06,87.5-86.48Zm984.51-28.33,152.15,123.94L6782.72,700a2.9,2.9,0,0,1-4.92,2.19l-46.45-45.36a2.9,2.9,0,0,1-4.92,2.26l-88.77-86.81a2.9,2.9,0,0,1,2-5h0L6601.58,530a2.89,2.89,0,0,1-.13-4,3,3,0,0,1,2-1l-36.72-35.82a2.89,2.89,0,0,1-.12-4,2.86,2.86,0,0,1,1.75-.93l-36.86-35.91a2.91,2.91,0,0,1,1.61-4.95l-32.81-31.93a2.89,2.89,0,0,1-.13-4,2.94,2.94,0,0,1,1.41-.86l-32.92-32a2.9,2.9,0,0,1-.13-4,3,3,0,0,1,1.29-.82L6439.19,340a2.9,2.9,0,0,1-.13-4,2.87,2.87,0,0,1,1.12-.76l-27.89-27.06Zm-78.62-115.84L6829.89,731,6723.14,609.71ZM5055.65,647l13.86,84,78.23-74.15Zm404.69-27,21.18,95.31,82.06-84.34Zm1096.58,26.44,66.69,66.69,70.77-21.77L6667,620.15l-77.78-22.22Zm-374.73,44.42L6303,703.64l-22.75-104Zm103-95.53,23.13,105.8,99-92.71ZM4677.46,689.14l86.7,9.83-11.84-81.05ZM4757.75,615l12,82.06,76.33-72.57Zm-100-10.74,12.18,84,78.14-74.35Zm1495.88-23a1.42,1.42,0,0,1,.05.22L6177,687.73l100.28-93.3ZM5930.5,664.07,6044,676.13l-22-100.66Zm94.91-96.63a2.89,2.89,0,0,1,1.1,1.7l23,105.11,98.63-93.65Zm392,38.09,66.81,66.81L6550,645l-10.83-65a2.9,2.9,0,0,1-1.72-1l-.26-.32L6444.52,546Zm-1173.55-30,15.94,89.64s0,.09,0,.13l80.8-79.94Zm-184.62,66,194.17,20.87-31.2-175.51Zm839.66-86.75a2.9,2.9,0,0,1,2.83,2.28l22.91,104.55,97-93.94a2.77,2.77,0,0,1,.81-.55l-587.87-63,24.27,109.2,86.21-90.29a2.9,2.9,0,0,1,4.93,1.38l21.58,98.26L5658,533.92a2.89,2.89,0,0,1,4.91,1.4l22.05,100.42,90.4-91.13a2.9,2.9,0,0,1,4.89,1.42l22.52,102.67,94.17-93.07A2.91,2.91,0,0,1,5898.94,554.79Zm-1311.32,5.76-26.54,94.68,33.48-17.72a2.9,2.9,0,0,1,3.18.31,3,3,0,0,1,.68.79Zm1102.68,78,106.76,11.34-21.37-97.41Zm970.45-58.83,70.74,69.08L6700.44,613Zm-2111.11,3.12,8,63.25,22.81-81.34Zm490.83-28,13.76,83.45,78.1-74.11Zm425.15,59.79,100.62,10.69L5545.51,531Zm-801.33-15.6,183.84,19.76-25.91-170.13L4744,523.2a2.65,2.65,0,0,1-.33.42,2.83,2.83,0,0,1-.64.5Zm176.89-64.43,12.56,82.52,77.22-73.4Zm591.49-36.55L6412.2,603.05l26.47-58.22L6312.27,532l-.86.3a2.88,2.88,0,0,1-3-.68L4669.31,365.58l-36.42,46.83,796.5,85.34a2.92,2.92,0,0,1,2.21-.23A2.86,2.86,0,0,1,5432.67,498.1Zm-787.89,16.34,12.12,83.67,78-74.26-89-9A2.79,2.79,0,0,1,4644.78,514.44ZM5330.18,493l16,86.95,77.73-76.9Zm-82.91,77.12,93,9.44-15.3-83.06Zm-20-88.14,15.08,84.82L5321.2,492Zm-182.62,67.56,90.35,9.18L5121,477Zm81.23-78.43,14.63,85.41,79.4-75.33Zm-101.05-10.82a2.28,2.28,0,0,1,.11.45l14.19,86,80.4-76.35Zm1300.71,67.3,110.92,11.23L6406,500.31l-.16.06Zm-1480.41,1.68,87.79,8.92-12.73-80.34Zm78.53-79.82a2.9,2.9,0,0,1,1.4,2.05l13.49,85.11,80.9-76.9Zm-99.4-9.53a2.73,2.73,0,0,1,.94.16,2.89,2.89,0,0,1,1.93,2.3l12.77,83.85,80.29-76.38a3,3,0,0,1,1.1-.66L4630.81,418l13.31,91.9.1-.09,82.44-78.57a2.9,2.9,0,0,1,4.87,1.68l12.08,82.61,78.64-74.88A2.92,2.92,0,0,1,4824.25,439.87Zm1487.34,86.26h0l79.75-27-106.88-10.93ZM6197,514.52l106.86,10.83-26.6-37.21Zm-1544.26-4.84,85.37,8.67-11.55-79Zm1417.86-8,107.13,10.85-24.05-37.43Zm63.19-68.27,50.79,79.05L6277,482.14a3,3,0,0,1,1.08-.35l79.77-26.23Zm-187.55,55.67,106.64,10.8-21.3-37.37Zm92.3-26.08,20.65,36.24,80.83-25.86Zm253.78,20.14,108.92,11.15-29.48-37.27Zm-468-6.41L5930,487.47l-18.46-37.13Zm36-142.29,75.44,151.81,359.27-111.87Zm671.06,93.13,51.44,50-21.46-24.73Zm-825.11,37.2,103.87,10.53-15.57-36.66ZM5801,438.72l14.72,34.63,81.62-24.77Zm794.1,5.9,28.66,27.64-12.17-13.67ZM6046.25,458l103.24,10.57L6126.62,433Zm-454.89-4.83,102.85,10.42-12.9-36.41ZM5673.59,388l25.8,72.81,178-52.69Zm-196.28,53.59,103.11,10.44L5570,415.43Zm784.77-1.33,104.61,10.33L6339,415.67ZM5576.13,415.7l9.4,33.11,82.14-23.74Zm234.71,18.19,97.47,10L5891.49,410Zm-442.68-3.34,100.37,10.17-7.63-35.78Zm773.23-2.18,100.75,9.94L6218,404.52Zm84-23.45,23.87,33.37,74.91-24ZM5466.2,402l7.39,34.64,379.52-107.14v0a3,3,0,0,1,2.66-1.25l1.37.13,87.78-24.78a2.77,2.77,0,0,1,1.2-.34l85.06-24a2.86,2.86,0,0,1,2-.6h.08l83.24-23.5a2.84,2.84,0,0,1,.57-.16l63.63-18-392.88-31.51a2.78,2.78,0,0,1-1.15-.09l-368.78-29.57,4.6,21.55a2.89,2.89,0,0,1,1.06,5l5.24,24.53a2.9,2.9,0,0,1,1,4.87l5.61,26.28a2.9,2.9,0,0,1,1.72,2.42,2.94,2.94,0,0,1-.74,2.18l5.89,27.6,1.18.1a2.9,2.9,0,0,1,.46,5.7l-.38.1,6.3,29.51a2.94,2.94,0,0,1,1.13,2.07,2.85,2.85,0,0,1-.35,1.63l6.75,31.59a2.91,2.91,0,0,1,1,4.8l7.19,33.68a2.85,2.85,0,0,1,.64,1.58A3,3,0,0,1,5466.2,402Zm-205.79,17.64,99.71,10.11a3.4,3.4,0,0,1-.07-.34L5355,394.09Zm100.34-26,4.57,31.66,82.42-22.76Zm225.36,17.23,92.8,9.5-11.5-32.45Zm-431.91-2,100,10.14a2.84,2.84,0,0,1-.35-1.18l-2.62-34.63Zm100.11-62.25,5.09,67.28,96.74-26.14a2.8,2.8,0,0,1,.93-.25L5440.39,365Zm978.75,53.2,101.07,9.63-26.09-33ZM5049.5,398.27l99.85,10.11a2.92,2.92,0,0,1-.65-1.8l-.22-34Zm745.41-4.11,93.28,9.21-15.72-31.62Zm-640.63-21.64.2,30.28L5236.94,381ZM6367.4,235.23l172.7,166.84-70.47-80.15Zm-994,153.89,86,8.8-6.47-30.3Zm310.75-5.89,91.26,9-13.2-31.05Zm84.45-21.83,13,30.58,76.37-22.07ZM5059.22,260.86l-8.16,131,375.37-97.27ZM4954.05,352,4950.27,381l82.29-20.9Zm212.46,15.91,84.25,8.63-2.26-29.87Zm-301.68-59.76-12.3,62.21L5034.88,325Zm1341.53,52.26,96,8.81-24.2-30.58Zm-427.7-3.9,90.54,8.62-14.9-30Zm-410.27-4.48,83,8.19-6.09-28.53Zm-604.5-19.5-7.32,27.66,81.9-20ZM6092.49,350l93.22,8.57-21.35-29.83ZM6171.73,329l21.07,29.45,70.33-21.34ZM4967.94,347.62l79.55,8.14,1.77-28.4ZM5266.6,342l82.43,8.14-4.11-28.44Zm84.16-20.41,4.06,28,76.89-20.34Zm630.75,18.18,90.83,8.34L6053.59,319Zm57.09-54.88,40.48,63,156-46.15Zm-165.35,44.93,87.82,8.07-16.14-28.3Zm78.31-20.33,16.1,28.24,71-20.51ZM6180.33,324l92.68,8.23-22.85-28.89Zm237.95-29,35,33.9-13.92-16Zm-1055,22,80.5,7.67-5.77-27Zm-389.93-3.9,76.35,7.54,1.66-26.61Zm989.13-8.41,86.9,7.71-17.54-27.29Zm-999.23-20-3.35,25.71,76.59-18.73Zm1424.16-6.06L6407,301.86a2.89,2.89,0,0,1,.75-2,2.68,2.68,0,0,1,.89-.66ZM6156.75,289.2l88.22,7.56-21.29-26.89Zm-797.1-6.56,76.65,7-5.37-25.14Zm690-2.61,85.51,7.33-18.74-26.18Zm73.93-18.8,18.7,26.11,66.08-19.09Zm-860.8,12.51,76.74,7.05-3.66-25.25Zm78.92-18.36,3.61,24.91,71.74-18.22Zm-173.47,9.67,74.78,6.87-1.88-24.69Zm76.42-48.21,4.12,54.41L5410.28,231Zm1117.9,32.31L6378,267.46a2.95,2.95,0,0,1,1.55-1.88Zm-228.7,7.1,84.58,7-20-25.3a2.83,2.83,0,0,1-.57.23Zm-980.1-17.54.17,23.87,71.6-17.5Zm201.33,12,74.29,6.59-5.09-23.82Zm983.27-30.34,12.8,15.21a3,3,0,0,1,.55-.88,3.1,3.1,0,0,1,.82-.63Zm-232.17,4.79,87.7,7-21.29-26.91a2.91,2.91,0,0,1-2.05,2.13Zm-754.31-5,70.87,6.07L5418,204Zm722.44-20.06,16.55,23.26,62.16-17.15Zm-69.77,16.9,79.19,6.35-16.55-23.26Zm-671.12-21.29,3.22,22.2,67-16.39ZM5904.21,209l78.32,6.28-14.76-23.08ZM5956.6,164l32.73,51.21,77.86-21a2.74,2.74,0,0,1,.88-.24l62.6-16.9Zm-151.5,37.11,76.88,6.16-12.89-22.73Zm70.82-16.29,12.67,22.36,62.54-16.53Zm439.16,8,10.09,12a3,3,0,0,1,.42-.59,2.74,2.74,0,0,1,.7-.57ZM6085.5,195.2l84.28,6.54L6150.21,177a2.91,2.91,0,0,1-1.65,1.18Zm235.93-14.46,20.46,19.74-7.77-9Zm-613.83,12.5,75,6-11-22.26Zm31.11-96,50.36,102,299.17-77.46Zm-125.85,88.41,72.67,5.83-9.13-21.65Zm69.82-15.86,9.07,21.5,62.75-15.93Zm204.44,10,76.53,5.94-14.12-22.1Zm-366.92-1.61,70.92,5.69-7.44-21.2Zm60.15-42.48,16.8,47.84L5741,147.77Zm-82,19.76,5.8,20.66,62.8-15.34Zm793.48,9.67,6.89,8.19.14-.16a2.74,2.74,0,0,1,.7-.57Zm-226.54,1.13,81.23,6.09-18.69-23.62a2.87,2.87,0,0,1-1.84,1.48ZM5695.84,165l72.64,5.64-10.43-21.12Zm271.83-6,74.59,5.6-15-21Zm66.91-15.2,14.76,20.75,58.4-15.44ZM6270,139.21l5.3,6.29.1-.12a3.3,3.3,0,0,1,.53-.46Zm-224.29-.45,78.76,5.71-17.16-21.69a3.24,3.24,0,0,1-.41.13Zm-360.49-1,69.62,5.22-9.8-19.84Zm-24.61-21.16,8.11,19.21,58.77-14.35Zm588.09-2.71,2.7,3.21a2.28,2.28,0,0,1,.33-.29Zm-220.95-2.21L6102.7,117l-16.35-20.67a3,3,0,0,1-1.49.93Zm-93.11-6.54L6004,110l-13.38-18.79Zm63.19-13.72L6011,110l54.79-13.89Zm-154.26,7.33,67.7,4.75L5899.5,85.11Zm47.53-37.56L5918,103.32l128.24-31.91Zm-74.66,17.91L5826.56,97l54.95-13.42Zm193.43,7.32,72.59,4.93L6067,71.84a3,3,0,0,1-1.3.71Zm-16.15-24.3,69.21,4.55L6048.5,48.46a2.76,2.76,0,0,1-1.16.58ZM5964.3,43.89l11.82,16.58,51.4-12.56ZM7001,2504.63a3.07,3.07,0,0,1-.53-.05l-47-8.81a2.9,2.9,0,0,1-2.17-3.9l32.87-84.27a2.9,2.9,0,0,1,5.57.62l14.15,93.07a2.91,2.91,0,0,1-2.86,3.34ZM6958,2490.71l39.57,7.41-11.92-78.31Zm108.33-164.39a2.91,2.91,0,0,1-.82-.12l-40.33-11.81a2.89,2.89,0,0,1-1.92-3.73l27.16-78.74a3,3,0,0,1,3-1.94,2.91,2.91,0,0,1,2.6,2.47l13.17,90.55a2.9,2.9,0,0,1-2.87,3.32Zm-36.6-16.64,33.08,9.69L7052,2245.1ZM733.51,2680.09V2370.57H817q44.55,0,66.82,21.35t22.28,57.54q0,29.7-16,45.71t-41.07,20.65a98.1,98.1,0,0,1,38.05,12.76,66.46,66.46,0,0,1,25.52,27.15,82,82,0,0,1,8.82,38.05q0,30.18-13.46,50.58t-33.64,28.08q-20.19,7.65-38.75,7.65Zm35.27-178.19h45.48q26.44,0,40.83-14.85t14.39-39q0-45.48-51.05-45.47H768.78Zm0,146.18h65.43q22.27,0,36-13.69t13.69-41.54q0-58.92-68.21-58.93H768.78Zm1307,32V2370.57h35.27v309.52Zm1310.47,6a130.53,130.53,0,0,1-48.72-9.05,103.1,103.1,0,0,1-39.68-28.31q-16.93-19.24-26.91-49.42t-10-72.86q0-61.69,20.42-100t47.56-50.12q27.15-11.82,50.35-11.83,20,0,34.81,4.18a98.3,98.3,0,0,1,26.45,11.6,88.65,88.65,0,0,1,20.18,17.64,155,155,0,0,1,15.55,22.27l-26,21.81q-13.45-20.41-28.77-32.48t-39-12.07q-27.84,0-48.26,17.87T3306,2463.15a249.57,249.57,0,0,0-7.88,63.81q0,30.16,7.19,53.83t19.26,39.9q12.06,16.26,28.07,24.6a72.66,72.66,0,0,0,34.11,8.36,202.84,202.84,0,0,0,34.57-2.56,154.45,154.45,0,0,0,23.9-5.8v-80.74h-48.73v-32.48h84v136.42q-13,6-38.29,11.84T3386.25,2686.13ZM733.51,3952.52V3643h75.64a221.39,221.39,0,0,1,36,3,119.26,119.26,0,0,1,34.11,10.9,127.58,127.58,0,0,1,40.84,33.18q16.71,20.66,24.13,48.73a213.32,213.32,0,0,1,7.42,54.52q0,45-13.22,77.5t-35.73,51.5q-22.51,19-44.78,24.6a200.82,200.82,0,0,1-48.73,5.57Zm35.27-32H805q27.84,0,44.54-6.49,19.5-8.82,35.5-26.23t22.51-42a197.24,197.24,0,0,0,6.49-50.58q0-40.38-11.6-65t-32-38.51A88.51,88.51,0,0,0,840.24,3679a149.56,149.56,0,0,0-33.41-3.94H768.78Zm1200.51,32L2079.48,3643h28.72l112.16,309.52h-38.53l-34.74-95.6H2039l-32.57,95.6ZM2050.52,3824h85.1l-43.11-128.08Zm1315.73,128.54V3675H3275.3v-32h217.17v32h-91.42v277.49Zm1160.62,0L4637.07,3643h28.72L4778,3952.52h-38.53l-34.75-95.59h-108.1L4564,3952.52ZM4608.11,3824h85.09l-43.11-128.07ZM2066.38,5246.61V4937.09h35.27v277.5h136.42v32Zm1200.16,0,110.2-309.52h28.72l112.16,309.52h-38.53l-34.75-95.6h-108.1l-32.56,95.6Zm81.24-128.55h85.09L3389.76,4990Zm1214.84,128.55V4937.09h83.53q44.55,0,66.82,21.35t22.27,57.54q0,29.69-16,45.7t-41.07,20.65a98.22,98.22,0,0,1,38.05,12.76,66.46,66.46,0,0,1,25.52,27.15,82.17,82.17,0,0,1,8.82,38.05q0,30.18-13.46,50.58T4703.46,5239q-20.19,7.65-38.75,7.66Zm35.27-178.2h45.47q26.46,0,40.84-14.85t14.38-39q0-45.46-51-45.47h-49.65Zm0,146.18h65.43q22.28,0,36-13.69t13.69-41.54q0-58.92-68.22-58.93h-46.86Z"/><path class="cls-1" d="M3616.68,5787.79l57.6,136.73h40.12l55.37-136.73h-42.36l-32.7,89.17-33.82-89.17Zm225.16,140.08c-43.84,0-71.33-30.84-71.33-71.72s27.49-71.69,71.33-71.69c44.22,0,71.72,30.83,71.72,71.69S3886.06,5927.87,3841.84,5927.87Zm0-112.2c-21.17,0-31.58,18.57-31.58,40.85,0,21.94,10.41,40.14,31.58,40.14s31.59-18.2,31.59-40.14C3873.43,5834.24,3863,5815.67,3841.84,5815.67Zm224-83.63v189.88a283.11,283.11,0,0,1-58.34,5.95c-47.18,0-77.64-24.9-77.64-72.46,0-40.12,27.49-70.95,68.73-70.95,11.89,0,23.41,2.58,29.73,5.2V5732ZM4028.37,5822c-5.95-3.37-15.24-6.32-26.75-6.32-20.43,0-32,17.45-32,39.74,0,27.12,17.47,40.87,38.64,40.87,7.43,0,14.86-.36,20.07-1.46Zm55,37.15c0-43.1,32-74.68,77.64-74.68,22.69,0,45.69,5.58,58.71,10.77v129.29h-33.45l-2.57-11.89c-7.83,8.93-19,15.24-36.8,15.24C4110.84,5927.87,4083.37,5901.5,4083.37,5859.14Zm98.45-39.77a88.92,88.92,0,0,0-21.56-2.59c-18.18,0-37.15,14.12-37.15,40.87,0,26.39,14.87,39,31.6,39,12.63,0,22.65-6.69,27.11-14.13Zm75.8-78.75c-8.55,8.17-13.76,20.05-13.76,36v147.87h37.53V5820.87H4316v-33.08h-34.56v-8.17c0-5.94.74-9.65,3.34-12.27,3-2.59,6.33-4.06,15.24-4.06,5.22,0,15.24.73,21.19,1.47V5732a153.47,153.47,0,0,0-29-3.33C4278.44,5728.71,4265.78,5732.81,4257.62,5740.62ZM4391,5927.87c-44.21,0-71.71-30.84-71.71-71.72s27.5-71.69,71.71-71.69,71.36,30.83,71.36,71.69S4435.23,5927.87,4391,5927.87Zm0-112.2c-21.18,0-31.58,18.57-31.58,40.85,0,21.94,10.4,40.14,31.58,40.14s31.58-18.2,31.58-40.14C4422.58,5834.24,4412.17,5815.67,4391,5815.67Zm185.43,108.85h37.89V5842c0-36-25.27-57.58-68.73-57.58-24.16,0-48.7,4.84-65.79,10.77v129.29h37.52V5822a129.44,129.44,0,0,1,27.87-3.37c20.84,0,31.24,10.42,31.24,30.84Zm55.34-69.11c0-43.46,27.51-71.32,67.26-71.32,40.13,0,63.53,31.2,63.53,69.47,0,5.2-.36,12.26-.73,15.24h-91.77c1.84,19.31,14.49,29.71,39.38,29.71a162.67,162.67,0,0,0,47.92-7.42V5916a110.33,110.33,0,0,1-49.42,11.5C4659.65,5927.5,4631.77,5901.86,4631.77,5855.41Zm96.25-14.1c-1.12-14.13-11.16-25.64-29-25.64s-26.75,9.64-28.25,25.64Zm-1339.1-141a145.42,145.42,0,1,0,145.41,145.4A145.41,145.41,0,0,0,3388.92,5700.29ZM3460,5884.76a76.12,76.12,0,0,1-14.11,19.36,76.89,76.89,0,0,1-6.69,5.92,78.8,78.8,0,0,1-49.51,16.76,75.16,75.16,0,0,1-8.23-.57,78.67,78.67,0,0,1-12.46-2.55,83.12,83.12,0,0,1-46.4-34.71,88.68,88.68,0,0,1-10.55-23.45c-.19-.62-.37-1.25-.52-1.89a94.91,94.91,0,0,1-2.67-14.38,101.47,101.47,0,0,1-.49-15c0-.5,0-1,.07-1.49a114.33,114.33,0,0,1,3.14-20.92c6.61-26.84,22.41-49.54,40.92-65.2a136.28,136.28,0,0,1,39.86-23.35c4-1.55,8-2.89,11.91-4.05,2.52-.75,5-1.41,7.43-2a148.5,148.5,0,0,1,18.4-3.3c7.84-.86,14.25-.83,18.36-.17a16.27,16.27,0,0,1,2.94.71c-27,5.85-47.41,29.74-47.41,58.3,0,.64.13,1.38.17,2a95.61,95.61,0,0,1,30.73,11.84,69.49,69.49,0,0,1,20.18,18.61c.4.55.79,1.12,1.17,1.68a69.22,69.22,0,0,1,8.78,18.65,83.12,83.12,0,0,1,3.38,21.07c0,.95.05,1.89.05,2.83A77.67,77.67,0,0,1,3460,5884.76Z"/></g></g></g></svg>